<svg id="svg" version="1.1" xmlns="http://www.w3.org/2000/svg" xmlns:xlink="http://www.w3.org/1999/xlink" width="400" height="386.97318007662835" viewBox="0, 0, 400,386.97318007662835"><g id="svgg"><path id="path0" d="M275.895 206.776 C 275.764 206.989,274.718 207.164,273.572 207.164 C 272.426 207.164,271.380 207.338,271.249 207.551 C 271.117 207.764,270.420 207.938,269.700 207.938 C 268.980 207.938,268.283 208.112,268.151 208.325 C 268.019 208.538,267.322 208.712,266.602 208.712 C 265.882 208.712,265.185 208.887,265.053 209.100 C 264.922 209.313,264.133 209.487,263.300 209.487 C 262.467 209.487,261.165 209.835,260.407 210.261 C 259.648 210.687,258.695 211.036,258.288 211.036 C 257.881 211.036,257.440 211.210,257.309 211.423 C 257.177 211.636,256.729 211.810,256.313 211.810 C 255.896 211.810,255.253 211.972,254.883 212.170 C 252.470 213.461,248.295 215.295,247.769 215.295 C 247.424 215.295,246.928 215.553,246.667 215.868 C 246.060 216.599,244.027 217.619,243.176 217.619 C 242.816 217.619,242.205 217.967,241.820 218.393 C 241.434 218.819,240.917 219.167,240.671 219.167 C 240.424 219.167,239.722 219.690,239.109 220.329 C 238.497 220.968,237.798 221.491,237.556 221.491 C 237.018 221.491,235.431 223.128,235.431 223.682 C 235.431 224.321,234.083 225.363,233.257 225.363 C 232.490 225.363,228.461 229.126,228.461 229.843 C 228.461 230.057,227.590 231.091,226.525 232.139 C 225.460 233.188,224.589 234.244,224.589 234.485 C 224.589 235.160,223.342 236.120,222.275 236.267 C 221.748 236.339,221.119 236.797,220.877 237.285 C 220.256 238.535,218.740 240.077,218.132 240.077 C 217.850 240.077,217.619 240.312,217.619 240.598 C 217.619 240.885,217.270 241.434,216.844 241.820 C 216.418 242.205,216.070 242.816,216.070 243.176 C 216.070 244.027,215.051 246.060,214.319 246.667 C 214.004 246.928,213.746 247.445,213.746 247.816 C 213.746 248.186,213.049 249.844,212.197 251.500 C 211.346 253.157,210.649 254.826,210.649 255.210 C 210.649 255.594,210.474 256.016,210.261 256.147 C 210.048 256.279,209.874 256.719,209.874 257.126 C 209.874 257.533,209.526 258.487,209.100 259.245 C 208.674 260.003,208.325 260.957,208.325 261.364 C 208.325 261.770,208.151 262.211,207.938 262.343 C 207.724 262.475,207.551 264.211,207.551 266.215 C 207.551 268.219,207.377 269.955,207.164 270.087 C 206.951 270.219,206.776 271.613,206.776 273.185 C 206.776 274.757,206.602 276.151,206.389 276.283 C 206.147 276.432,206.002 280.288,206.002 286.567 C 206.002 293.005,206.141 296.612,206.389 296.612 C 206.610 296.612,206.776 297.773,206.776 299.322 C 206.776 300.871,206.942 302.033,207.164 302.033 C 207.387 302.033,207.551 303.251,207.551 304.914 C 207.551 306.499,207.725 307.903,207.938 308.035 C 208.151 308.166,208.325 308.607,208.325 309.014 C 208.325 309.421,208.674 310.374,209.100 311.133 C 209.526 311.891,209.874 312.844,209.874 313.251 C 209.874 313.658,210.048 314.099,210.261 314.230 C 210.474 314.362,210.649 314.803,210.649 315.210 C 210.649 315.616,210.997 316.570,211.423 317.328 C 211.849 318.087,212.197 318.934,212.197 319.210 C 212.197 319.806,213.793 323.034,214.521 323.911 C 215.210 324.741,216.844 328.002,216.844 328.546 C 216.844 329.434,217.799 330.969,218.562 331.307 C 218.994 331.499,219.540 332.046,219.776 332.524 C 220.493 333.978,221.566 334.947,222.459 334.947 C 223.300 334.947,224.589 336.025,224.589 336.729 C 224.589 336.930,225.983 338.480,227.686 340.174 C 229.390 341.868,230.784 343.442,230.784 343.671 C 230.784 344.390,233.299 346.563,234.131 346.563 C 234.971 346.563,236.049 347.554,236.759 348.979 C 236.995 349.452,237.576 350.033,238.049 350.269 C 238.523 350.505,239.230 350.987,239.621 351.341 C 240.012 351.695,240.509 351.985,240.726 351.985 C 240.942 351.985,241.434 352.333,241.820 352.759 C 242.205 353.185,242.908 353.533,243.381 353.533 C 243.855 353.533,244.456 353.791,244.717 354.106 C 245.259 354.759,247.326 355.857,248.013 355.857 C 248.265 355.857,250.183 356.728,252.275 357.793 C 254.366 358.858,256.388 359.729,256.767 359.729 C 257.146 359.729,257.564 359.903,257.696 360.116 C 257.828 360.329,258.239 360.503,258.610 360.503 C 259.706 360.503,261.321 361.419,261.512 362.149 C 261.648 362.669,262.098 362.827,263.445 362.827 C 264.411 362.827,265.309 363.001,265.440 363.214 C 265.572 363.427,266.105 363.601,266.625 363.601 C 267.145 363.601,267.570 363.775,267.570 363.988 C 267.570 364.201,268.267 364.376,269.119 364.376 C 269.971 364.376,270.668 364.550,270.668 364.763 C 270.668 364.981,271.757 365.150,273.162 365.150 C 274.534 365.150,275.764 365.324,275.895 365.537 C 276.038 365.767,278.483 365.924,281.925 365.924 C 285.863 365.924,287.962 366.078,288.485 366.405 C 289.098 366.787,289.412 366.787,290.024 366.405 C 290.524 366.092,292.409 365.924,295.422 365.924 C 298.090 365.924,300.152 365.760,300.290 365.537 C 300.422 365.324,301.642 365.150,303.001 365.150 C 304.360 365.150,305.580 364.976,305.712 364.763 C 305.843 364.550,306.714 364.376,307.648 364.376 C 308.581 364.376,309.452 364.201,309.584 363.988 C 309.715 363.775,310.597 363.601,311.543 363.601 C 312.489 363.601,313.262 363.427,313.262 363.214 C 313.262 363.001,313.785 362.827,314.424 362.827 C 315.328 362.827,315.586 362.655,315.586 362.052 C 315.586 361.450,315.844 361.278,316.747 361.278 C 317.386 361.278,317.909 361.104,317.909 360.891 C 317.909 360.678,318.432 360.503,319.071 360.503 C 319.710 360.503,320.232 360.329,320.232 360.116 C 320.232 359.903,320.548 359.729,320.935 359.729 C 321.321 359.729,324.054 358.509,327.009 357.018 C 329.963 355.528,332.604 354.308,332.877 354.308 C 333.151 354.308,333.995 353.959,334.753 353.533 C 335.512 353.107,336.422 352.759,336.777 352.759 C 337.131 352.759,337.899 352.301,338.483 351.742 C 339.066 351.183,339.947 350.524,340.440 350.279 C 340.933 350.033,341.569 349.347,341.853 348.754 C 342.137 348.161,342.660 347.575,343.015 347.452 C 344.170 347.051,346.951 344.099,346.951 343.274 C 346.951 342.465,350.306 338.819,351.051 338.819 C 351.556 338.819,353.921 336.391,353.921 335.872 C 353.921 335.656,354.443 334.978,355.082 334.366 C 355.721 333.754,356.244 333.046,356.244 332.792 C 356.244 332.538,356.502 332.117,356.817 331.856 C 357.498 331.290,358.567 329.236,358.567 328.493 C 358.567 327.916,359.238 326.606,360.060 325.578 C 360.772 324.688,363.214 319.801,363.214 319.267 C 363.214 318.383,364.206 316.781,364.860 316.610 C 365.232 316.512,365.537 316.103,365.537 315.699 C 365.537 314.805,366.395 312.882,366.796 312.878 C 366.955 312.876,367.086 312.352,367.086 311.713 C 367.086 311.075,367.260 310.552,367.473 310.552 C 367.686 310.552,367.861 310.029,367.861 309.390 C 367.861 308.751,368.035 308.228,368.248 308.228 C 368.461 308.228,368.635 307.531,368.635 306.680 C 368.635 305.828,368.809 305.131,369.022 305.131 C 369.235 305.131,369.409 304.434,369.409 303.582 C 369.409 302.730,369.584 302.033,369.797 302.033 C 370.012 302.033,370.184 301.000,370.184 299.710 C 370.184 298.419,370.356 297.386,370.571 297.386 C 370.810 297.386,370.958 295.411,370.958 292.236 C 370.958 288.689,371.106 286.939,371.433 286.612 C 371.807 286.238,371.807 285.977,371.433 285.378 C 371.127 284.888,370.958 282.966,370.958 279.967 C 370.958 277.123,370.808 275.315,370.571 275.315 C 370.353 275.315,370.184 274.225,370.184 272.821 C 370.184 271.449,370.010 270.219,369.797 270.087 C 369.584 269.956,369.409 269.259,369.409 268.538 C 369.409 267.818,369.235 267.121,369.022 266.989 C 368.809 266.858,368.635 265.812,368.635 264.666 C 368.635 263.520,368.461 262.474,368.248 262.343 C 368.035 262.211,367.861 261.688,367.861 261.181 C 367.861 260.674,367.686 260.151,367.473 260.019 C 367.260 259.888,367.086 259.447,367.086 259.040 C 367.086 258.633,366.738 257.680,366.312 256.922 C 365.886 256.163,365.537 255.183,365.537 254.744 C 365.537 254.304,365.232 253.862,364.860 253.761 C 364.164 253.572,361.665 248.881,361.665 247.765 C 361.665 247.422,361.407 246.928,361.092 246.667 C 360.361 246.060,359.342 244.027,359.342 243.176 C 359.342 242.816,358.993 242.205,358.567 241.820 C 358.141 241.434,357.793 240.912,357.793 240.658 C 357.793 240.405,357.444 239.882,357.018 239.497 C 356.592 239.111,356.244 238.594,356.244 238.347 C 356.244 238.101,355.721 237.398,355.082 236.786 C 354.443 236.174,353.921 235.479,353.921 235.241 C 353.921 234.707,351.514 232.333,350.974 232.333 C 350.467 232.333,348.500 230.286,348.500 229.758 C 348.500 229.537,348.151 229.040,347.725 228.654 C 347.299 228.269,346.951 227.753,346.951 227.509 C 346.951 227.264,346.341 226.473,345.595 225.750 C 344.850 225.028,344.240 224.205,344.240 223.922 C 344.240 223.639,343.848 223.256,343.369 223.071 C 342.890 222.886,342.075 222.281,341.559 221.725 C 341.043 221.170,340.422 220.716,340.179 220.716 C 339.937 220.716,339.237 220.194,338.625 219.555 C 338.013 218.916,337.202 218.393,336.822 218.393 C 336.443 218.393,335.512 218.045,334.753 217.619 C 333.995 217.193,333.163 216.844,332.905 216.844 C 332.523 216.844,325.552 213.601,322.851 212.167 C 322.482 211.971,321.664 211.810,321.035 211.810 C 320.406 211.810,319.783 211.636,319.652 211.423 C 319.520 211.210,319.079 211.036,318.672 211.036 C 318.265 211.036,317.312 210.687,316.554 210.261 C 315.795 209.835,314.493 209.487,313.661 209.487 C 312.828 209.487,312.039 209.313,311.907 209.100 C 311.775 208.887,311.078 208.712,310.358 208.712 C 309.638 208.712,308.941 208.538,308.809 208.325 C 308.678 208.112,307.796 207.938,306.850 207.938 C 305.905 207.938,305.131 207.764,305.131 207.551 C 305.131 207.336,304.098 207.164,302.807 207.164 C 301.517 207.164,300.484 206.992,300.484 206.776 C 300.484 206.526,296.168 206.389,288.309 206.389 C 280.611 206.389,276.047 206.532,275.895 206.776 M339.911 271.733 C 340.007 272.412,340.287 272.604,341.179 272.604 C 342.960 272.604,343.082 273.480,343.040 285.892 C 342.990 300.557,342.893 301.414,341.263 301.572 C 340.334 301.662,339.999 301.901,339.908 302.540 L 339.787 303.388 286.641 303.486 L 233.495 303.585 233.495 302.638 C 233.495 302.117,233.320 301.584,233.107 301.452 C 232.610 301.145,232.580 274.152,233.076 272.913 C 233.272 272.423,233.528 271.718,233.645 271.344 C 233.847 270.701,236.630 270.670,286.823 270.763 L 339.787 270.862 339.911 271.733 " stroke="none" fill="#f0445a" fill-rule="evenodd"></path><path id="path1" d="M70.582 0.861 C 70.693 1.346,72.027 5.315,73.547 9.681 C 75.067 14.046,76.921 19.448,77.667 21.684 C 78.413 23.921,79.173 26.099,79.356 26.525 C 79.731 27.396,80.204 28.803,80.981 31.365 C 81.649 33.564,81.670 42.841,81.014 45.402 C 80.754 46.413,80.348 48.069,80.110 49.080 C 79.633 51.116,79.036 53.220,78.602 54.405 C 78.445 54.831,77.765 56.922,77.089 59.051 C 76.414 61.181,75.703 63.272,75.510 63.698 C 75.318 64.124,74.902 65.257,74.587 66.215 C 72.241 73.352,65.520 91.460,65.039 91.941 C 64.775 92.204,54.101 81.786,32.324 60.010 L -0.000 27.688 0.000 35.630 L 0.000 43.573 30.485 74.050 L 60.969 104.527 60.256 106.378 C 59.863 107.396,59.067 109.581,58.485 111.234 C 57.904 112.888,57.314 114.354,57.175 114.493 C 57.036 114.633,56.922 115.069,56.922 115.462 C 56.922 115.855,56.763 116.480,56.570 116.849 C 56.053 117.838,54.684 122.348,53.780 126.041 C 53.572 126.893,53.243 128.199,53.049 128.945 C 51.428 135.189,50.088 142.603,49.093 150.823 C 48.478 155.901,48.485 180.520,49.102 185.479 C 49.849 191.487,50.508 195.475,51.483 199.903 C 51.705 200.915,52.049 202.483,52.246 203.388 C 52.443 204.293,52.791 205.687,53.020 206.486 C 53.900 209.555,54.223 210.691,54.559 211.907 C 55.466 215.188,57.394 220.548,58.980 224.201 C 59.304 224.947,59.874 226.341,60.248 227.299 C 62.612 233.364,71.326 248.692,74.997 253.243 C 75.254 253.562,76.297 254.956,77.314 256.341 C 78.331 257.725,79.258 258.945,79.374 259.051 C 79.490 259.158,80.366 260.199,81.322 261.366 C 82.277 262.533,83.642 264.101,84.354 264.851 C 85.066 265.601,86.099 266.825,86.650 267.570 C 87.201 268.316,90.300 271.568,93.538 274.798 C 99.061 280.308,99.472 280.821,100.212 283.123 C 102.103 289.000,110.730 314.151,110.922 314.342 C 111.038 314.458,111.133 314.949,111.133 315.434 C 111.133 315.918,111.307 316.422,111.520 316.554 C 111.733 316.685,111.907 317.208,111.907 317.715 C 111.907 318.223,112.081 318.745,112.294 318.877 C 112.507 319.009,112.682 319.531,112.682 320.039 C 112.682 320.546,112.856 321.069,113.069 321.200 C 113.282 321.332,113.456 321.855,113.456 322.362 C 113.456 322.869,113.596 323.371,113.766 323.476 C 113.937 323.582,114.320 324.562,114.618 325.653 C 114.915 326.745,115.298 327.725,115.469 327.831 C 115.640 327.936,115.779 328.438,115.779 328.945 C 115.779 329.452,115.954 329.975,116.167 330.106 C 116.379 330.238,116.554 330.686,116.554 331.103 C 116.554 331.519,116.722 332.162,116.927 332.532 C 117.133 332.902,117.836 334.860,118.490 336.883 C 119.144 338.906,119.847 340.864,120.052 341.234 C 120.258 341.604,120.426 342.247,120.426 342.663 C 120.426 343.079,120.600 343.528,120.813 343.659 C 121.026 343.791,121.200 344.314,121.200 344.821 C 121.200 345.328,121.375 345.851,121.588 345.983 C 121.801 346.114,121.975 346.562,121.975 346.979 C 121.975 347.395,122.143 348.038,122.349 348.408 C 122.554 348.778,123.257 350.736,123.911 352.759 C 124.565 354.782,125.268 356.740,125.473 357.110 C 125.679 357.480,125.847 358.123,125.847 358.539 C 125.847 358.955,126.021 359.404,126.234 359.535 C 126.447 359.667,126.621 360.115,126.621 360.531 C 126.621 360.948,126.792 361.591,127.001 361.961 C 127.398 362.663,129.933 370.162,130.566 372.507 C 131.795 377.055,132.801 382.746,132.810 385.189 L 132.817 387.222 138.432 387.222 L 144.046 387.222 144.046 385.457 C 144.046 384.486,143.884 382.962,143.686 382.069 C 143.487 381.176,143.123 379.313,142.876 377.928 C 142.629 376.544,142.290 374.976,142.123 374.443 C 141.956 373.911,141.611 372.517,141.356 371.346 C 141.100 370.174,140.751 368.780,140.578 368.248 C 140.405 367.715,140.049 366.496,139.787 365.537 C 139.525 364.579,139.174 363.359,139.008 362.827 C 138.842 362.294,138.320 360.552,137.848 358.955 C 135.820 352.090,130.614 336.851,123.032 315.586 C 115.008 293.078,114.706 291.956,117.145 293.661 C 117.565 293.954,118.519 294.540,119.264 294.961 C 120.010 295.383,121.404 296.185,122.362 296.743 C 124.805 298.167,130.676 301.011,135.915 303.309 C 149.525 309.280,166.959 313.504,182.575 314.616 C 189.025 315.075,188.717 314.900,189.743 318.683 C 190.276 320.648,190.829 322.379,191.291 323.524 C 191.462 323.950,191.895 325.082,192.251 326.041 C 199.456 345.396,215.152 363.494,234.736 375.028 C 238.251 377.098,248.999 382.220,251.500 383.017 C 252.352 383.289,253.224 383.618,253.437 383.748 C 253.650 383.878,254.608 384.213,255.566 384.493 C 256.525 384.773,258.279 385.327,259.464 385.725 C 260.650 386.122,261.990 386.447,262.442 386.447 C 262.895 386.447,263.373 386.621,263.504 386.834 C 263.812 387.332,315.313 387.369,316.269 386.872 C 316.638 386.680,317.725 386.308,318.683 386.046 C 324.421 384.476,326.321 383.725,333.785 380.078 C 340.376 376.857,345.462 373.838,348.834 371.143 C 354.741 366.423,360.891 360.830,360.891 360.178 C 360.891 360.018,360.194 359.206,359.342 358.374 C 358.490 357.542,357.793 356.675,357.793 356.447 C 357.793 355.898,363.992 349.832,364.860 349.533 C 365.232 349.404,365.537 349.031,365.537 348.705 C 365.537 347.843,365.980 347.969,367.488 349.258 C 369.330 350.832,369.468 350.784,371.635 347.822 C 376.586 341.055,376.522 341.368,373.323 339.570 C 371.730 338.675,371.588 337.818,372.801 336.414 C 373.116 336.050,374.093 334.323,374.973 332.576 C 376.958 328.635,377.275 328.417,379.473 329.479 C 380.407 329.931,381.369 330.300,381.611 330.300 C 382.625 330.300,387.097 318.559,388.726 311.617 C 389.870 306.742,390.144 305.239,391.083 298.667 C 391.603 295.029,391.596 281.150,391.072 277.548 C 389.772 268.610,389.419 266.777,387.941 261.278 C 387.213 258.568,385.286 252.711,384.885 251.990 C 384.679 251.620,384.511 251.139,384.511 250.921 C 384.511 250.010,378.879 238.376,376.688 234.761 C 363.226 212.549,344.203 196.748,321.475 188.902 C 294.350 179.539,260.816 182.850,236.980 197.244 C 234.142 198.958,226.434 204.066,226.137 204.429 C 226.031 204.560,225.160 205.268,224.201 206.004 C 212.088 215.301,199.704 231.406,193.459 245.983 C 193.116 246.781,192.594 248.001,192.298 248.693 C 191.031 251.654,189.984 254.674,188.975 258.277 C 188.707 259.235,188.350 260.455,188.182 260.987 C 187.175 264.179,185.896 271.368,185.108 278.263 C 184.362 284.789,184.716 294.985,185.899 301.037 C 186.430 303.753,186.283 303.818,180.931 303.250 C 161.399 301.178,136.873 293.456,126.606 286.146 C 126.016 285.726,125.425 285.382,125.293 285.382 C 124.785 285.382,114.277 278.159,111.326 275.782 C 93.847 261.698,77.117 239.369,69.272 219.652 C 68.439 217.559,68.128 216.791,67.782 215.973 C 66.956 214.021,63.853 204.176,63.174 201.355 C 57.816 179.070,57.490 159.900,62.138 140.328 C 64.015 132.422,64.367 130.992,64.652 130.106 C 64.823 129.574,65.156 128.441,65.392 127.590 C 66.555 123.391,72.241 105.916,73.782 101.803 C 75.833 96.332,81.814 79.675,86.308 66.916 C 95.383 41.156,95.215 36.531,84.082 5.421 L 82.212 0.194 76.296 0.086 L 70.380 -0.021 70.582 0.861 M327.590 78.107 C 327.270 78.225,325.044 79.252,322.643 80.389 L 318.277 82.458 318.914 83.920 C 321.938 90.871,324.788 98.544,326.433 104.163 C 326.900 105.760,327.419 107.502,327.585 108.035 C 329.072 112.802,331.147 122.644,332.198 129.913 C 333.637 139.876,334.182 147.495,334.177 157.581 C 334.173 165.454,333.943 169.605,333.077 177.458 C 332.704 180.845,331.895 180.136,340.852 184.274 C 344.750 186.074,344.509 186.127,344.761 183.417 C 345.891 171.252,346.031 151.009,345.043 142.752 C 344.835 141.015,344.468 137.851,344.227 135.721 C 342.943 124.335,340.116 110.964,336.517 99.244 C 334.933 94.088,332.063 86.096,330.725 83.121 C 330.327 82.235,329.628 80.682,329.173 79.671 C 328.717 78.659,328.305 77.845,328.258 77.862 C 328.210 77.879,327.909 77.989,327.590 78.107 M193.611 150.309 C 176.047 151.885,164.969 168.497,169.655 186.232 C 176.599 212.512,214.815 213.340,222.995 187.388 C 229.354 167.213,214.475 148.437,193.611 150.309 M204.287 163.210 C 215.741 168.809,216.146 187.069,204.943 192.784 C 192.997 198.878,180.067 191.358,180.067 178.316 C 180.067 165.483,192.753 157.571,204.287 163.210 M300.484 206.776 C 300.484 206.992,301.517 207.164,302.807 207.164 C 304.098 207.164,305.131 207.336,305.131 207.551 C 305.131 207.764,305.905 207.938,306.850 207.938 C 307.796 207.938,308.678 208.112,308.809 208.325 C 308.941 208.538,309.638 208.712,310.358 208.712 C 311.078 208.712,311.775 208.887,311.907 209.100 C 312.039 209.313,312.828 209.487,313.661 209.487 C 314.493 209.487,315.795 209.835,316.554 210.261 C 317.312 210.687,318.265 211.036,318.672 211.036 C 319.079 211.036,319.520 211.210,319.652 211.423 C 319.783 211.636,320.406 211.810,321.035 211.810 C 321.664 211.810,322.482 211.971,322.851 212.167 C 325.552 213.601,332.523 216.844,332.905 216.844 C 333.163 216.844,333.995 217.193,334.753 217.619 C 335.512 218.045,336.443 218.393,336.822 218.393 C 337.202 218.393,338.013 218.916,338.625 219.555 C 339.237 220.194,339.937 220.716,340.179 220.716 C 340.422 220.716,341.043 221.170,341.559 221.725 C 342.075 222.281,342.890 222.886,343.369 223.071 C 343.848 223.256,344.240 223.639,344.240 223.922 C 344.240 224.205,344.850 225.028,345.595 225.750 C 346.341 226.473,346.951 227.264,346.951 227.509 C 346.951 227.753,347.299 228.269,347.725 228.654 C 348.151 229.040,348.500 229.537,348.500 229.758 C 348.500 230.286,350.467 232.333,350.974 232.333 C 351.514 232.333,353.921 234.707,353.921 235.241 C 353.921 235.479,354.443 236.174,355.082 236.786 C 355.721 237.398,356.244 238.101,356.244 238.347 C 356.244 238.594,356.592 239.111,357.018 239.497 C 357.444 239.882,357.793 240.405,357.793 240.658 C 357.793 240.912,358.141 241.434,358.567 241.820 C 358.993 242.205,359.342 242.816,359.342 243.176 C 359.342 244.027,360.361 246.060,361.092 246.667 C 361.407 246.928,361.665 247.422,361.665 247.765 C 361.665 248.881,364.164 253.572,364.860 253.761 C 365.232 253.862,365.537 254.304,365.537 254.744 C 365.537 255.183,365.886 256.163,366.312 256.922 C 366.738 257.680,367.086 258.633,367.086 259.040 C 367.086 259.447,367.260 259.888,367.473 260.019 C 367.686 260.151,367.861 260.674,367.861 261.181 C 367.861 261.688,368.035 262.211,368.248 262.343 C 368.461 262.474,368.635 263.520,368.635 264.666 C 368.635 265.812,368.809 266.858,369.022 266.989 C 369.235 267.121,369.409 267.818,369.409 268.538 C 369.409 269.259,369.584 269.956,369.797 270.087 C 370.010 270.219,370.184 271.449,370.184 272.821 C 370.184 274.225,370.353 275.315,370.571 275.315 C 370.808 275.315,370.958 277.123,370.958 279.967 C 370.958 282.966,371.127 284.888,371.433 285.378 C 371.807 285.977,371.807 286.238,371.433 286.612 C 371.106 286.939,370.958 288.689,370.958 292.236 C 370.958 295.411,370.810 297.386,370.571 297.386 C 370.356 297.386,370.184 298.419,370.184 299.710 C 370.184 301.000,370.012 302.033,369.797 302.033 C 369.584 302.033,369.409 302.730,369.409 303.582 C 369.409 304.434,369.235 305.131,369.022 305.131 C 368.809 305.131,368.635 305.828,368.635 306.680 C 368.635 307.531,368.461 308.228,368.248 308.228 C 368.035 308.228,367.861 308.751,367.861 309.390 C 367.861 310.029,367.686 310.552,367.473 310.552 C 367.260 310.552,367.086 311.075,367.086 311.713 C 367.086 312.352,366.955 312.876,366.796 312.878 C 366.395 312.882,365.537 314.805,365.537 315.699 C 365.537 316.103,365.232 316.512,364.860 316.610 C 364.206 316.781,363.214 318.383,363.214 319.267 C 363.214 319.801,360.772 324.688,360.060 325.578 C 359.238 326.606,358.567 327.916,358.567 328.493 C 358.567 329.236,357.498 331.290,356.817 331.856 C 356.502 332.117,356.244 332.538,356.244 332.792 C 356.244 333.046,355.721 333.754,355.082 334.366 C 354.443 334.978,353.921 335.656,353.921 335.872 C 353.921 336.391,351.556 338.819,351.051 338.819 C 350.306 338.819,346.951 342.465,346.951 343.274 C 346.951 344.099,344.170 347.051,343.015 347.452 C 342.660 347.575,342.137 348.161,341.853 348.754 C 341.569 349.347,340.933 350.033,340.440 350.279 C 339.947 350.524,339.066 351.183,338.483 351.742 C 337.899 352.301,337.131 352.759,336.777 352.759 C 336.422 352.759,335.512 353.107,334.753 353.533 C 333.995 353.959,333.151 354.308,332.877 354.308 C 332.604 354.308,329.963 355.528,327.009 357.018 C 324.054 358.509,321.321 359.729,320.935 359.729 C 320.548 359.729,320.232 359.903,320.232 360.116 C 320.232 360.329,319.710 360.503,319.071 360.503 C 318.432 360.503,317.909 360.678,317.909 360.891 C 317.909 361.104,317.386 361.278,316.747 361.278 C 315.844 361.278,315.586 361.450,315.586 362.052 C 315.586 362.655,315.328 362.827,314.424 362.827 C 313.785 362.827,313.262 363.001,313.262 363.214 C 313.262 363.427,312.489 363.601,311.543 363.601 C 310.597 363.601,309.715 363.775,309.584 363.988 C 309.452 364.201,308.581 364.376,307.648 364.376 C 306.714 364.376,305.843 364.550,305.712 364.763 C 305.580 364.976,304.360 365.150,303.001 365.150 C 301.642 365.150,300.422 365.324,300.290 365.537 C 300.152 365.760,298.090 365.924,295.422 365.924 C 292.409 365.924,290.524 366.092,290.024 366.405 C 289.412 366.787,289.098 366.787,288.485 366.405 C 287.962 366.078,285.863 365.924,281.925 365.924 C 278.483 365.924,276.038 365.767,275.895 365.537 C 275.764 365.324,274.534 365.150,273.162 365.150 C 271.757 365.150,270.668 364.981,270.668 364.763 C 270.668 364.550,269.971 364.376,269.119 364.376 C 268.267 364.376,267.570 364.201,267.570 363.988 C 267.570 363.775,267.145 363.601,266.625 363.601 C 266.105 363.601,265.572 363.427,265.440 363.214 C 265.309 363.001,264.411 362.827,263.445 362.827 C 262.098 362.827,261.648 362.669,261.512 362.149 C 261.321 361.419,259.706 360.503,258.610 360.503 C 258.239 360.503,257.828 360.329,257.696 360.116 C 257.564 359.903,257.146 359.729,256.767 359.729 C 256.388 359.729,254.366 358.858,252.275 357.793 C 250.183 356.728,248.265 355.857,248.013 355.857 C 247.326 355.857,245.259 354.759,244.717 354.106 C 244.456 353.791,243.855 353.533,243.381 353.533 C 242.908 353.533,242.205 353.185,241.820 352.759 C 241.434 352.333,240.942 351.985,240.726 351.985 C 240.509 351.985,240.012 351.695,239.621 351.341 C 239.230 350.987,238.523 350.505,238.049 350.269 C 237.576 350.033,236.995 349.452,236.759 348.979 C 236.049 347.554,234.971 346.563,234.131 346.563 C 233.299 346.563,230.784 344.390,230.784 343.671 C 230.784 343.442,229.390 341.868,227.686 340.174 C 225.983 338.480,224.589 336.930,224.589 336.729 C 224.589 336.025,223.300 334.947,222.459 334.947 C 221.566 334.947,220.493 333.978,219.776 332.524 C 219.540 332.046,218.994 331.499,218.562 331.307 C 217.799 330.969,216.844 329.434,216.844 328.546 C 216.844 328.002,215.210 324.741,214.521 323.911 C 213.793 323.034,212.197 319.806,212.197 319.210 C 212.197 318.934,211.849 318.087,211.423 317.328 C 210.997 316.570,210.649 315.616,210.649 315.210 C 210.649 314.803,210.474 314.362,210.261 314.230 C 210.048 314.099,209.874 313.658,209.874 313.251 C 209.874 312.844,209.526 311.891,209.100 311.133 C 208.674 310.374,208.325 309.421,208.325 309.014 C 208.325 308.607,208.151 308.166,207.938 308.035 C 207.725 307.903,207.551 306.499,207.551 304.914 C 207.551 303.251,207.387 302.033,207.164 302.033 C 206.942 302.033,206.776 300.871,206.776 299.322 C 206.776 297.773,206.610 296.612,206.389 296.612 C 206.141 296.612,206.002 293.005,206.002 286.567 C 206.002 280.288,206.147 276.432,206.389 276.283 C 206.602 276.151,206.776 274.757,206.776 273.185 C 206.776 271.613,206.951 270.219,207.164 270.087 C 207.377 269.955,207.551 268.219,207.551 266.215 C 207.551 264.211,207.724 262.475,207.938 262.343 C 208.151 262.211,208.325 261.770,208.325 261.364 C 208.325 260.957,208.674 260.003,209.100 259.245 C 209.526 258.487,209.874 257.533,209.874 257.126 C 209.874 256.719,210.048 256.279,210.261 256.147 C 210.474 256.016,210.649 255.594,210.649 255.210 C 210.649 254.826,211.346 253.157,212.197 251.500 C 213.049 249.844,213.746 248.186,213.746 247.816 C 213.746 247.445,214.004 246.928,214.319 246.667 C 215.051 246.060,216.070 244.027,216.070 243.176 C 216.070 242.816,216.418 242.205,216.844 241.820 C 217.270 241.434,217.619 240.885,217.619 240.598 C 217.619 240.312,217.850 240.077,218.132 240.077 C 218.740 240.077,220.256 238.535,220.877 237.285 C 221.119 236.797,221.748 236.339,222.275 236.267 C 223.342 236.120,224.589 235.160,224.589 234.485 C 224.589 234.244,225.460 233.188,226.525 232.139 C 227.590 231.091,228.461 230.057,228.461 229.843 C 228.461 229.126,232.490 225.363,233.257 225.363 C 234.083 225.363,235.431 224.321,235.431 223.682 C 235.431 223.128,237.018 221.491,237.556 221.491 C 237.798 221.491,238.497 220.968,239.109 220.329 C 239.722 219.690,240.424 219.167,240.671 219.167 C 240.917 219.167,241.434 218.819,241.820 218.393 C 242.205 217.967,242.816 217.619,243.176 217.619 C 244.027 217.619,246.060 216.599,246.667 215.868 C 246.928 215.553,247.424 215.295,247.769 215.295 C 248.295 215.295,252.470 213.461,254.883 212.170 C 255.253 211.972,255.896 211.810,256.313 211.810 C 256.729 211.810,257.177 211.636,257.309 211.423 C 257.440 211.210,257.881 211.036,258.288 211.036 C 258.695 211.036,259.648 210.687,260.407 210.261 C 261.165 209.835,262.467 209.487,263.300 209.487 C 264.133 209.487,264.922 209.313,265.053 209.100 C 265.185 208.887,265.882 208.712,266.602 208.712 C 267.322 208.712,268.019 208.538,268.151 208.325 C 268.283 208.112,268.980 207.938,269.700 207.938 C 270.420 207.938,271.117 207.764,271.249 207.551 C 271.380 207.338,272.426 207.164,273.572 207.164 C 274.718 207.164,275.764 206.989,275.895 206.776 C 276.047 206.532,280.611 206.389,288.309 206.389 C 296.168 206.389,300.484 206.526,300.484 206.776 M233.645 271.344 C 233.528 271.718,233.272 272.423,233.076 272.913 C 232.580 274.152,232.610 301.145,233.107 301.452 C 233.320 301.584,233.495 302.117,233.495 302.638 L 233.495 303.585 286.641 303.486 L 339.787 303.388 339.908 302.540 C 339.999 301.901,340.334 301.662,341.263 301.572 C 342.893 301.414,342.990 300.557,343.040 285.892 C 343.082 273.480,342.960 272.604,341.179 272.604 C 340.287 272.604,340.007 272.412,339.911 271.733 L 339.787 270.862 286.823 270.763 C 236.630 270.670,233.847 270.701,233.645 271.344 M339.077 274.282 C 339.475 274.679,339.761 292.887,339.413 295.673 C 339.169 297.627,339.113 297.704,337.731 297.989 C 335.925 298.361,245.022 298.681,238.625 298.337 L 233.882 298.083 233.882 286.137 L 233.882 274.192 236.108 274.047 C 240.694 273.749,338.768 273.973,339.077 274.282 " stroke="none" fill="#050505" fill-rule="evenodd"></path><path id="path2" d="M-0.000 13.297 L -0.000 26.595 32.203 58.849 C 66.236 92.936,65.440 92.213,65.440 89.064 C 65.440 88.722,65.584 88.276,65.760 88.074 C 65.936 87.871,66.316 86.922,66.605 85.963 C 66.893 85.005,67.240 84.046,67.377 83.833 C 67.513 83.621,67.867 82.662,68.164 81.704 C 68.462 80.745,69.006 79.439,69.375 78.800 C 70.039 77.649,73.622 67.592,76.824 57.890 C 78.898 51.606,79.613 49.026,80.511 44.598 C 81.108 41.655,81.035 34.124,80.386 31.674 C 79.746 29.258,78.712 26.069,78.214 24.976 C 78.020 24.550,77.256 22.372,76.517 20.136 C 75.778 17.899,73.942 12.521,72.437 8.183 C 70.931 3.846,69.700 0.230,69.700 0.148 C 69.700 0.067,54.017 0.000,34.850 0.000 L 0.000 0.000 -0.000 13.297 M83.259 0.290 C 83.262 0.450,84.145 3.107,85.221 6.196 C 86.297 9.284,87.793 13.727,88.544 16.070 C 89.296 18.412,90.069 20.632,90.261 21.002 C 90.453 21.371,90.610 22.112,90.610 22.647 C 90.610 23.183,90.784 23.621,90.997 23.621 C 91.210 23.621,91.384 24.220,91.384 24.953 C 91.384 25.686,91.559 26.393,91.772 26.525 C 91.985 26.656,92.159 27.451,92.159 28.290 C 92.159 29.129,92.333 29.816,92.546 29.816 C 92.767 29.816,92.933 30.970,92.933 32.504 C 92.933 33.982,93.107 35.299,93.320 35.431 C 93.533 35.562,93.708 37.218,93.708 39.109 C 93.708 41.001,93.533 42.656,93.320 42.788 C 93.107 42.920,92.933 44.226,92.933 45.692 C 92.933 47.158,92.759 48.465,92.546 48.596 C 92.333 48.728,92.159 49.609,92.159 50.555 C 92.159 51.501,91.985 52.275,91.772 52.275 C 91.559 52.275,91.384 52.875,91.384 53.607 C 91.384 54.340,91.210 55.047,90.997 55.179 C 90.784 55.311,90.610 55.931,90.610 56.557 C 90.610 57.184,90.436 57.696,90.223 57.696 C 90.010 57.696,89.835 58.208,89.835 58.835 C 89.835 59.461,89.661 60.081,89.448 60.213 C 89.235 60.345,89.061 60.878,89.061 61.397 C 89.061 61.917,88.907 62.343,88.718 62.343 C 88.529 62.343,88.290 62.822,88.187 63.408 C 88.011 64.409,83.614 77.508,82.890 79.187 C 82.707 79.613,82.347 80.571,82.091 81.317 C 81.835 82.062,81.487 83.020,81.317 83.446 C 81.147 83.872,80.798 84.831,80.542 85.576 C 79.979 87.215,79.408 88.635,78.948 89.540 C 78.760 89.910,78.606 90.553,78.606 90.969 C 78.606 91.385,78.466 91.812,78.295 91.918 C 78.125 92.023,77.742 93.003,77.444 94.095 C 77.147 95.187,76.764 96.166,76.593 96.272 C 76.422 96.378,76.283 96.889,76.283 97.409 C 76.283 97.929,76.108 98.354,75.895 98.354 C 75.682 98.354,75.508 98.780,75.508 99.300 C 75.508 99.819,75.334 100.352,75.121 100.484 C 74.908 100.616,74.734 101.138,74.734 101.646 C 74.734 102.153,74.594 102.654,74.423 102.760 C 74.252 102.866,73.869 103.845,73.572 104.937 C 73.275 106.029,72.892 107.009,72.721 107.114 C 72.550 107.220,72.410 107.721,72.410 108.228 C 72.410 108.736,72.236 109.259,72.023 109.390 C 71.810 109.522,71.636 110.044,71.636 110.552 C 71.636 111.059,71.462 111.582,71.249 111.713 C 71.036 111.845,70.862 112.368,70.862 112.875 C 70.862 113.382,70.687 113.905,70.474 114.037 C 70.261 114.168,70.087 114.691,70.087 115.198 C 70.087 115.706,69.913 116.228,69.700 116.360 C 69.487 116.492,69.313 117.014,69.313 117.522 C 69.313 118.029,69.138 118.552,68.925 118.683 C 68.712 118.815,68.538 119.338,68.538 119.845 C 68.538 120.352,68.364 120.875,68.151 121.007 C 67.938 121.138,67.764 121.759,67.764 122.385 C 67.764 123.011,67.590 123.524,67.377 123.524 C 67.164 123.524,66.989 124.036,66.989 124.663 C 66.989 125.289,66.815 125.909,66.602 126.041 C 66.389 126.172,66.215 126.880,66.215 127.612 C 66.215 128.345,66.060 128.945,65.870 128.945 C 65.680 128.945,65.419 129.555,65.289 130.300 C 65.159 131.045,64.947 132.267,64.817 133.014 C 64.687 133.762,64.425 134.469,64.236 134.586 C 64.047 134.703,63.892 135.388,63.892 136.108 C 63.892 136.829,63.717 137.526,63.504 137.657 C 63.291 137.789,63.117 138.573,63.117 139.400 C 63.117 140.227,62.943 141.011,62.730 141.142 C 62.517 141.274,62.343 142.145,62.343 143.078 C 62.343 144.012,62.168 144.883,61.955 145.015 C 61.742 145.146,61.568 146.017,61.568 146.951 C 61.568 147.884,61.394 148.755,61.181 148.887 C 60.968 149.018,60.794 150.214,60.794 151.543 C 60.794 152.872,60.630 154.125,60.430 154.327 C 59.416 155.351,59.420 181.133,60.434 182.168 C 60.632 182.371,60.794 183.711,60.794 185.147 C 60.794 186.582,60.968 187.865,61.181 187.996 C 61.394 188.128,61.568 189.184,61.568 190.342 C 61.568 191.501,61.742 192.449,61.955 192.449 C 62.168 192.449,62.343 193.223,62.343 194.169 C 62.343 195.115,62.517 195.996,62.730 196.128 C 62.943 196.259,63.117 197.044,63.117 197.870 C 63.117 198.697,63.291 199.481,63.504 199.613 C 63.717 199.744,63.892 200.441,63.892 201.162 C 63.892 201.882,64.066 202.579,64.279 202.711 C 64.492 202.842,64.666 203.462,64.666 204.089 C 64.666 204.715,64.840 205.227,65.053 205.227 C 65.266 205.227,65.440 205.740,65.440 206.366 C 65.440 206.993,65.615 207.613,65.828 207.744 C 66.041 207.876,66.215 208.399,66.215 208.906 C 66.215 209.413,66.389 209.936,66.602 210.068 C 66.815 210.199,66.989 210.722,66.989 211.229 C 66.989 211.737,67.164 212.259,67.377 212.391 C 67.590 212.523,67.764 212.971,67.764 213.387 C 67.764 213.804,67.918 214.447,68.106 214.816 C 68.294 215.186,68.642 215.968,68.880 216.554 C 69.118 217.139,69.507 218.098,69.745 218.683 C 69.983 219.269,70.331 220.051,70.520 220.421 C 70.708 220.791,70.862 221.357,70.862 221.679 C 70.862 222.002,71.036 222.265,71.249 222.265 C 71.462 222.265,71.636 222.503,71.636 222.793 C 71.636 223.435,77.562 235.161,78.219 235.818 C 78.325 235.924,78.630 236.404,78.896 236.883 C 79.879 238.651,80.356 239.467,80.638 239.864 C 80.798 240.088,82.092 242.013,83.515 244.143 C 84.937 246.272,86.331 248.245,86.613 248.527 C 86.894 248.808,87.125 249.193,87.125 249.381 C 87.125 249.569,87.521 250.123,88.005 250.612 C 88.488 251.101,89.313 252.110,89.837 252.856 C 90.362 253.601,91.316 254.759,91.959 255.428 C 92.601 256.098,93.706 257.317,94.413 258.139 C 95.120 258.960,96.994 260.961,98.576 262.584 C 100.158 264.208,101.452 265.658,101.452 265.806 C 101.452 266.135,101.663 266.337,105.310 269.510 C 106.899 270.892,108.568 272.372,109.018 272.798 C 109.468 273.224,110.417 274.008,111.127 274.540 C 111.836 275.073,112.607 275.688,112.840 275.908 C 113.072 276.128,113.872 276.730,114.618 277.245 C 115.363 277.760,116.060 278.288,116.167 278.419 C 116.273 278.550,117.231 279.245,118.296 279.964 C 119.361 280.683,120.290 281.412,120.361 281.584 C 120.432 281.757,120.704 281.897,120.966 281.897 C 121.228 281.897,121.787 282.202,122.209 282.575 C 123.182 283.435,125.064 284.592,125.944 284.871 C 126.317 284.989,126.621 285.239,126.621 285.428 C 126.621 285.616,126.970 285.770,127.396 285.770 C 127.822 285.770,128.172 285.900,128.173 286.060 C 128.175 286.220,128.567 286.542,129.045 286.777 C 131.375 287.921,133.411 289.090,133.527 289.351 C 133.598 289.511,133.905 289.642,134.210 289.642 C 134.514 289.642,135.066 289.794,135.436 289.981 C 138.315 291.431,139.548 291.965,140.017 291.965 C 140.317 291.965,140.561 292.119,140.561 292.307 C 140.561 292.495,140.954 292.740,141.433 292.851 C 141.912 292.961,144.046 293.698,146.176 294.487 C 150.686 296.158,155.152 297.555,159.245 298.574 C 160.044 298.772,161.438 299.120,162.343 299.347 C 164.918 299.991,169.194 300.797,174.250 301.593 C 175.634 301.811,177.812 302.164,179.090 302.377 C 181.775 302.825,184.995 303.041,185.225 302.788 C 185.313 302.692,185.152 300.784,184.869 298.548 C 183.826 290.311,184.278 276.910,185.881 268.538 C 186.775 263.865,186.959 263.064,187.793 260.213 C 188.260 258.616,188.734 256.827,188.848 256.239 C 188.961 255.651,189.208 255.074,189.396 254.958 C 189.584 254.841,189.739 254.406,189.739 253.989 C 189.739 253.573,189.913 252.886,190.126 252.463 C 190.339 252.040,190.687 251.348,190.900 250.925 C 191.113 250.502,191.288 249.977,191.288 249.759 C 191.288 248.627,198.022 235.041,198.742 234.721 C 198.901 234.650,199.032 234.423,199.032 234.216 C 199.032 234.009,199.729 232.813,200.581 231.559 C 201.433 230.304,202.130 229.094,202.130 228.869 C 202.130 228.645,202.266 228.461,202.433 228.461 C 202.601 228.461,203.042 227.944,203.415 227.313 C 203.788 226.682,204.310 225.941,204.576 225.668 C 204.842 225.394,205.481 224.560,205.996 223.814 C 206.511 223.069,207.028 222.372,207.145 222.265 C 207.262 222.159,208.305 220.939,209.463 219.555 C 212.856 215.500,220.047 208.510,223.814 205.604 C 224.773 204.864,225.644 204.161,225.750 204.041 C 226.160 203.580,232.282 199.479,235.216 197.700 C 247.548 190.222,260.223 185.844,275.315 183.850 C 280.013 183.228,297.999 183.228,302.420 183.849 C 313.982 185.472,322.920 188.197,333.204 193.231 C 338.265 195.709,346.983 201.009,347.273 201.785 C 347.344 201.975,347.606 202.131,347.854 202.132 C 348.103 202.132,348.834 202.612,349.479 203.196 C 350.123 203.781,351.430 204.864,352.383 205.604 C 360.849 212.175,371.616 224.725,377.210 234.541 C 379.456 238.482,381.239 241.930,382.575 244.918 C 383.051 245.983,383.769 247.524,384.170 248.342 C 384.570 249.161,384.898 250.078,384.898 250.381 C 384.898 250.683,385.052 251.233,385.240 251.603 C 385.846 252.794,386.385 254.174,386.863 255.760 C 387.119 256.612,387.459 257.657,387.618 258.083 C 387.915 258.878,388.560 261.222,389.190 263.795 C 389.385 264.593,389.710 265.900,389.912 266.699 C 392.519 277.009,392.714 296.024,390.326 307.164 C 389.207 312.385,389.190 312.453,387.947 316.747 C 387.732 317.493,387.459 318.497,387.342 318.980 C 387.225 319.462,386.976 319.951,386.788 320.067 C 386.601 320.183,386.447 320.619,386.447 321.035 C 386.447 321.766,386.307 322.143,385.346 324.002 C 385.100 324.479,384.898 325.132,384.898 325.455 C 384.898 325.777,384.724 326.041,384.511 326.041 C 384.298 326.041,384.124 326.304,384.124 326.627 C 384.124 327.226,383.935 327.684,382.845 329.719 C 382.139 331.036,381.635 331.054,379.209 329.847 C 377.471 328.982,376.379 329.371,376.379 330.853 C 376.379 331.188,376.205 331.462,375.992 331.462 C 375.779 331.462,375.605 331.810,375.605 332.236 C 375.605 332.662,375.431 333.011,375.218 333.011 C 375.005 333.011,374.831 333.359,374.831 333.785 C 374.831 334.211,374.656 334.560,374.443 334.560 C 374.230 334.560,374.056 334.870,374.056 335.248 C 374.056 335.627,373.708 336.189,373.282 336.496 C 371.942 337.461,372.329 338.521,374.449 339.690 C 377.134 341.171,377.285 340.744,370.765 350.090 C 369.789 351.488,369.471 351.482,367.647 350.033 C 366.390 349.034,366.116 348.946,365.833 349.452 C 365.649 349.780,365.271 350.048,364.993 350.048 C 364.715 350.048,363.043 351.454,361.276 353.171 L 358.064 356.293 359.864 358.120 C 362.133 360.425,362.225 360.237,356.158 365.731 C 353.850 367.821,353.465 368.142,350.823 370.189 C 349.864 370.932,348.993 371.640,348.887 371.764 C 348.582 372.118,342.943 375.862,341.285 376.812 C 337.698 378.865,333.539 381.089,332.914 381.288 C 332.541 381.407,332.236 381.658,332.236 381.846 C 332.236 382.034,331.888 382.188,331.462 382.188 C 331.036 382.188,330.687 382.362,330.687 382.575 C 330.687 382.788,330.424 382.962,330.101 382.962 C 329.779 382.962,329.213 383.116,328.843 383.304 C 328.473 383.492,327.648 383.861,327.009 384.124 C 326.370 384.387,325.544 384.755,325.175 384.944 C 324.805 385.132,324.162 385.286,323.745 385.286 C 323.329 385.286,322.881 385.460,322.749 385.673 C 322.618 385.886,322.119 386.060,321.642 386.060 C 321.165 386.060,320.609 386.222,320.407 386.420 C 320.204 386.617,319.429 386.851,318.683 386.938 C 317.938 387.026,334.230 387.126,354.889 387.160 L 392.449 387.222 392.372 336.012 C 392.330 307.846,392.287 220.721,392.276 142.401 L 392.256 0.000 237.754 0.000 C 152.778 0.000,83.255 0.131,83.259 0.290 M0.253 44.794 C 0.141 44.906,1.714 46.644,3.748 48.656 C 5.783 50.667,7.530 52.231,7.631 52.130 C 7.732 52.030,6.159 50.292,4.135 48.269 C 2.112 46.245,0.365 44.682,0.253 44.794 M104.550 70.196 C 109.739 71.883,109.547 71.452,107.635 77.151 C 106.742 79.815,105.897 82.178,105.759 82.402 C 105.373 83.026,95.485 79.624,95.320 78.810 C 95.249 78.457,95.937 75.996,96.849 73.340 L 98.508 68.511 99.690 68.755 C 100.340 68.890,102.527 69.538,104.550 70.196 M24.395 69.121 C 24.395 69.503,44.984 89.898,45.176 89.706 C 45.368 89.514,24.973 68.925,24.590 68.925 C 24.483 68.925,24.395 69.013,24.395 69.121 M329.333 78.608 C 330.946 81.727,336.132 95.505,337.312 99.806 C 337.502 100.499,337.822 101.631,338.023 102.323 C 338.760 104.863,339.267 106.716,339.637 108.228 C 339.845 109.080,340.192 110.474,340.407 111.326 C 341.040 113.836,341.449 115.747,342.709 122.072 C 346.356 140.383,347.484 169.717,345.109 184.511 C 344.720 186.937,345.209 187.035,336.205 182.725 C 331.720 180.578,331.856 180.832,332.601 176.024 C 333.484 170.328,333.890 157.385,333.436 149.404 C 332.556 133.908,331.207 124.801,327.767 111.133 C 326.055 104.331,323.243 95.619,321.205 90.803 C 320.934 90.165,320.065 88.113,319.273 86.245 C 317.637 82.387,317.662 82.093,319.713 81.121 C 320.531 80.733,322.594 79.751,324.298 78.937 C 328.046 77.148,328.561 77.114,329.333 78.608 M99.817 92.992 C 101.505 93.664,101.819 93.936,101.624 94.550 C 100.513 98.052,97.986 104.356,97.694 104.356 C 96.293 104.356,87.516 100.793,87.514 100.224 C 87.512 99.466,90.547 91.005,91.046 90.375 C 91.382 89.953,94.599 90.913,99.817 92.992 M202.093 150.066 C 232.696 156.451,232.418 201.266,201.742 206.609 C 187.669 209.060,173.394 200.870,169.642 188.190 C 169.358 187.231,168.932 185.924,168.694 185.286 C 168.448 184.622,168.263 181.633,168.263 178.316 C 168.263 174.999,168.448 172.009,168.694 171.346 C 168.932 170.707,169.358 169.400,169.642 168.441 C 172.121 160.063,180.070 152.582,188.577 150.621 C 189.748 150.351,191.229 149.997,191.868 149.834 C 193.868 149.324,199.104 149.443,202.093 150.066 M47.734 159.923 C 47.734 160.881,47.809 161.273,47.902 160.794 C 47.994 160.315,47.994 159.530,47.902 159.051 C 47.809 158.572,47.734 158.964,47.734 159.923 M47.718 176.573 C 47.718 177.318,47.798 177.623,47.895 177.251 C 47.993 176.878,47.993 176.268,47.895 175.895 C 47.798 175.523,47.718 175.828,47.718 176.573 M238.390 275.605 C 238.258 276.404,238.150 281.065,238.150 285.963 C 238.150 290.862,238.258 295.523,238.390 296.321 L 238.630 297.773 287.318 297.773 L 336.007 297.773 336.247 296.321 C 336.559 294.433,336.559 277.493,336.247 275.605 L 336.007 274.153 287.318 274.153 L 238.630 274.153 238.390 275.605 M336.108 285.963 L 336.108 295.837 287.318 295.837 L 238.529 295.837 238.529 285.963 L 238.529 276.089 287.318 276.089 L 336.108 276.089 336.108 285.963 M116.941 295.589 C 116.941 296.126,117.115 296.674,117.328 296.805 C 117.541 296.937,117.715 297.460,117.715 297.967 C 117.715 298.474,117.890 298.997,118.103 299.129 C 118.316 299.260,118.490 299.709,118.490 300.125 C 118.490 300.541,118.658 301.184,118.863 301.554 C 119.226 302.208,121.441 308.538,123.366 314.424 C 123.888 316.021,124.486 317.631,124.694 318.001 C 124.902 318.370,125.073 319.024,125.073 319.453 C 125.073 319.881,125.247 320.232,125.460 320.232 C 125.673 320.232,125.847 320.755,125.847 321.394 C 125.847 322.033,126.021 322.556,126.234 322.556 C 126.447 322.556,126.621 323.078,126.621 323.717 C 126.621 324.356,126.796 324.879,127.009 324.879 C 127.222 324.879,127.396 325.230,127.396 325.659 C 127.396 326.088,127.570 326.785,127.783 327.208 C 127.996 327.631,128.345 328.323,128.558 328.746 C 128.771 329.169,128.945 329.866,128.945 330.295 C 128.945 330.724,129.119 331.075,129.332 331.075 C 129.545 331.075,129.719 331.597,129.719 332.236 C 129.719 332.875,129.894 333.398,130.106 333.398 C 130.319 333.398,130.494 333.921,130.494 334.560 C 130.494 335.198,130.668 335.721,130.881 335.721 C 131.094 335.721,131.268 336.147,131.268 336.666 C 131.268 337.186,131.442 337.719,131.655 337.851 C 131.868 337.983,132.043 338.516,132.043 339.035 C 132.043 339.555,132.217 339.981,132.430 339.981 C 132.643 339.981,132.817 340.406,132.817 340.926 C 132.817 341.446,132.991 341.979,133.204 342.110 C 133.417 342.242,133.591 342.765,133.591 343.272 C 133.591 343.779,133.766 344.302,133.979 344.434 C 134.192 344.565,134.366 345.088,134.366 345.595 C 134.366 346.103,134.540 346.625,134.753 346.757 C 134.966 346.889,135.140 347.411,135.140 347.919 C 135.140 348.426,135.315 348.949,135.528 349.080 C 135.741 349.212,135.915 349.735,135.915 350.242 C 135.915 350.749,136.089 351.272,136.302 351.404 C 136.515 351.535,136.689 352.155,136.689 352.782 C 136.689 353.408,136.864 353.921,137.076 353.921 C 137.289 353.921,137.464 354.443,137.464 355.082 C 137.464 355.721,137.638 356.244,137.851 356.244 C 138.064 356.244,138.238 356.682,138.238 357.217 C 138.238 357.753,138.391 358.493,138.578 358.863 C 139.149 359.993,139.787 362.253,139.787 363.145 C 139.787 363.609,139.942 363.988,140.132 363.988 C 140.322 363.988,140.583 364.598,140.713 365.344 C 140.843 366.089,141.055 367.310,141.185 368.058 C 141.315 368.805,141.576 369.512,141.766 369.630 C 141.955 369.747,142.110 370.432,142.110 371.152 C 142.110 371.872,142.285 372.569,142.498 372.701 C 142.711 372.832,142.885 373.529,142.885 374.250 C 142.885 374.970,143.059 375.667,143.272 375.799 C 143.485 375.930,143.659 376.777,143.659 377.680 C 143.659 378.583,143.819 379.488,144.014 379.690 C 144.209 379.893,144.456 381.104,144.562 382.381 C 144.669 383.659,144.878 385.271,145.026 385.963 L 145.296 387.222 203.626 387.164 C 235.707 387.132,261.433 387.031,260.794 386.940 C 260.155 386.849,259.467 386.614,259.264 386.417 C 259.062 386.221,258.419 386.060,257.835 386.060 C 257.251 386.060,256.666 385.886,256.534 385.673 C 256.403 385.460,255.954 385.286,255.538 385.286 C 255.122 385.286,254.435 385.111,254.012 384.898 C 253.589 384.685,252.897 384.337,252.474 384.124 C 252.051 383.911,251.438 383.737,251.113 383.737 C 250.788 383.737,250.219 383.574,249.850 383.375 C 249.480 383.176,248.611 382.785,247.919 382.506 C 247.227 382.227,246.660 381.867,246.660 381.706 C 246.660 381.545,246.312 381.413,245.886 381.413 C 245.460 381.413,245.111 381.239,245.111 381.026 C 245.111 380.813,244.894 380.640,244.627 380.642 C 244.015 380.646,237.605 377.456,237.431 377.061 C 237.360 376.899,237.145 376.767,236.953 376.767 C 236.585 376.767,229.956 372.902,229.622 372.493 C 229.516 372.362,228.296 371.498,226.912 370.571 C 225.528 369.645,224.308 368.786,224.201 368.663 C 224.095 368.540,222.962 367.656,221.684 366.699 C 218.951 364.651,209.063 355.003,207.286 352.649 C 206.608 351.751,205.725 350.665,205.323 350.236 C 202.359 347.071,194.796 334.093,192.408 328.074 C 192.218 327.594,191.905 326.810,191.714 326.331 C 191.522 325.852,191.156 324.850,190.900 324.105 C 190.644 323.359,190.298 322.401,190.131 321.975 C 189.964 321.549,189.613 320.416,189.351 319.458 C 188.204 315.264,188.111 315.198,183.278 315.198 C 181.908 315.198,179.534 315.026,178.003 314.816 C 176.471 314.605,173.824 314.243,172.120 314.010 C 162.521 312.698,146.137 308.395,139.320 305.396 C 138.618 305.088,137.435 304.572,136.689 304.249 C 133.803 303.002,131.415 301.936,130.337 301.415 C 129.719 301.116,128.891 300.871,128.498 300.871 C 128.105 300.871,127.783 300.697,127.783 300.484 C 127.783 300.271,127.435 300.097,127.009 300.097 C 126.583 300.097,126.234 299.923,126.234 299.710 C 126.234 299.497,125.886 299.322,125.460 299.322 C 125.034 299.322,124.685 299.148,124.685 298.935 C 124.685 298.722,124.417 298.548,124.088 298.548 C 123.760 298.548,123.117 298.199,122.660 297.773 C 122.203 297.348,121.600 296.999,121.321 296.999 C 121.042 296.999,120.813 296.825,120.813 296.612 C 120.813 296.399,120.465 296.225,120.039 296.225 C 119.613 296.225,119.264 296.071,119.264 295.883 C 119.264 295.694,118.959 295.433,118.587 295.301 C 118.214 295.170,117.691 294.961,117.425 294.837 C 117.106 294.688,116.941 294.944,116.941 295.589 M131.907 383.440 C 131.782 383.915,131.812 384.436,131.973 384.597 C 132.134 384.758,132.305 384.369,132.354 383.732 C 132.458 382.368,132.227 382.216,131.907 383.440 " stroke="none" fill="#f3d8a8" fill-rule="evenodd"></path><path id="path3" d="M392.256 189.642 C 392.258 293.945,392.372 381.070,392.509 383.253 L 392.757 387.222 396.378 387.222 L 400.000 387.222 400.000 193.611 L 400.000 0.000 396.125 -0.000 L 392.251 -0.000 392.256 189.642 M96.849 73.340 C 95.937 75.996,95.249 78.457,95.320 78.810 C 95.485 79.624,105.373 83.026,105.759 82.402 C 106.831 80.667,109.209 72.263,108.744 71.850 C 108.217 71.382,101.824 69.197,99.690 68.755 L 98.508 68.511 96.849 73.340 M91.046 90.375 C 90.547 91.005,87.512 99.466,87.514 100.224 C 87.516 100.793,96.293 104.356,97.694 104.356 C 97.986 104.356,100.513 98.052,101.624 94.550 C 101.819 93.936,101.505 93.664,99.817 92.992 C 94.599 90.913,91.382 89.953,91.046 90.375 M238.529 285.963 L 238.529 295.837 287.318 295.837 L 336.108 295.837 336.108 285.963 L 336.108 276.089 287.318 276.089 L 238.529 276.089 238.529 285.963 " stroke="none" fill="#fbfbfb" fill-rule="evenodd"></path><path id="path4" d="M69.700 0.148 C 69.700 0.230,70.931 3.846,72.437 8.183 C 73.942 12.521,75.778 17.899,76.517 20.136 C 77.256 22.372,78.020 24.550,78.214 24.976 C 82.320 33.986,81.969 42.299,76.824 57.890 C 73.622 67.592,70.039 77.649,69.375 78.800 C 69.006 79.439,68.462 80.745,68.164 81.704 C 67.867 82.662,67.513 83.621,67.377 83.833 C 67.240 84.046,66.893 85.005,66.605 85.963 C 66.316 86.922,65.936 87.871,65.760 88.074 C 65.584 88.276,65.440 88.722,65.440 89.064 C 65.440 92.217,66.229 92.934,32.396 59.040 C 14.792 41.405,0.264 27.099,0.113 27.250 C -0.038 27.401,14.421 42.107,32.243 59.929 C 53.815 81.501,64.776 92.203,65.034 91.946 C 65.365 91.614,67.135 87.119,68.151 84.027 C 68.326 83.495,69.023 81.578,69.700 79.768 C 70.377 77.957,71.076 76.041,71.254 75.508 C 71.432 74.976,72.297 72.536,73.177 70.087 C 75.121 64.674,78.567 54.487,79.037 52.759 C 81.099 45.195,81.432 43.089,81.411 37.754 C 81.389 32.160,81.697 33.355,76.284 17.812 C 74.986 14.085,73.104 8.555,72.102 5.523 C 70.631 1.068,69.700 -1.014,69.700 0.148 M82.471 0.871 C 83.569 3.501,89.933 22.091,90.615 24.662 C 94.046 37.593,93.246 48.169,87.707 63.117 C 87.194 64.501,85.096 70.339,83.046 76.089 C 80.996 81.839,78.622 88.461,77.770 90.803 C 76.919 93.146,76.077 95.499,75.900 96.031 C 75.722 96.563,75.029 98.480,74.358 100.290 C 73.033 103.866,67.877 119.343,66.554 123.717 C 66.103 125.208,65.601 126.864,65.439 127.396 C 65.276 127.928,64.937 129.148,64.685 130.106 C 64.433 131.065,64.084 132.372,63.910 133.011 C 63.488 134.559,62.500 138.820,61.599 142.982 C 60.724 147.021,60.112 151.011,59.244 158.338 C 58.358 165.807,59.061 179.912,60.836 190.319 C 61.414 193.703,62.384 198.080,63.584 202.711 C 72.262 236.207,95.543 267.346,125.464 285.476 C 140.939 294.854,160.246 301.032,180.931 303.225 C 186.491 303.815,186.083 304.328,185.331 297.695 C 184.371 289.212,184.663 277.559,186.011 270.600 C 187.248 264.222,187.703 262.123,188.180 260.600 C 188.347 260.068,188.874 258.325,189.351 256.728 C 189.828 255.131,190.355 253.475,190.522 253.049 C 190.690 252.623,191.400 250.794,192.101 248.984 C 197.674 234.589,209.208 218.525,221.248 208.389 C 226.118 204.290,233.738 198.645,234.402 198.645 C 234.498 198.645,235.684 197.978,237.037 197.162 C 239.206 195.855,245.057 192.926,248.984 191.181 C 252.215 189.745,257.803 187.925,263.504 186.453 C 265.421 185.957,266.594 185.536,266.111 185.516 C 262.883 185.382,246.483 191.262,240.018 194.871 C 235.643 197.314,226.515 203.181,225.750 204.041 C 225.644 204.161,224.773 204.864,223.814 205.604 C 220.047 208.510,212.856 215.500,209.463 219.555 C 208.305 220.939,207.262 222.159,207.145 222.265 C 207.028 222.372,206.511 223.069,205.996 223.814 C 205.481 224.560,204.842 225.394,204.576 225.668 C 204.310 225.941,203.788 226.682,203.415 227.313 C 203.042 227.944,202.601 228.461,202.433 228.461 C 202.266 228.461,202.130 228.645,202.130 228.869 C 202.130 229.094,201.433 230.304,200.581 231.559 C 199.729 232.813,199.032 234.009,199.032 234.216 C 199.032 234.423,198.901 234.650,198.742 234.721 C 198.022 235.041,191.288 248.627,191.288 249.759 C 191.288 249.977,191.113 250.502,190.900 250.925 C 190.687 251.348,190.339 252.040,190.126 252.463 C 189.913 252.886,189.739 253.573,189.739 253.989 C 189.739 254.406,189.584 254.841,189.396 254.958 C 189.208 255.074,188.961 255.651,188.848 256.239 C 188.734 256.827,188.260 258.616,187.793 260.213 C 186.959 263.064,186.775 263.865,185.881 268.538 C 184.278 276.910,183.826 290.311,184.869 298.548 C 185.152 300.784,185.313 302.692,185.225 302.788 C 184.995 303.041,181.775 302.825,179.090 302.377 C 177.812 302.164,175.634 301.811,174.250 301.593 C 169.194 300.797,164.918 299.991,162.343 299.347 C 161.438 299.120,160.044 298.772,159.245 298.574 C 155.152 297.555,150.686 296.158,146.176 294.487 C 144.046 293.698,141.912 292.961,141.433 292.851 C 140.954 292.740,140.561 292.495,140.561 292.307 C 140.561 292.119,140.317 291.965,140.017 291.965 C 139.548 291.965,138.315 291.431,135.436 289.981 C 135.066 289.794,134.514 289.642,134.210 289.642 C 133.905 289.642,133.598 289.511,133.527 289.351 C 133.411 289.090,131.375 287.921,129.045 286.777 C 128.567 286.542,128.175 286.220,128.173 286.060 C 128.172 285.900,127.822 285.770,127.396 285.770 C 126.970 285.770,126.621 285.616,126.621 285.428 C 126.621 285.239,126.317 284.989,125.944 284.871 C 125.064 284.592,123.182 283.435,122.209 282.575 C 121.787 282.202,121.228 281.897,120.966 281.897 C 120.704 281.897,120.432 281.757,120.361 281.584 C 120.290 281.412,119.361 280.683,118.296 279.964 C 117.231 279.245,116.273 278.550,116.167 278.419 C 116.060 278.288,115.363 277.760,114.618 277.245 C 113.872 276.730,113.072 276.128,112.840 275.908 C 112.607 275.688,111.836 275.073,111.127 274.540 C 110.417 274.008,109.468 273.224,109.018 272.798 C 108.568 272.372,106.899 270.892,105.310 269.510 C 101.663 266.337,101.452 266.135,101.452 265.806 C 101.452 265.658,100.158 264.208,98.576 262.584 C 96.994 260.961,95.120 258.960,94.413 258.139 C 93.706 257.317,92.601 256.098,91.959 255.428 C 91.316 254.759,90.362 253.601,89.837 252.856 C 89.313 252.110,88.488 251.101,88.005 250.612 C 87.521 250.123,87.125 249.569,87.125 249.381 C 87.125 249.193,86.894 248.808,86.613 248.527 C 86.331 248.245,84.937 246.272,83.515 244.143 C 82.092 242.013,80.798 240.088,80.638 239.864 C 80.356 239.467,79.879 238.651,78.896 236.883 C 78.630 236.404,78.325 235.924,78.219 235.818 C 77.562 235.161,71.636 223.435,71.636 222.793 C 71.636 222.503,71.462 222.265,71.249 222.265 C 71.036 222.265,70.862 222.002,70.862 221.679 C 70.862 221.357,70.708 220.791,70.520 220.421 C 70.167 219.728,69.496 218.155,68.828 216.457 C 68.619 215.924,68.294 215.186,68.106 214.816 C 67.918 214.447,67.764 213.804,67.764 213.387 C 67.764 212.971,67.590 212.523,67.377 212.391 C 67.164 212.259,66.989 211.737,66.989 211.229 C 66.989 210.722,66.815 210.199,66.602 210.068 C 66.389 209.936,66.215 209.413,66.215 208.906 C 66.215 208.399,66.041 207.876,65.828 207.744 C 65.615 207.613,65.440 206.993,65.440 206.366 C 65.440 205.740,65.266 205.227,65.053 205.227 C 64.840 205.227,64.666 204.715,64.666 204.089 C 64.666 203.462,64.492 202.842,64.279 202.711 C 64.066 202.579,63.892 201.882,63.892 201.162 C 63.892 200.441,63.717 199.744,63.504 199.613 C 63.291 199.481,63.117 198.697,63.117 197.870 C 63.117 197.044,62.943 196.259,62.730 196.128 C 62.517 195.996,62.343 195.115,62.343 194.169 C 62.343 193.223,62.168 192.449,61.955 192.449 C 61.742 192.449,61.568 191.501,61.568 190.342 C 61.568 189.184,61.394 188.128,61.181 187.996 C 60.968 187.865,60.794 186.582,60.794 185.147 C 60.794 183.711,60.632 182.371,60.434 182.168 C 59.420 181.133,59.416 155.351,60.430 154.327 C 60.630 154.125,60.794 152.872,60.794 151.543 C 60.794 150.214,60.968 149.018,61.181 148.887 C 61.394 148.755,61.568 147.884,61.568 146.951 C 61.568 146.017,61.742 145.146,61.955 145.015 C 62.168 144.883,62.343 144.012,62.343 143.078 C 62.343 142.145,62.517 141.274,62.730 141.142 C 62.943 141.011,63.117 140.227,63.117 139.400 C 63.117 138.573,63.291 137.789,63.504 137.657 C 63.717 137.526,63.892 136.829,63.892 136.108 C 63.892 135.388,64.047 134.703,64.236 134.586 C 64.561 134.385,64.680 133.908,65.278 130.397 C 65.414 129.598,65.680 128.945,65.870 128.945 C 66.060 128.945,66.215 128.345,66.215 127.612 C 66.215 126.880,66.389 126.172,66.602 126.041 C 66.815 125.909,66.989 125.289,66.989 124.663 C 66.989 124.036,67.164 123.524,67.377 123.524 C 67.590 123.524,67.764 123.011,67.764 122.385 C 67.764 121.759,67.938 121.138,68.151 121.007 C 68.364 120.875,68.538 120.352,68.538 119.845 C 68.538 119.338,68.712 118.815,68.925 118.683 C 69.138 118.552,69.313 118.029,69.313 117.522 C 69.313 117.014,69.487 116.492,69.700 116.360 C 69.913 116.228,70.087 115.706,70.087 115.198 C 70.087 114.691,70.261 114.168,70.474 114.037 C 70.687 113.905,70.862 113.382,70.862 112.875 C 70.862 112.368,71.036 111.845,71.249 111.713 C 71.462 111.582,71.636 111.059,71.636 110.552 C 71.636 110.044,71.810 109.522,72.023 109.390 C 72.236 109.259,72.410 108.736,72.410 108.228 C 72.410 107.721,72.550 107.220,72.721 107.114 C 72.892 107.009,73.275 106.029,73.572 104.937 C 73.869 103.845,74.252 102.866,74.423 102.760 C 74.594 102.654,74.734 102.153,74.734 101.646 C 74.734 101.138,74.908 100.616,75.121 100.484 C 75.334 100.352,75.508 99.819,75.508 99.300 C 75.508 98.780,75.682 98.354,75.895 98.354 C 76.108 98.354,76.283 97.929,76.283 97.409 C 76.283 96.889,76.422 96.378,76.593 96.272 C 76.764 96.166,77.147 95.187,77.444 94.095 C 77.742 93.003,78.125 92.023,78.295 91.918 C 78.466 91.812,78.606 91.385,78.606 90.969 C 78.606 90.553,78.760 89.910,78.948 89.540 C 79.408 88.635,79.979 87.215,80.542 85.576 C 80.798 84.831,81.147 83.872,81.317 83.446 C 81.487 83.020,81.835 82.062,82.091 81.317 C 82.347 80.571,82.707 79.613,82.890 79.187 C 83.614 77.508,88.011 64.409,88.187 63.408 C 88.290 62.822,88.529 62.343,88.718 62.343 C 88.907 62.343,89.061 61.917,89.061 61.397 C 89.061 60.878,89.235 60.345,89.448 60.213 C 89.661 60.081,89.835 59.461,89.835 58.835 C 89.835 58.208,90.010 57.696,90.223 57.696 C 90.436 57.696,90.610 57.184,90.610 56.557 C 90.610 55.931,90.784 55.311,90.997 55.179 C 91.210 55.047,91.384 54.340,91.384 53.607 C 91.384 52.875,91.559 52.275,91.772 52.275 C 91.985 52.275,92.159 51.501,92.159 50.555 C 92.159 49.609,92.333 48.728,92.546 48.596 C 92.759 48.465,92.933 47.158,92.933 45.692 C 92.933 44.226,93.107 42.920,93.320 42.788 C 93.533 42.656,93.708 41.001,93.708 39.109 C 93.708 37.218,93.533 35.562,93.320 35.431 C 93.107 35.299,92.933 33.982,92.933 32.504 C 92.933 30.970,92.767 29.816,92.546 29.816 C 92.333 29.816,92.159 29.129,92.159 28.290 C 92.159 27.451,91.985 26.656,91.772 26.525 C 91.559 26.393,91.384 25.686,91.384 24.953 C 91.384 24.220,91.210 23.621,90.997 23.621 C 90.784 23.621,90.610 23.183,90.610 22.647 C 90.610 22.112,90.453 21.371,90.261 21.002 C 90.069 20.632,89.295 18.412,88.542 16.070 C 85.377 6.226,83.076 -0.000,82.603 -0.000 C 82.240 -0.000,82.205 0.232,82.471 0.871 M3.280 47.435 C 5.091 49.245,6.701 50.726,6.859 50.726 C 7.017 50.726,5.673 49.245,3.872 47.435 C 2.071 45.624,0.461 44.143,0.293 44.143 C 0.126 44.143,1.470 45.624,3.280 47.435 M7.721 51.867 C 8.199 52.282,8.478 52.803,8.341 53.024 C 8.185 53.276,8.343 53.331,8.760 53.171 C 9.254 52.982,9.368 53.069,9.200 53.508 C 8.932 54.207,15.157 60.609,15.638 60.128 C 15.805 59.962,15.883 60.087,15.812 60.407 C 15.741 60.726,15.900 60.944,16.167 60.891 C 16.433 60.837,16.607 61.012,16.554 61.278 C 16.500 61.544,16.718 61.704,17.038 61.633 C 17.357 61.562,17.484 61.638,17.319 61.803 C 17.019 62.104,20.031 65.440,20.603 65.440 C 20.772 65.440,20.907 65.136,20.904 64.763 C 20.899 64.184,20.844 64.170,20.523 64.666 C 20.225 65.127,20.145 65.047,20.136 64.279 C 20.126 63.511,20.046 63.431,19.748 63.892 C 19.450 64.352,19.370 64.272,19.361 63.504 C 19.352 62.736,19.272 62.656,18.974 63.117 C 18.676 63.578,18.596 63.498,18.587 62.730 C 18.577 61.962,18.497 61.882,18.199 62.343 C 17.881 62.836,17.823 62.819,17.818 62.228 C 17.810 61.330,16.115 59.634,15.216 59.626 C 14.626 59.621,14.608 59.564,15.102 59.245 C 15.562 58.947,15.482 58.867,14.714 58.858 C 13.946 58.848,13.866 58.768,14.327 58.470 C 14.788 58.173,14.708 58.093,13.940 58.083 C 13.172 58.074,13.092 57.994,13.553 57.696 C 14.014 57.398,13.934 57.318,13.166 57.309 C 12.397 57.299,12.317 57.219,12.778 56.922 C 13.239 56.624,13.159 56.544,12.391 56.534 C 11.623 56.525,11.543 56.445,12.004 56.147 C 12.467 55.848,12.388 55.764,11.617 55.735 C 11.084 55.715,10.874 55.608,11.149 55.498 C 11.883 55.204,10.968 54.219,9.924 54.180 C 9.446 54.163,9.317 54.063,9.618 53.943 C 10.166 53.725,7.955 51.113,7.222 51.113 C 7.018 51.113,7.243 51.453,7.721 51.867 M21.227 65.490 C 20.978 66.103,21.523 66.989,22.149 66.989 C 22.319 66.989,22.456 66.684,22.453 66.312 C 22.448 65.763,22.381 65.738,22.101 66.181 C 21.835 66.601,21.723 66.512,21.619 65.794 C 21.513 65.064,21.428 64.998,21.227 65.490 M22.714 67.163 C 22.562 67.558,22.684 67.653,23.127 67.483 C 23.591 67.305,23.692 67.406,23.514 67.870 C 23.336 68.335,23.436 68.436,23.901 68.258 C 24.366 68.079,24.467 68.180,24.288 68.645 C 24.110 69.110,24.211 69.210,24.676 69.032 C 25.151 68.850,25.242 68.953,25.047 69.459 C 24.900 69.844,24.948 70.030,25.161 69.899 C 25.645 69.600,43.082 87.037,42.783 87.520 C 42.651 87.734,42.837 87.782,43.222 87.634 C 43.728 87.440,43.832 87.530,43.649 88.006 C 43.475 88.462,43.573 88.571,44.008 88.404 C 44.463 88.230,23.611 66.602,22.987 66.602 C 22.955 66.602,22.832 66.855,22.714 67.163 M324.298 78.937 C 322.594 79.751,320.531 80.733,319.713 81.121 C 317.662 82.093,317.637 82.387,319.273 86.245 C 320.065 88.113,320.934 90.165,321.205 90.803 C 324.385 98.317,328.457 112.358,330.246 121.975 C 331.409 128.227,331.726 130.396,332.594 138.045 C 333.923 149.757,333.926 167.472,332.601 176.024 C 331.856 180.832,331.720 180.578,336.205 182.725 C 345.209 187.035,344.720 186.937,345.109 184.511 C 347.271 171.039,346.546 144.921,343.497 126.428 C 343.286 125.150,342.963 123.192,342.779 122.077 C 342.595 120.962,342.326 119.931,342.180 119.786 C 341.800 119.406,341.848 119.971,342.484 123.384 C 343.119 126.788,344.309 135.364,345.084 142.110 C 346.136 151.269,345.550 185.866,344.344 185.866 C 344.125 185.866,342.668 185.205,336.933 182.504 L 332.530 180.430 332.795 179.179 C 333.273 176.926,333.797 169.175,334.043 160.708 C 334.617 140.965,331.407 119.092,325.205 100.484 C 323.445 95.203,321.768 90.633,320.801 88.480 C 319.038 84.557,318.195 82.452,318.340 82.339 C 318.797 81.986,327.846 77.832,328.158 77.832 C 328.786 77.832,332.349 86.591,335.561 96.031 C 336.902 99.971,338.009 102.946,338.022 102.641 C 338.034 102.337,337.870 101.553,337.656 100.899 C 337.442 100.245,336.658 97.833,335.913 95.540 C 334.533 91.292,330.424 80.718,329.333 78.608 C 328.561 77.114,328.046 77.148,324.298 78.937 M45.849 90.670 C 45.678 90.947,45.743 91.012,46.020 90.840 C 46.283 90.678,46.467 90.807,46.467 91.156 C 46.467 91.518,46.688 91.662,47.037 91.528 C 47.527 91.340,47.531 91.232,47.065 90.766 C 46.405 90.106,46.207 90.090,45.849 90.670 M47.398 92.219 C 47.226 92.496,47.291 92.561,47.568 92.389 C 47.832 92.227,48.015 92.356,48.015 92.705 C 48.015 93.067,48.237 93.211,48.586 93.077 C 49.076 92.889,49.080 92.781,48.614 92.315 C 47.954 91.655,47.756 91.639,47.398 92.219 M50.339 95.279 C 50.339 95.505,50.513 95.582,50.726 95.450 C 50.939 95.319,51.113 95.512,51.113 95.879 C 51.113 96.247,51.228 96.432,51.369 96.291 C 51.510 96.151,51.829 96.427,52.078 96.905 C 52.328 97.382,52.735 97.730,52.984 97.677 C 53.233 97.623,53.393 97.783,53.340 98.032 C 53.287 98.281,53.634 98.689,54.112 98.938 C 54.590 99.187,54.866 99.507,54.725 99.647 C 54.584 99.788,54.770 99.903,55.137 99.903 C 55.505 99.903,55.698 100.077,55.566 100.290 C 55.435 100.503,55.609 100.678,55.954 100.678 C 56.298 100.678,56.472 100.852,56.341 101.065 C 56.209 101.278,56.383 101.452,56.728 101.452 C 57.073 101.452,57.247 101.626,57.115 101.839 C 56.984 102.052,57.158 102.227,57.502 102.227 C 57.891 102.227,58.025 102.410,57.856 102.711 C 57.647 103.080,57.697 103.089,58.068 102.747 C 58.447 102.396,57.746 101.492,54.838 98.584 C 51.314 95.060,50.339 94.344,50.339 95.279 M58.721 103.186 C 58.579 103.555,58.716 103.775,59.086 103.775 C 59.412 103.775,59.570 103.950,59.439 104.163 C 59.307 104.376,59.456 104.550,59.771 104.550 C 60.085 104.550,60.430 104.768,60.537 105.034 C 60.645 105.300,60.746 105.344,60.763 105.131 C 60.825 104.326,58.964 102.554,58.721 103.186 M338.076 103.775 C 338.064 104.095,338.385 105.402,338.789 106.680 C 339.193 107.957,339.539 108.667,339.558 108.256 C 339.592 107.546,339.084 105.655,338.408 103.969 C 338.208 103.470,338.089 103.401,338.076 103.775 M58.426 109.100 C 58.401 109.259,58.341 109.564,58.291 109.777 C 58.242 109.990,58.175 110.480,58.142 110.865 C 58.110 111.250,57.911 111.459,57.700 111.329 C 57.476 111.190,57.419 111.358,57.565 111.736 C 57.889 112.581,58.436 111.696,58.654 109.973 C 58.777 109.004,58.565 108.194,58.426 109.100 M339.615 109.616 C 339.626 109.918,340.147 112.256,340.773 114.811 C 341.799 119.005,342.138 118.847,341.189 114.618 C 340.973 113.659,340.636 112.128,340.438 111.214 C 340.080 109.557,339.574 108.576,339.615 109.616 M54.265 120.039 C 54.265 121.513,54.848 122.187,55.135 121.044 C 55.287 120.441,55.315 119.852,55.198 119.735 C 55.081 119.618,54.973 119.856,54.958 120.265 C 54.932 120.974,54.916 120.972,54.598 120.232 C 54.388 119.744,54.265 119.673,54.265 120.039 M54.211 123.095 C 54.211 123.356,54.053 123.472,53.860 123.352 C 53.667 123.233,53.608 123.515,53.729 123.979 L 53.950 124.822 54.282 123.923 C 54.465 123.429,54.524 122.933,54.413 122.822 C 54.302 122.711,54.211 122.834,54.211 123.095 M52.152 128.035 C 52.007 128.180,51.890 128.488,51.894 128.719 C 51.897 128.950,52.082 128.877,52.304 128.558 C 52.606 128.124,52.655 128.321,52.497 129.332 C 52.288 130.661,52.292 130.666,52.710 129.589 C 53.123 128.524,52.737 127.450,52.152 128.035 M51.378 131.133 C 51.232 131.278,51.126 131.673,51.140 132.010 C 51.161 132.470,51.259 132.429,51.532 131.849 C 51.806 131.266,51.853 131.458,51.720 132.623 L 51.544 134.172 51.970 132.897 C 52.383 131.664,51.996 130.514,51.378 131.133 M50.603 135.005 C 50.458 135.150,50.341 135.458,50.345 135.689 C 50.348 135.920,50.533 135.847,50.755 135.528 C 51.058 135.094,51.106 135.291,50.948 136.302 C 50.739 137.631,50.743 137.636,51.161 136.559 C 51.574 135.494,51.189 134.420,50.603 135.005 M50.194 140.223 C 49.871 141.837,50.184 142.150,50.532 140.561 C 50.679 139.892,50.719 139.264,50.620 139.165 C 50.522 139.066,50.330 139.542,50.194 140.223 M49.392 145.036 C 49.246 145.813,49.205 146.526,49.299 146.621 C 49.394 146.716,49.591 146.157,49.736 145.380 C 49.882 144.603,49.924 143.890,49.829 143.795 C 49.735 143.701,49.538 144.259,49.392 145.036 M192.062 149.836 C 191.509 150.002,193.084 150.122,195.741 150.115 C 207.845 150.085,216.919 155.464,221.624 165.458 C 222.834 168.029,223.277 169.451,224.179 173.669 L 224.511 175.218 224.550 173.801 C 224.720 167.612,218.139 157.439,211.373 153.432 C 206.169 150.350,196.402 148.531,192.062 149.836 M48.596 151.404 C 48.448 152.284,48.407 153.086,48.506 153.185 C 48.606 153.285,48.803 152.640,48.945 151.752 C 49.087 150.865,49.127 150.063,49.035 149.971 C 48.942 149.878,48.745 150.523,48.596 151.404 M186.641 151.168 C 178.464 154.027,171.925 160.673,169.646 168.441 C 169.365 169.400,168.979 170.584,168.788 171.073 C 168.598 171.563,168.468 172.695,168.499 173.590 C 168.546 174.886,168.590 174.981,168.718 174.056 C 170.189 163.417,177.833 154.164,187.415 151.421 C 188.374 151.147,189.593 150.783,190.126 150.613 L 191.094 150.303 190.126 150.295 C 189.593 150.291,188.025 150.683,186.641 151.168 M47.820 161.499 C 47.537 165.825,47.674 179.747,47.996 179.430 C 48.145 179.283,48.303 157.212,48.155 157.212 C 48.125 157.212,47.974 159.141,47.820 161.499 M193.792 161.656 C 181.037 163.604,175.496 179.641,184.123 189.645 C 187.871 193.991,196.109 196.116,201.682 194.176 C 221.170 187.388,214.173 158.544,193.792 161.656 M168.187 178.316 C 168.188 180.019,168.256 180.668,168.338 179.757 C 168.420 178.847,168.419 177.453,168.336 176.660 C 168.252 175.867,168.186 176.612,168.187 178.316 M224.709 178.316 C 224.711 179.593,224.783 180.069,224.869 179.374 C 224.955 178.678,224.954 177.632,224.865 177.050 C 224.777 176.468,224.706 177.038,224.709 178.316 M168.469 183.041 C 168.454 183.936,168.598 185.069,168.788 185.558 C 168.979 186.047,169.365 187.231,169.646 188.190 C 171.789 195.496,178.250 202.221,185.963 205.174 C 188.096 205.990,189.683 206.388,190.734 206.368 C 191.469 206.354,190.914 206.094,189.158 205.629 C 178.627 202.840,171.437 195.305,169.193 184.705 C 168.615 181.974,168.491 181.691,168.469 183.041 M224.076 183.349 C 222.287 194.353,214.650 202.774,203.872 205.629 C 201.889 206.154,201.494 206.352,202.402 206.368 C 203.084 206.380,204.042 206.230,204.532 206.036 C 205.021 205.842,206.467 205.287,207.744 204.803 C 216.381 201.532,225.130 190.035,224.508 182.775 C 224.398 181.499,224.371 181.535,224.076 183.349 M48.493 183.737 C 48.494 184.376,48.627 185.421,48.790 186.060 C 49.200 187.670,49.218 186.085,48.812 184.124 C 48.543 182.822,48.492 182.760,48.493 183.737 M278.240 183.492 C 277.613 183.627,282.372 183.737,288.814 183.737 C 295.257 183.737,300.127 183.623,299.635 183.485 C 298.489 183.162,279.750 183.168,278.240 183.492 M271.830 184.318 C 270.425 184.767,272.587 184.784,274.734 184.340 L 276.283 184.019 274.540 184.013 C 273.582 184.010,272.362 184.147,271.830 184.318 M302.614 184.340 C 304.778 184.787,306.772 184.773,305.712 184.318 C 305.286 184.134,304.066 183.993,303.001 184.002 L 301.065 184.019 302.614 184.340 M267.570 185.092 C 266.840 185.564,268.420 185.564,269.894 185.092 C 270.781 184.808,270.748 184.779,269.506 184.749 C 268.761 184.731,267.890 184.886,267.570 185.092 M307.648 185.092 C 309.463 185.554,310.492 185.554,309.777 185.092 C 309.458 184.886,308.587 184.735,307.841 184.756 L 306.486 184.796 307.648 185.092 M311.133 185.866 C 312.271 186.356,314.020 186.356,313.262 185.866 C 312.943 185.660,312.159 185.501,311.520 185.512 C 310.522 185.531,310.468 185.581,311.133 185.866 M316.109 187.075 C 317.355 187.496,318.574 187.772,318.819 187.688 C 319.300 187.523,315.224 186.236,314.364 186.281 C 314.078 186.296,314.863 186.654,316.109 187.075 M320.039 188.182 C 320.465 188.363,322.730 189.250,325.073 190.155 C 333.127 193.267,345.447 200.278,350.472 204.609 C 351.237 205.269,352.282 206.143,352.795 206.552 C 371.590 221.542,386.577 247.584,390.252 271.636 C 390.479 273.127,390.849 275.499,391.073 276.908 C 391.601 280.226,391.601 295.837,391.073 299.441 C 389.561 309.755,387.582 317.485,384.707 324.298 C 381.902 330.948,382.063 330.794,379.306 329.454 C 377.645 328.647,377.532 328.640,376.818 329.286 C 375.993 330.032,375.475 331.462,376.029 331.462 C 376.222 331.462,376.379 331.188,376.379 330.853 C 376.379 329.371,377.471 328.982,379.209 329.847 C 381.635 331.054,382.139 331.036,382.845 329.719 C 383.935 327.684,384.124 327.226,384.124 326.627 C 384.124 326.304,384.298 326.041,384.511 326.041 C 384.724 326.041,384.898 325.777,384.898 325.455 C 384.898 325.132,385.073 324.522,385.286 324.099 C 385.499 323.676,385.847 322.984,386.060 322.561 C 386.273 322.138,386.447 321.451,386.447 321.035 C 386.447 320.619,386.601 320.183,386.788 320.067 C 386.976 319.951,387.225 319.462,387.342 318.980 C 387.563 318.069,388.142 315.984,388.822 313.650 C 389.196 312.364,389.405 311.462,390.326 307.164 C 392.727 295.964,392.516 276.832,389.880 266.602 C 389.661 265.750,389.336 264.443,389.158 263.698 C 388.614 261.418,387.923 258.898,387.618 258.083 C 387.459 257.657,387.119 256.612,386.863 255.760 C 386.385 254.174,385.846 252.794,385.240 251.603 C 385.052 251.233,384.898 250.683,384.898 250.381 C 384.898 250.078,384.570 249.161,384.170 248.342 C 383.769 247.524,383.051 245.983,382.575 244.918 C 381.239 241.930,379.456 238.482,377.210 234.541 C 371.616 224.725,360.849 212.175,352.383 205.604 C 351.430 204.864,350.123 203.781,349.479 203.196 C 348.834 202.612,348.103 202.132,347.854 202.132 C 347.606 202.131,347.344 201.975,347.273 201.785 C 346.684 200.212,331.397 191.921,324.051 189.190 C 320.844 187.998,317.786 187.230,320.039 188.182 M49.254 189.932 C 49.254 190.358,49.394 191.142,49.564 191.675 C 49.810 192.441,49.874 192.482,49.874 191.868 C 49.874 191.442,49.735 190.658,49.564 190.126 C 49.319 189.359,49.254 189.319,49.254 189.932 M50.017 194.773 C 50.037 195.779,50.647 197.431,50.660 196.515 C 50.666 196.089,50.522 195.392,50.339 194.966 C 50.135 194.492,50.010 194.417,50.017 194.773 M50.780 198.645 C 50.780 198.964,50.930 199.574,51.113 200.000 C 51.323 200.488,51.446 200.560,51.446 200.194 C 51.446 199.874,51.296 199.264,51.113 198.838 C 50.903 198.350,50.780 198.279,50.780 198.645 M192.643 206.800 C 193.069 206.970,194.811 207.109,196.515 207.109 C 198.219 207.109,199.961 206.970,200.387 206.800 C 200.838 206.620,199.219 206.491,196.515 206.491 C 193.811 206.491,192.192 206.620,192.643 206.800 M56.773 220.546 C 56.632 220.914,56.607 221.306,56.719 221.417 C 56.830 221.529,56.924 221.373,56.928 221.071 C 56.932 220.620,57.000 220.625,57.309 221.104 C 57.515 221.423,57.684 221.510,57.684 221.297 C 57.684 220.393,57.036 219.858,56.773 220.546 M58.322 224.418 C 58.180 224.786,58.156 225.178,58.268 225.289 C 58.379 225.401,58.473 225.245,58.476 224.944 C 58.481 224.492,58.549 224.498,58.858 224.976 C 59.064 225.295,59.233 225.382,59.233 225.169 C 59.233 224.265,58.585 223.731,58.322 224.418 M60.697 229.461 C 60.558 229.600,60.681 229.952,60.971 230.243 C 61.262 230.533,61.416 231.166,61.314 231.649 C 61.151 232.415,61.182 232.441,61.557 231.855 C 62.012 231.146,61.219 228.939,60.697 229.461 M64.408 237.173 C 64.408 237.493,64.533 237.754,64.685 237.754 C 64.838 237.754,65.063 238.139,65.186 238.608 C 65.309 239.078,65.517 239.356,65.647 239.225 C 65.858 239.015,64.827 236.592,64.527 236.592 C 64.461 236.592,64.408 236.854,64.408 237.173 M69.383 246.079 C 69.824 247.046,70.474 247.393,70.474 246.660 C 70.474 246.447,70.300 246.273,70.087 246.273 C 69.874 246.273,69.700 246.012,69.700 245.692 C 69.700 245.373,69.529 245.111,69.321 245.111 C 69.090 245.111,69.115 245.490,69.383 246.079 M70.069 247.454 C 69.597 247.752,69.612 247.811,70.158 247.816 C 70.516 247.819,70.920 248.170,71.055 248.596 C 71.190 249.022,71.493 249.371,71.727 249.371 C 71.961 249.371,72.044 249.479,71.913 249.610 C 71.781 249.742,71.882 250.085,72.138 250.371 C 73.235 251.599,73.590 252.081,73.398 252.081 C 73.285 252.081,73.491 252.430,73.856 252.856 C 74.927 254.107,75.253 253.743,74.289 252.372 C 73.802 251.680,73.192 250.894,72.933 250.627 C 72.673 250.359,72.351 249.793,72.216 249.368 C 72.081 248.944,71.809 248.596,71.610 248.596 C 71.411 248.596,71.249 248.345,71.249 248.038 C 71.249 247.276,70.745 247.026,70.069 247.454 M78.502 259.051 C 78.867 259.477,79.302 259.826,79.470 259.826 C 79.637 259.826,79.557 259.477,79.291 259.051 C 79.025 258.625,78.589 258.277,78.323 258.277 C 77.996 258.277,78.054 258.527,78.502 259.051 M80.872 261.410 C 81.113 261.749,81.253 262.098,81.184 262.185 C 81.115 262.272,81.726 262.996,82.543 263.795 C 84.602 265.810,84.378 265.080,82.215 262.730 C 81.235 261.665,80.631 261.071,80.872 261.410 M86.215 267.753 C 86.509 268.543,88.679 270.855,88.666 270.364 C 88.662 270.212,88.045 269.390,87.295 268.538 C 86.544 267.686,86.058 267.333,86.215 267.753 M238.141 274.734 C 238.141 275.649,238.025 275.702,236.012 275.702 L 233.882 275.702 233.882 285.963 L 233.882 296.225 236.012 296.225 C 238.025 296.225,238.141 296.277,238.141 297.193 L 238.141 298.161 287.318 298.161 L 336.496 298.161 336.496 297.193 C 336.496 296.344,336.663 296.225,337.851 296.225 L 339.206 296.225 339.206 286.181 L 339.206 276.138 337.948 276.017 C 336.899 275.916,336.669 275.718,336.567 274.831 L 336.444 273.766 287.293 273.766 L 238.141 273.766 238.141 274.734 M336.247 275.605 C 336.559 277.493,336.559 294.433,336.247 296.321 L 336.007 297.773 287.318 297.773 L 238.630 297.773 238.390 296.321 C 238.258 295.523,238.150 290.862,238.150 285.963 C 238.150 281.065,238.258 276.404,238.390 275.605 L 238.630 274.153 287.318 274.153 L 336.007 274.153 336.247 275.605 M96.031 277.952 C 96.031 278.122,96.663 278.861,97.435 279.595 C 98.282 280.400,98.680 280.622,98.439 280.155 C 97.981 279.270,96.031 277.485,96.031 277.952 M115.779 293.830 C 115.779 295.049,120.263 308.092,129.580 333.979 C 130.913 337.682,137.620 357.960,138.226 360.116 C 138.495 361.075,138.866 362.294,139.050 362.827 C 139.729 364.789,142.177 374.419,142.839 377.735 C 143.095 379.013,143.471 380.801,143.675 381.709 C 143.879 382.618,144.046 384.229,144.046 385.291 C 144.046 386.809,144.180 387.222,144.671 387.222 C 145.173 387.222,145.243 386.975,145.026 385.963 C 144.878 385.271,144.669 383.659,144.562 382.381 C 144.456 381.104,144.209 379.893,144.014 379.690 C 143.819 379.488,143.659 378.583,143.659 377.680 C 143.659 376.777,143.485 375.930,143.272 375.799 C 143.059 375.667,142.885 374.970,142.885 374.250 C 142.885 373.529,142.711 372.832,142.498 372.701 C 142.285 372.569,142.110 371.872,142.110 371.152 C 142.110 370.432,141.955 369.747,141.766 369.630 C 141.576 369.512,141.310 368.762,141.174 367.961 C 140.572 364.425,140.458 363.988,140.132 363.988 C 139.942 363.988,139.787 363.609,139.787 363.145 C 139.787 362.253,139.149 359.993,138.578 358.863 C 138.391 358.493,138.238 357.753,138.238 357.217 C 138.238 356.682,138.064 356.244,137.851 356.244 C 137.638 356.244,137.464 355.721,137.464 355.082 C 137.464 354.443,137.289 353.921,137.076 353.921 C 136.864 353.921,136.689 353.408,136.689 352.782 C 136.689 352.155,136.515 351.535,136.302 351.404 C 136.089 351.272,135.915 350.749,135.915 350.242 C 135.915 349.735,135.741 349.212,135.528 349.080 C 135.315 348.949,135.140 348.426,135.140 347.919 C 135.140 347.411,134.966 346.889,134.753 346.757 C 134.540 346.625,134.366 346.103,134.366 345.595 C 134.366 345.088,134.192 344.565,133.979 344.434 C 133.766 344.302,133.591 343.779,133.591 343.272 C 133.591 342.765,133.417 342.242,133.204 342.110 C 132.991 341.979,132.817 341.446,132.817 340.926 C 132.817 340.406,132.643 339.981,132.430 339.981 C 132.217 339.981,132.043 339.555,132.043 339.035 C 132.043 338.516,131.868 337.983,131.655 337.851 C 131.442 337.719,131.268 337.186,131.268 336.666 C 131.268 336.147,131.094 335.721,130.881 335.721 C 130.668 335.721,130.494 335.198,130.494 334.560 C 130.494 333.921,130.319 333.398,130.106 333.398 C 129.894 333.398,129.719 332.875,129.719 332.236 C 129.719 331.597,129.545 331.075,129.332 331.075 C 129.119 331.075,128.945 330.724,128.945 330.295 C 128.945 329.866,128.771 329.169,128.558 328.746 C 128.345 328.323,127.996 327.631,127.783 327.208 C 127.570 326.785,127.396 326.088,127.396 325.659 C 127.396 325.230,127.222 324.879,127.009 324.879 C 126.796 324.879,126.621 324.356,126.621 323.717 C 126.621 323.078,126.447 322.556,126.234 322.556 C 126.021 322.556,125.847 322.033,125.847 321.394 C 125.847 320.755,125.673 320.232,125.460 320.232 C 125.247 320.232,125.073 319.881,125.073 319.453 C 125.073 319.024,124.902 318.370,124.694 318.001 C 124.486 317.631,123.888 316.021,123.366 314.424 C 121.441 308.538,119.226 302.208,118.863 301.554 C 118.658 301.184,118.490 300.541,118.490 300.125 C 118.490 299.709,118.316 299.260,118.103 299.129 C 117.890 298.997,117.715 298.474,117.715 297.967 C 117.715 297.460,117.541 296.937,117.328 296.805 C 116.743 296.444,116.836 294.562,117.425 294.837 C 117.691 294.961,118.214 295.170,118.587 295.301 C 118.959 295.433,119.264 295.694,119.264 295.883 C 119.264 296.071,119.613 296.225,120.039 296.225 C 120.465 296.225,120.813 296.399,120.813 296.612 C 120.813 296.825,121.042 296.999,121.321 296.999 C 121.600 296.999,122.203 297.348,122.660 297.773 C 123.117 298.199,123.760 298.548,124.088 298.548 C 124.417 298.548,124.685 298.722,124.685 298.935 C 124.685 299.148,125.034 299.322,125.460 299.322 C 125.886 299.322,126.234 299.497,126.234 299.710 C 126.234 299.923,126.583 300.097,127.009 300.097 C 127.435 300.097,127.783 300.271,127.783 300.484 C 127.783 300.697,128.105 300.871,128.498 300.871 C 128.891 300.871,129.719 301.116,130.337 301.415 C 131.469 301.962,134.343 303.242,136.496 304.158 C 137.135 304.429,138.318 304.945,139.126 305.304 C 145.987 308.354,162.375 312.678,172.120 314.010 C 173.824 314.243,176.471 314.605,178.003 314.816 C 179.534 315.026,181.974 315.175,183.424 315.147 L 186.060 315.095 182.769 314.772 C 175.635 314.073,168.577 313.102,164.685 312.285 C 161.276 311.569,157.051 310.582,155.470 310.133 C 152.336 309.242,146.088 307.339,145.402 307.066 C 144.976 306.896,144.017 306.548,143.272 306.292 C 141.167 305.570,139.813 305.035,137.076 303.847 C 136.331 303.523,134.948 302.951,134.003 302.574 C 132.195 301.855,124.738 298.109,122.265 296.678 C 121.467 296.216,120.160 295.468,119.361 295.016 C 118.562 294.564,117.565 293.954,117.145 293.661 C 116.122 292.946,115.779 292.988,115.779 293.830 M109.584 313.069 C 109.584 313.388,109.758 313.650,109.971 313.650 C 110.184 313.650,110.358 313.388,110.358 313.069 C 110.358 312.749,110.184 312.488,109.971 312.488 C 109.758 312.488,109.584 312.749,109.584 313.069 M110.358 315.392 C 110.358 315.712,110.532 315.973,110.745 315.973 C 110.958 315.973,111.133 315.712,111.133 315.392 C 111.133 315.073,110.958 314.811,110.745 314.811 C 110.532 314.811,110.358 315.073,110.358 315.392 M187.281 315.467 C 188.131 315.633,188.499 316.342,189.351 319.458 C 189.613 320.416,189.964 321.549,190.131 321.975 C 190.298 322.401,190.644 323.359,190.900 324.105 C 193.114 330.552,197.082 338.262,201.821 345.325 C 203.345 347.597,204.921 349.807,205.323 350.236 C 205.725 350.665,206.608 351.751,207.286 352.649 C 209.063 355.003,218.951 364.651,221.684 366.699 C 222.962 367.656,224.095 368.540,224.201 368.663 C 224.308 368.786,225.528 369.645,226.912 370.571 C 228.296 371.498,229.516 372.362,229.622 372.493 C 229.956 372.902,236.585 376.767,236.953 376.767 C 237.145 376.767,237.360 376.899,237.431 377.061 C 237.605 377.456,244.015 380.646,244.627 380.642 C 244.894 380.640,245.111 380.813,245.111 381.026 C 245.111 381.239,245.460 381.413,245.886 381.413 C 246.312 381.413,246.660 381.545,246.660 381.706 C 246.660 381.867,247.227 382.227,247.919 382.506 C 248.611 382.785,249.480 383.176,249.850 383.375 C 250.219 383.574,250.788 383.737,251.113 383.737 C 251.438 383.737,252.094 383.938,252.571 384.184 C 254.430 385.146,254.807 385.286,255.538 385.286 C 255.954 385.286,256.403 385.460,256.534 385.673 C 256.666 385.886,257.251 386.060,257.835 386.060 C 258.419 386.060,259.062 386.217,259.264 386.408 C 259.467 386.599,260.591 386.861,261.762 386.989 C 264.299 387.267,263.632 386.892,259.439 385.683 C 256.501 384.836,254.848 384.300,253.437 383.737 C 253.011 383.567,252.052 383.215,251.307 382.956 C 250.006 382.503,249.165 382.161,245.983 380.786 C 244.043 379.949,237.853 376.896,236.399 376.060 C 228.046 371.258,223.008 367.545,214.766 360.116 C 207.147 353.249,197.317 338.848,193.091 328.364 C 192.705 327.406,192.236 326.273,192.049 325.847 C 191.862 325.421,191.156 323.330,190.480 321.200 C 188.516 315.012,188.608 315.192,187.465 315.251 C 186.609 315.296,186.580 315.330,187.281 315.467 M112.787 322.160 C 112.820 322.591,112.983 322.943,113.151 322.943 C 113.579 322.943,113.532 321.874,113.092 321.602 C 112.892 321.478,112.755 321.730,112.787 322.160 M373.090 336.106 C 372.704 336.533,372.514 336.883,372.669 336.883 C 373.077 336.883,374.181 335.717,373.971 335.507 C 373.873 335.409,373.477 335.679,373.090 336.106 M372.003 338.308 C 371.885 338.499,372.641 339.134,373.683 339.719 C 376.471 341.287,376.328 341.830,371.453 348.209 C 369.480 350.791,369.412 350.809,367.473 349.274 C 365.804 347.952,365.537 347.873,365.537 348.705 C 365.537 349.031,365.232 349.404,364.860 349.533 C 363.992 349.832,357.793 355.898,357.793 356.447 C 357.793 356.675,358.490 357.542,359.342 358.374 C 361.396 360.379,361.407 360.344,357.467 363.954 C 350.103 370.699,341.266 376.826,334.076 380.171 C 331.673 381.288,328.756 382.576,327.783 382.949 C 327.357 383.112,326.573 383.432,326.041 383.659 C 325.194 384.021,323.575 384.564,318.850 386.069 C 318.196 386.277,317.378 386.447,317.033 386.447 C 316.688 386.447,316.293 386.630,316.155 386.852 C 315.852 387.344,319.843 386.919,320.407 386.399 C 320.609 386.213,321.165 386.060,321.642 386.060 C 322.119 386.060,322.618 385.886,322.749 385.673 C 322.881 385.460,323.329 385.286,323.745 385.286 C 324.162 385.286,324.805 385.132,325.175 384.944 C 325.544 384.755,326.370 384.387,327.009 384.124 C 327.648 383.861,328.473 383.492,328.843 383.304 C 329.213 383.116,329.779 382.962,330.101 382.962 C 330.424 382.962,330.687 382.788,330.687 382.575 C 330.687 382.362,331.036 382.188,331.462 382.188 C 331.888 382.188,332.236 382.034,332.236 381.846 C 332.236 381.658,332.541 381.407,332.914 381.288 C 333.539 381.089,337.698 378.865,341.285 376.812 C 342.943 375.862,348.582 372.118,348.887 371.764 C 348.993 371.640,349.864 370.932,350.823 370.189 C 353.465 368.142,353.850 367.821,356.158 365.731 C 362.225 360.237,362.133 360.425,359.864 358.120 L 358.064 356.293 361.276 353.171 C 363.043 351.454,364.715 350.048,364.993 350.048 C 365.271 350.048,365.649 349.780,365.833 349.452 C 366.116 348.946,366.390 349.034,367.647 350.033 C 369.471 351.482,369.789 351.488,370.765 350.090 C 377.266 340.772,377.107 341.208,374.540 339.725 C 373.529 339.141,372.592 338.505,372.459 338.312 C 372.317 338.107,372.128 338.105,372.003 338.308 M127.247 364.592 C 127.106 364.960,127.082 365.352,127.193 365.464 C 127.305 365.575,127.399 365.419,127.402 365.118 C 127.407 364.666,127.474 364.672,127.783 365.150 C 127.990 365.470,128.159 365.557,128.159 365.344 C 128.159 364.439,127.511 363.905,127.247 364.592 M128.039 366.870 C 127.874 367.300,127.941 367.421,128.241 367.236 C 128.552 367.044,128.603 367.186,128.407 367.700 C 128.193 368.262,128.233 368.333,128.575 367.995 C 128.877 367.695,128.903 367.330,128.655 366.887 C 128.313 366.276,128.267 366.275,128.039 366.870 M128.813 369.194 C 128.649 369.623,128.716 369.745,129.015 369.560 C 129.326 369.367,129.377 369.510,129.181 370.024 C 128.967 370.586,129.008 370.657,129.349 370.318 C 129.651 370.019,129.678 369.654,129.430 369.211 C 129.088 368.600,129.042 368.598,128.813 369.194 M129.554 371.604 C 129.246 372.407,129.898 373.158,130.316 372.481 C 130.517 372.157,130.455 372.099,130.125 372.302 C 129.765 372.524,129.705 372.387,129.897 371.781 C 130.205 370.813,129.915 370.663,129.554 371.604 M131.897 382.236 C 131.575 383.850,131.887 384.163,132.236 382.575 C 132.383 381.906,132.423 381.277,132.324 381.179 C 132.225 381.080,132.033 381.556,131.897 382.236 " stroke="none" fill="#c28e64" fill-rule="evenodd"></path></g></svg>