<svg id="svg" version="1.1" xmlns="http://www.w3.org/2000/svg" xmlns:xlink="http://www.w3.org/1999/xlink" width="400" height="400" viewBox="0, 0, 400,400"><g id="svgg"><path id="path0" d="M182.900 0.295 C 181.745 0.376,180.800 0.612,180.800 0.821 C 180.800 1.029,180.080 1.200,179.200 1.200 C 178.320 1.200,177.600 1.380,177.600 1.600 C 177.600 1.820,177.071 2.000,176.424 2.000 C 175.777 2.000,175.136 2.180,175.000 2.400 C 174.864 2.620,174.403 2.800,173.976 2.800 C 173.549 2.800,173.200 2.980,173.200 3.200 C 173.200 3.420,172.660 3.600,172.000 3.600 C 171.340 3.600,170.800 3.780,170.800 4.000 C 170.800 4.220,170.440 4.400,170.000 4.400 C 169.560 4.400,169.200 4.580,169.200 4.800 C 169.200 5.020,168.750 5.200,168.200 5.200 C 167.650 5.200,167.200 5.380,167.200 5.600 C 167.200 5.820,166.840 6.000,166.400 6.000 C 165.960 6.000,165.600 6.180,165.600 6.400 C 165.600 6.620,165.330 6.800,165.000 6.800 C 164.670 6.800,164.400 6.980,164.400 7.200 C 164.400 7.420,164.040 7.600,163.600 7.600 C 163.160 7.600,162.800 7.780,162.800 8.000 C 162.800 8.220,162.462 8.400,162.049 8.400 C 161.636 8.400,161.074 8.670,160.800 9.000 C 160.526 9.330,160.094 9.600,159.839 9.600 C 159.585 9.600,159.117 9.960,158.800 10.400 C 158.483 10.840,157.975 11.200,157.672 11.200 C 157.369 11.200,156.617 11.740,156.000 12.400 C 155.383 13.060,154.685 13.600,154.448 13.600 C 153.951 13.600,146.000 21.495,146.000 21.988 C 146.000 22.168,145.498 22.853,144.885 23.509 C 144.271 24.166,143.326 25.354,142.785 26.149 C 142.243 26.944,141.665 27.596,141.500 27.597 C 141.335 27.599,141.200 27.920,141.200 28.312 C 141.200 28.703,140.840 29.283,140.400 29.600 C 139.960 29.917,139.600 30.457,139.600 30.800 C 139.600 31.143,139.240 31.683,138.800 32.000 C 138.360 32.317,138.000 32.897,138.000 33.288 C 138.000 33.680,137.820 34.000,137.600 34.000 C 137.380 34.000,137.200 34.360,137.200 34.800 C 137.200 35.240,137.020 35.600,136.800 35.600 C 136.580 35.600,136.400 35.881,136.400 36.224 C 136.400 36.567,136.220 36.736,136.000 36.600 C 135.780 36.464,135.600 36.723,135.600 37.176 C 135.600 37.629,135.420 38.000,135.200 38.000 C 134.980 38.000,134.800 38.360,134.800 38.800 C 134.800 39.240,134.620 39.600,134.400 39.600 C 134.180 39.600,134.000 39.960,134.000 40.400 C 134.000 40.840,133.820 41.200,133.600 41.200 C 133.380 41.200,133.200 41.661,133.200 42.224 C 133.200 42.787,133.057 43.159,132.883 43.051 C 132.709 42.944,132.537 43.245,132.501 43.722 C 132.465 44.198,132.248 44.651,132.018 44.727 C 131.788 44.804,131.600 45.212,131.600 45.633 C 131.600 46.055,131.420 46.400,131.200 46.400 C 130.980 46.400,130.800 46.940,130.800 47.600 C 130.800 48.260,130.620 48.800,130.400 48.800 C 130.180 48.800,130.000 49.072,130.000 49.405 C 130.000 49.738,129.838 50.323,129.639 50.705 C 129.440 51.087,129.060 52.210,128.793 53.200 C 128.527 54.190,128.163 55.360,127.985 55.800 C 127.651 56.622,127.305 58.093,126.949 60.200 C 126.837 60.860,126.591 61.760,126.402 62.200 C 126.213 62.640,125.944 63.900,125.803 65.000 C 125.663 66.100,125.395 67.990,125.208 69.200 C 125.021 70.410,124.852 72.705,124.834 74.300 C 124.815 75.944,124.627 77.200,124.400 77.200 C 124.144 77.200,124.000 80.667,124.000 86.800 C 124.000 92.933,124.144 96.400,124.400 96.400 C 124.631 96.400,124.806 97.709,124.813 99.500 C 124.825 102.420,125.150 105.281,126.051 110.400 C 126.264 111.610,126.537 113.365,126.659 114.300 C 126.781 115.235,127.042 116.000,127.240 116.000 C 127.438 116.000,127.600 116.799,127.600 117.776 C 127.600 118.753,127.780 119.664,128.000 119.800 C 128.220 119.936,128.400 120.667,128.400 121.424 C 128.400 122.181,128.560 122.800,128.756 122.800 C 128.952 122.800,129.222 123.430,129.356 124.200 C 129.490 124.970,129.710 126.230,129.844 127.000 C 129.978 127.770,130.248 128.400,130.444 128.400 C 130.640 128.400,130.800 129.019,130.800 129.776 C 130.800 130.533,130.980 131.264,131.200 131.400 C 131.420 131.536,131.600 132.177,131.600 132.824 C 131.600 133.471,131.780 134.000,132.000 134.000 C 132.220 134.000,132.400 134.540,132.400 135.200 C 132.400 135.860,132.580 136.400,132.800 136.400 C 133.020 136.400,133.200 136.940,133.200 137.600 C 133.200 138.260,133.380 138.800,133.600 138.800 C 133.820 138.800,134.000 139.239,134.000 139.776 C 134.000 140.313,134.180 140.864,134.400 141.000 C 134.620 141.136,134.800 141.687,134.800 142.224 C 134.800 142.761,134.980 143.200,135.200 143.200 C 135.420 143.200,135.600 143.740,135.600 144.400 C 135.600 145.060,135.780 145.600,136.000 145.600 C 136.220 145.600,136.400 146.140,136.400 146.800 C 136.400 147.460,136.547 148.000,136.728 148.000 C 136.908 148.000,137.300 148.900,137.600 150.000 C 137.900 151.100,138.292 152.000,138.472 152.000 C 138.653 152.000,138.800 152.540,138.800 153.200 C 138.800 153.860,138.980 154.400,139.200 154.400 C 139.420 154.400,139.600 154.760,139.600 155.200 C 139.600 155.640,139.780 156.000,140.000 156.000 C 140.220 156.000,140.400 156.450,140.400 157.000 C 140.400 157.550,140.580 158.000,140.800 158.000 C 141.020 158.000,141.200 158.349,141.200 158.776 C 141.200 159.203,141.366 159.655,141.569 159.781 C 141.772 159.906,142.063 160.592,142.216 161.305 C 142.369 162.017,142.833 163.309,143.247 164.175 C 143.661 165.041,144.000 165.986,144.000 166.275 C 144.000 166.564,144.180 166.800,144.400 166.800 C 144.620 166.800,144.800 167.160,144.800 167.600 C 144.800 168.040,144.980 168.400,145.200 168.400 C 145.420 168.400,145.600 168.760,145.600 169.200 C 145.600 169.640,145.780 170.000,146.000 170.000 C 146.220 170.000,146.400 170.360,146.400 170.800 C 146.400 171.240,146.580 171.600,146.800 171.600 C 147.020 171.600,147.200 171.960,147.200 172.400 C 147.200 172.840,147.346 173.200,147.525 173.200 C 147.704 173.200,148.098 173.830,148.400 174.600 C 148.702 175.370,149.096 176.000,149.275 176.000 C 149.454 176.000,149.600 176.360,149.600 176.800 C 149.600 177.240,149.780 177.600,150.000 177.600 C 150.220 177.600,150.400 177.878,150.400 178.218 C 150.400 179.018,152.182 180.800,152.982 180.800 C 153.322 180.800,153.600 180.980,153.600 181.200 C 153.600 181.426,154.733 181.600,156.200 181.600 C 157.662 181.600,158.800 181.425,158.800 181.201 C 158.800 180.982,159.404 180.127,160.142 179.301 C 163.334 175.732,163.264 175.088,158.650 165.551 C 154.920 157.844,151.433 149.748,149.143 143.481 C 147.662 139.428,144.834 131.053,144.355 129.300 C 144.024 128.087,143.771 127.193,142.828 123.900 C 135.023 96.654,135.155 70.670,143.191 52.200 C 147.209 42.965,147.802 42.359,148.178 47.103 C 148.596 52.372,149.340 57.704,150.451 63.400 C 151.141 66.940,152.343 72.178,152.792 73.600 C 152.965 74.150,153.336 75.410,153.615 76.400 C 155.058 81.510,157.572 88.737,159.321 92.800 C 159.653 93.570,160.409 95.370,161.002 96.800 C 162.304 99.941,167.819 111.191,169.825 114.800 C 170.620 116.230,171.769 118.300,172.378 119.400 C 177.106 127.941,183.936 138.700,185.202 139.601 C 186.455 140.493,190.936 140.751,191.425 139.960 C 191.580 139.709,192.194 139.619,192.849 139.750 C 193.701 139.920,194.000 139.827,194.000 139.390 C 194.000 139.066,194.180 138.800,194.400 138.800 C 194.620 138.800,194.800 138.440,194.800 138.000 C 194.800 137.560,194.980 137.200,195.200 137.200 C 195.426 137.200,195.600 136.067,195.600 134.600 C 195.600 133.133,195.426 132.000,195.200 132.000 C 194.980 132.000,194.800 131.674,194.800 131.275 C 194.800 130.877,194.440 130.164,194.000 129.692 C 193.560 129.220,193.200 128.622,193.200 128.364 C 193.200 128.105,192.880 127.603,192.488 127.247 C 192.097 126.891,191.439 125.835,191.027 124.900 C 190.616 123.965,190.126 123.200,189.939 123.200 C 189.753 123.200,189.600 122.840,189.600 122.400 C 189.600 121.960,189.442 121.600,189.249 121.600 C 189.055 121.600,188.673 121.060,188.400 120.400 C 188.127 119.740,187.745 119.200,187.551 119.200 C 187.358 119.200,187.200 118.840,187.200 118.400 C 187.200 117.960,187.020 117.600,186.800 117.600 C 186.580 117.600,186.400 117.364,186.400 117.075 C 186.400 116.787,186.040 116.164,185.600 115.692 C 185.160 115.220,184.800 114.556,184.800 114.217 C 184.800 113.878,184.654 113.600,184.475 113.600 C 184.296 113.600,183.902 112.970,183.600 112.200 C 183.298 111.430,182.904 110.800,182.725 110.800 C 182.546 110.800,182.400 110.530,182.400 110.200 C 182.400 109.870,182.220 109.600,182.000 109.600 C 181.780 109.600,181.600 109.330,181.600 109.000 C 181.600 108.670,181.420 108.400,181.200 108.400 C 180.980 108.400,180.800 108.040,180.800 107.600 C 180.800 107.160,180.620 106.800,180.400 106.800 C 180.180 106.800,180.000 106.440,180.000 106.000 C 180.000 105.560,179.820 105.200,179.600 105.200 C 179.380 105.200,179.200 104.840,179.200 104.400 C 179.200 103.960,179.020 103.600,178.800 103.600 C 178.580 103.600,178.400 103.240,178.400 102.800 C 178.400 102.360,178.220 102.000,178.000 102.000 C 177.780 102.000,177.600 101.640,177.600 101.200 C 177.600 100.760,177.420 100.400,177.200 100.400 C 176.980 100.400,176.800 100.040,176.800 99.600 C 176.800 99.160,176.620 98.800,176.400 98.800 C 176.180 98.800,176.000 98.440,176.000 98.000 C 176.000 97.560,175.820 97.200,175.600 97.200 C 175.380 97.200,175.200 96.958,175.200 96.661 C 175.200 96.365,174.952 95.600,174.650 94.961 C 174.347 94.323,173.853 93.215,173.552 92.500 C 173.251 91.785,172.908 91.200,172.790 91.200 C 172.671 91.200,172.534 90.705,172.484 90.100 C 172.434 89.495,172.215 88.940,171.997 88.867 C 171.778 88.793,171.600 88.388,171.600 87.967 C 171.600 87.545,171.420 87.200,171.200 87.200 C 170.980 87.200,170.800 86.660,170.800 86.000 C 170.800 85.340,170.620 84.800,170.400 84.800 C 170.180 84.800,170.000 84.451,170.000 84.024 C 170.000 83.597,169.820 83.136,169.600 83.000 C 169.380 82.864,169.200 82.313,169.200 81.776 C 169.200 81.239,169.020 80.800,168.800 80.800 C 168.580 80.800,168.400 80.260,168.400 79.600 C 168.400 78.940,168.220 78.400,168.000 78.400 C 167.780 78.400,167.600 77.961,167.600 77.424 C 167.600 76.887,167.420 76.336,167.200 76.200 C 166.980 76.064,166.800 75.524,166.800 75.000 C 166.800 74.476,166.620 73.936,166.400 73.800 C 166.180 73.664,166.000 72.933,166.000 72.176 C 166.000 71.419,165.820 70.800,165.600 70.800 C 165.380 70.800,165.200 70.080,165.200 69.200 C 165.200 68.320,165.020 67.600,164.800 67.600 C 164.580 67.600,164.400 66.895,164.400 66.033 C 164.400 65.172,164.229 64.407,164.020 64.333 C 163.811 64.260,163.597 63.446,163.543 62.524 C 163.490 61.602,163.301 60.938,163.123 61.047 C 162.945 61.157,162.800 60.247,162.800 59.024 C 162.800 57.801,162.620 56.800,162.400 56.800 C 162.180 56.800,162.000 55.990,162.000 55.000 C 162.000 53.722,161.837 53.200,161.439 53.200 C 159.265 53.200,159.733 27.462,161.950 25.064 C 164.996 21.769,173.420 16.964,179.800 14.883 C 182.051 14.148,183.499 13.812,188.720 12.808 C 191.470 12.279,208.530 12.279,211.280 12.808 C 219.773 14.441,221.998 15.162,228.200 18.295 C 231.443 19.933,236.088 23.053,237.853 24.778 C 240.222 27.094,240.848 52.193,238.559 53.071 C 238.235 53.195,238.000 53.846,238.000 54.619 C 238.000 55.353,237.820 56.064,237.600 56.200 C 237.380 56.336,237.200 57.326,237.200 58.400 C 237.200 59.474,237.020 60.464,236.800 60.600 C 236.580 60.736,236.400 61.647,236.400 62.624 C 236.400 63.601,236.220 64.400,236.000 64.400 C 235.780 64.400,235.600 65.120,235.600 66.000 C 235.600 66.880,235.420 67.600,235.200 67.600 C 234.980 67.600,234.800 68.320,234.800 69.200 C 234.800 70.080,234.620 70.800,234.400 70.800 C 234.180 70.800,234.000 71.329,234.000 71.976 C 234.000 72.623,233.820 73.264,233.600 73.400 C 233.380 73.536,233.200 74.166,233.200 74.800 C 233.200 75.434,233.020 76.064,232.800 76.200 C 232.580 76.336,232.400 76.887,232.400 77.424 C 232.400 77.961,232.220 78.400,232.000 78.400 C 231.780 78.400,231.600 78.940,231.600 79.600 C 231.600 80.260,231.420 80.800,231.200 80.800 C 230.980 80.800,230.800 81.149,230.800 81.576 C 230.800 82.003,230.620 82.464,230.400 82.600 C 230.180 82.736,230.000 83.287,230.000 83.824 C 230.000 84.361,229.820 84.800,229.600 84.800 C 229.380 84.800,229.200 85.340,229.200 86.000 C 229.200 86.660,229.020 87.200,228.800 87.200 C 228.580 87.200,228.400 87.560,228.400 88.000 C 228.400 88.440,228.220 88.800,228.000 88.800 C 227.780 88.800,227.600 89.065,227.600 89.388 C 227.600 89.939,226.043 93.746,225.185 95.295 C 224.973 95.677,224.800 96.262,224.800 96.595 C 224.800 96.928,224.620 97.200,224.400 97.200 C 224.180 97.200,224.000 97.661,224.000 98.224 C 224.000 98.804,223.827 99.140,223.600 99.000 C 223.380 98.864,223.200 99.123,223.200 99.576 C 223.200 100.029,223.020 100.400,222.800 100.400 C 222.580 100.400,222.400 100.760,222.400 101.200 C 222.400 101.640,222.220 102.000,222.000 102.000 C 221.780 102.000,221.600 102.360,221.600 102.800 C 221.600 103.240,221.420 103.600,221.200 103.600 C 220.980 103.600,220.800 103.960,220.800 104.400 C 220.800 104.840,220.620 105.200,220.400 105.200 C 220.180 105.200,220.000 105.560,220.000 106.000 C 220.000 106.440,219.820 106.800,219.600 106.800 C 219.380 106.800,219.200 107.160,219.200 107.600 C 219.200 108.040,219.020 108.400,218.800 108.400 C 218.580 108.400,218.400 108.670,218.400 109.000 C 218.400 109.330,218.220 109.600,218.000 109.600 C 217.780 109.600,217.600 109.870,217.600 110.200 C 217.600 110.530,217.454 110.800,217.275 110.800 C 217.096 110.800,216.702 111.430,216.400 112.200 C 216.098 112.970,215.704 113.600,215.525 113.600 C 215.346 113.600,215.200 113.878,215.200 114.217 C 215.200 114.556,214.840 115.220,214.400 115.692 C 213.960 116.164,213.600 116.787,213.600 117.075 C 213.600 117.364,213.420 117.600,213.200 117.600 C 212.980 117.600,212.800 117.878,212.800 118.217 C 212.800 118.556,212.440 119.220,212.000 119.692 C 211.560 120.164,211.200 120.787,211.200 121.075 C 211.200 121.364,211.020 121.600,210.800 121.600 C 210.580 121.600,210.400 121.883,210.400 122.229 C 210.400 122.574,210.128 123.129,209.796 123.461 C 209.464 123.793,209.295 124.230,209.420 124.432 C 209.545 124.635,209.469 124.800,209.251 124.800 C 209.032 124.800,208.726 125.205,208.570 125.700 C 208.413 126.195,207.951 126.891,207.543 127.247 C 207.134 127.603,206.800 128.148,206.800 128.459 C 206.800 128.769,206.440 129.283,206.000 129.600 C 205.560 129.917,205.200 130.457,205.200 130.800 C 205.200 131.143,204.840 131.683,204.400 132.000 C 203.960 132.317,203.600 132.897,203.600 133.288 C 203.600 133.680,203.450 134.000,203.268 134.000 C 203.085 134.000,202.681 134.495,202.370 135.100 C 202.060 135.705,201.489 136.491,201.103 136.847 C 200.716 137.203,200.400 137.748,200.400 138.059 C 200.400 138.369,200.050 138.876,199.621 139.185 C 199.193 139.493,198.927 139.881,199.029 140.047 C 199.131 140.213,198.762 140.802,198.208 141.356 C 197.653 141.910,197.200 142.552,197.200 142.782 C 197.200 143.012,197.020 143.200,196.800 143.200 C 196.580 143.200,196.400 143.817,196.400 144.572 C 196.400 145.707,175.276 175.050,173.199 176.800 C 173.068 176.910,172.529 177.630,172.000 178.400 C 171.471 179.170,170.937 179.890,170.812 180.000 C 170.688 180.110,169.085 182.225,167.251 184.700 C 165.417 187.175,163.633 189.200,163.287 189.200 C 162.707 189.200,160.012 191.776,159.991 192.350 C 159.986 192.488,159.356 193.295,158.591 194.144 C 157.826 194.993,157.200 195.844,157.200 196.034 C 157.200 196.224,156.390 197.189,155.400 198.179 C 154.410 199.169,153.600 200.163,153.600 200.389 C 153.600 200.615,152.880 201.541,152.000 202.448 C 151.120 203.355,150.400 204.261,150.400 204.462 C 150.400 204.662,149.766 205.461,148.991 206.236 C 148.185 207.042,147.698 207.850,147.855 208.123 C 148.005 208.385,147.990 208.476,147.822 208.324 C 147.529 208.061,145.997 209.684,143.400 213.006 C 142.740 213.851,141.975 214.767,141.700 215.042 C 141.425 215.318,141.200 215.704,141.200 215.901 C 141.200 216.097,140.300 217.222,139.200 218.400 C 138.100 219.578,137.200 220.707,137.200 220.910 C 137.200 221.113,136.660 221.783,136.000 222.400 C 135.340 223.017,134.797 223.854,134.794 224.260 C 134.789 224.884,134.727 224.906,134.400 224.400 C 134.087 223.916,134.011 223.908,134.006 224.359 C 134.003 224.666,133.235 225.760,132.300 226.790 C 129.864 229.475,127.457 232.361,127.049 233.087 C 126.703 233.703,125.475 235.214,124.500 236.225 C 124.225 236.510,124.000 236.946,124.000 237.195 C 124.000 237.444,123.792 237.519,123.538 237.362 C 123.260 237.190,123.185 237.252,123.349 237.518 C 123.502 237.765,122.647 238.936,121.411 240.171 C 120.195 241.388,119.200 242.491,119.200 242.623 C 119.200 242.755,118.480 243.554,117.600 244.400 C 116.720 245.246,116.000 246.131,116.000 246.369 C 116.000 246.606,115.820 246.800,115.600 246.800 C 115.380 246.800,115.200 246.985,115.200 247.211 C 115.200 247.436,114.390 248.431,113.400 249.421 C 112.410 250.411,111.600 251.374,111.600 251.560 C 111.600 251.746,110.880 252.687,110.000 253.649 C 109.120 254.612,108.400 255.635,108.400 255.923 C 108.400 256.212,108.220 256.336,108.000 256.200 C 107.780 256.064,107.600 256.203,107.600 256.508 C 107.600 256.814,106.700 257.973,105.600 259.085 C 104.500 260.197,103.600 261.229,103.600 261.379 C 103.600 261.529,102.700 262.529,101.600 263.600 C 100.500 264.671,99.600 265.722,99.600 265.934 C 99.600 266.146,98.743 267.195,97.695 268.265 C 96.647 269.335,95.346 270.838,94.803 271.605 C 94.261 272.372,93.453 273.403,93.009 273.896 C 92.564 274.388,91.795 275.237,91.300 275.781 C 90.805 276.326,90.400 276.880,90.400 277.012 C 90.400 277.144,89.540 278.095,88.489 279.126 C 87.438 280.157,86.135 281.628,85.594 282.395 C 85.053 283.162,83.753 284.665,82.705 285.735 C 81.657 286.805,80.800 287.857,80.800 288.072 C 80.800 288.287,80.125 289.124,79.300 289.932 C 78.475 290.740,77.084 292.301,76.208 293.401 C 75.332 294.500,73.937 296.061,73.108 296.869 C 72.279 297.676,71.600 298.505,71.600 298.709 C 71.600 298.914,71.060 299.646,70.400 300.337 C 69.740 301.028,69.200 301.864,69.200 302.196 C 69.200 302.528,69.020 302.800,68.800 302.800 C 68.574 302.800,68.400 303.933,68.400 305.400 C 68.400 306.867,68.574 308.000,68.800 308.000 C 69.020 308.000,69.200 308.349,69.200 308.776 C 69.200 309.203,69.380 309.664,69.600 309.800 C 69.820 309.936,70.000 310.487,70.000 311.024 C 70.000 311.561,70.180 312.000,70.400 312.000 C 70.620 312.000,70.800 312.349,70.800 312.776 C 70.800 313.203,70.980 313.664,71.200 313.800 C 71.420 313.936,71.600 314.487,71.600 315.024 C 71.600 315.561,71.780 316.000,72.000 316.000 C 72.220 316.000,72.400 316.450,72.400 317.000 C 72.400 317.550,72.580 318.000,72.800 318.000 C 73.020 318.000,73.200 318.450,73.200 319.000 C 73.200 319.550,73.380 320.000,73.600 320.000 C 73.820 320.000,74.000 320.450,74.000 321.000 C 74.000 321.550,74.146 322.000,74.324 322.000 C 74.503 322.000,74.870 322.865,75.141 323.922 C 75.412 324.979,75.864 326.288,76.146 326.830 C 76.427 327.373,76.909 328.668,77.216 329.709 C 77.523 330.749,77.915 331.600,78.087 331.600 C 78.259 331.600,78.400 331.960,78.400 332.400 C 78.400 332.840,78.541 333.200,78.713 333.200 C 78.885 333.200,79.066 333.695,79.116 334.300 C 79.166 334.905,79.385 335.460,79.603 335.533 C 79.822 335.607,80.000 336.112,80.000 336.657 C 80.000 337.215,80.174 337.539,80.400 337.400 C 80.626 337.260,80.800 337.588,80.800 338.153 C 80.800 338.703,80.980 339.264,81.200 339.400 C 81.420 339.536,81.600 340.087,81.600 340.624 C 81.600 341.161,81.780 341.600,82.000 341.600 C 82.220 341.600,82.400 341.960,82.400 342.400 C 82.400 342.840,82.580 343.200,82.800 343.200 C 83.020 343.200,83.200 343.740,83.200 344.400 C 83.200 345.060,83.380 345.600,83.600 345.600 C 83.820 345.600,84.000 345.960,84.000 346.400 C 84.000 346.840,84.180 347.200,84.400 347.200 C 84.620 347.200,84.800 347.740,84.800 348.400 C 84.800 349.060,84.980 349.600,85.200 349.600 C 85.420 349.600,85.600 349.960,85.600 350.400 C 85.600 350.840,85.780 351.200,86.000 351.200 C 86.220 351.200,86.400 351.740,86.400 352.400 C 86.400 353.060,86.580 353.600,86.800 353.600 C 87.020 353.600,87.200 353.960,87.200 354.400 C 87.200 354.840,87.380 355.200,87.600 355.200 C 87.820 355.200,88.000 355.650,88.000 356.200 C 88.000 356.750,88.180 357.200,88.400 357.200 C 88.620 357.200,88.800 357.560,88.800 358.000 C 88.800 358.440,88.980 358.800,89.200 358.800 C 89.420 358.800,89.600 359.340,89.600 360.000 C 89.600 360.660,89.780 361.200,90.000 361.200 C 90.220 361.200,90.400 361.560,90.400 362.000 C 90.400 362.440,90.580 362.800,90.800 362.800 C 91.020 362.800,91.200 363.329,91.200 363.976 C 91.200 364.623,91.366 365.255,91.569 365.381 C 91.772 365.506,92.063 366.192,92.216 366.905 C 92.369 367.617,92.833 368.909,93.247 369.775 C 93.661 370.641,94.000 371.581,94.000 371.863 C 94.000 372.145,94.360 373.017,94.800 373.800 C 95.240 374.583,95.600 375.579,95.600 376.012 C 95.600 376.445,95.780 376.800,96.000 376.800 C 96.220 376.800,96.400 377.149,96.400 377.576 C 96.400 378.003,96.580 378.464,96.800 378.600 C 97.020 378.736,97.200 379.287,97.200 379.824 C 97.200 380.361,97.380 380.800,97.600 380.800 C 97.820 380.800,98.000 381.160,98.000 381.600 C 98.000 382.040,98.180 382.400,98.400 382.400 C 98.620 382.400,98.800 382.940,98.800 383.600 C 98.800 384.260,98.980 384.800,99.200 384.800 C 99.420 384.800,99.600 385.149,99.600 385.576 C 99.600 386.003,99.780 386.464,100.000 386.600 C 100.220 386.736,100.400 387.287,100.400 387.824 C 100.400 388.361,100.580 388.800,100.800 388.800 C 101.020 388.800,101.200 389.149,101.200 389.576 C 101.200 390.003,101.380 390.464,101.600 390.600 C 101.820 390.736,102.000 391.197,102.000 391.624 C 102.000 392.051,102.180 392.400,102.400 392.400 C 102.620 392.400,102.800 392.940,102.800 393.600 C 102.800 394.260,102.980 394.800,103.200 394.800 C 103.420 394.800,103.600 395.160,103.600 395.600 C 103.600 396.040,103.780 396.400,104.000 396.400 C 104.220 396.400,104.400 396.688,104.400 397.040 C 104.400 397.391,104.976 398.217,105.680 398.875 C 108.260 401.285,116.800 399.927,116.800 397.106 C 116.800 396.815,117.160 396.317,117.600 396.000 C 118.040 395.683,118.400 395.143,118.400 394.800 C 118.400 394.457,118.760 393.917,119.200 393.600 C 119.640 393.283,120.000 392.743,120.000 392.400 C 120.000 392.057,120.360 391.517,120.800 391.200 C 121.240 390.883,121.600 390.471,121.600 390.284 C 121.600 390.097,122.180 389.102,122.888 388.072 C 123.596 387.042,124.093 386.200,123.991 386.200 C 123.890 386.200,124.300 385.553,124.903 384.762 C 125.507 383.971,126.000 383.116,126.000 382.862 C 126.000 382.608,126.180 382.400,126.400 382.400 C 126.620 382.400,126.800 382.164,126.800 381.875 C 126.800 381.587,127.160 380.964,127.600 380.492 C 128.040 380.020,128.400 379.396,128.400 379.105 C 128.400 378.814,128.760 378.317,129.200 378.000 C 129.640 377.683,130.000 377.143,130.000 376.800 C 130.000 376.457,130.360 375.917,130.800 375.600 C 131.240 375.283,131.600 374.793,131.600 374.512 C 131.600 374.230,131.780 374.000,132.000 374.000 C 132.220 374.000,132.400 373.730,132.400 373.400 C 132.400 373.070,132.580 372.800,132.800 372.800 C 133.020 372.800,133.200 372.530,133.200 372.200 C 133.200 371.870,133.380 371.600,133.600 371.600 C 133.820 371.600,134.000 371.364,134.000 371.075 C 134.000 370.787,134.360 370.164,134.800 369.692 C 135.240 369.220,135.600 368.596,135.600 368.305 C 135.600 368.014,135.960 367.517,136.400 367.200 C 136.840 366.883,137.200 366.303,137.200 365.912 C 137.200 365.520,137.350 365.200,137.532 365.200 C 137.715 365.200,138.120 364.705,138.432 364.100 C 138.745 363.495,139.138 362.820,139.306 362.600 C 140.418 361.145,141.600 359.074,141.600 358.582 C 141.600 358.262,141.780 358.000,142.000 358.000 C 142.220 358.000,142.400 357.770,142.400 357.488 C 142.400 357.207,142.760 356.717,143.200 356.400 C 143.640 356.083,144.000 355.543,144.000 355.200 C 144.000 354.857,144.360 354.317,144.800 354.000 C 145.240 353.683,145.600 353.143,145.600 352.800 C 145.600 352.457,145.960 351.917,146.400 351.600 C 146.840 351.283,147.200 350.786,147.200 350.495 C 147.200 350.204,147.560 349.580,148.000 349.108 C 148.440 348.636,148.800 348.013,148.800 347.725 C 148.800 347.436,148.980 347.200,149.200 347.200 C 149.420 347.200,149.600 346.880,149.600 346.488 C 149.600 346.097,149.960 345.517,150.400 345.200 C 150.840 344.883,151.200 344.343,151.200 344.000 C 151.200 343.657,151.560 343.117,152.000 342.800 C 152.440 342.483,152.800 342.071,152.800 341.884 C 152.800 341.697,153.340 340.759,154.000 339.800 C 154.660 338.841,155.200 337.863,155.200 337.628 C 155.200 337.393,155.359 337.200,155.554 337.200 C 155.749 337.200,156.204 336.578,156.565 335.817 C 156.926 335.056,157.397 334.326,157.611 334.193 C 157.825 334.061,158.000 333.643,158.000 333.265 C 158.000 332.886,158.360 332.317,158.800 332.000 C 159.240 331.683,159.600 331.103,159.600 330.712 C 159.600 330.320,159.780 330.000,160.000 330.000 C 160.220 330.000,160.400 329.680,160.400 329.288 C 160.400 328.897,160.760 328.317,161.200 328.000 C 161.640 327.683,162.000 327.169,162.000 326.859 C 162.000 326.548,162.316 326.003,162.703 325.647 C 163.089 325.291,163.673 324.460,164.000 323.800 C 164.327 323.140,164.911 322.309,165.297 321.953 C 165.684 321.597,166.000 321.095,166.000 320.836 C 166.000 320.578,166.360 319.980,166.800 319.508 C 167.240 319.036,167.600 318.413,167.600 318.125 C 167.600 317.836,167.780 317.600,168.000 317.600 C 168.220 317.600,168.400 317.364,168.400 317.075 C 168.400 316.787,168.760 316.164,169.200 315.692 C 169.640 315.220,170.000 314.556,170.000 314.217 C 170.000 313.878,170.150 313.600,170.332 313.600 C 170.515 313.600,170.920 313.105,171.232 312.500 C 171.544 311.895,171.891 311.310,172.003 311.200 C 172.518 310.696,175.200 306.031,175.200 305.640 C 175.200 305.398,175.380 305.200,175.600 305.200 C 175.820 305.200,176.000 304.930,176.000 304.600 C 176.000 304.270,176.180 304.000,176.400 304.000 C 176.620 304.000,176.800 303.730,176.800 303.400 C 176.800 303.070,176.980 302.800,177.200 302.800 C 177.420 302.800,177.600 302.480,177.600 302.088 C 177.600 301.697,177.960 301.117,178.400 300.800 C 178.840 300.483,179.200 299.903,179.200 299.512 C 179.200 299.120,179.380 298.800,179.600 298.800 C 179.820 298.800,180.000 298.564,180.000 298.275 C 180.000 297.987,180.360 297.364,180.800 296.892 C 181.240 296.420,181.600 295.756,181.600 295.417 C 181.600 295.078,181.780 294.800,182.000 294.800 C 182.220 294.800,182.400 294.519,182.400 294.176 C 182.400 293.833,182.580 293.664,182.800 293.800 C 183.020 293.936,183.200 293.677,183.200 293.224 C 183.200 292.771,183.380 292.400,183.600 292.400 C 183.820 292.400,184.000 292.164,184.000 291.875 C 184.000 291.587,184.360 290.964,184.800 290.492 C 185.240 290.020,185.600 289.446,185.600 289.217 C 185.600 288.988,185.780 288.800,186.000 288.800 C 186.220 288.800,186.400 288.564,186.400 288.275 C 186.400 287.987,186.760 287.364,187.200 286.892 C 187.640 286.420,188.000 285.756,188.000 285.417 C 188.000 285.078,188.150 284.800,188.332 284.800 C 188.515 284.800,188.920 284.305,189.232 283.700 C 189.544 283.095,189.889 282.510,189.999 282.400 C 190.478 281.923,191.600 279.629,191.600 279.127 C 191.600 278.824,191.960 278.317,192.400 278.000 C 192.840 277.683,193.200 277.103,193.200 276.712 C 193.200 276.320,193.380 276.000,193.600 276.000 C 193.820 276.000,194.000 275.764,194.000 275.475 C 194.000 275.187,194.360 274.564,194.800 274.092 C 195.240 273.620,195.600 273.046,195.600 272.817 C 195.600 272.588,195.780 272.400,196.000 272.400 C 196.220 272.400,196.400 272.080,196.400 271.688 C 196.400 271.297,196.760 270.717,197.200 270.400 C 197.640 270.083,198.000 269.503,198.000 269.112 C 198.000 268.720,198.180 268.400,198.400 268.400 C 198.620 268.400,198.800 268.080,198.800 267.688 C 198.800 267.297,199.160 266.717,199.600 266.400 C 200.040 266.083,200.400 265.503,200.400 265.112 C 200.400 264.720,200.580 264.400,200.800 264.400 C 201.020 264.400,201.200 264.164,201.200 263.875 C 201.200 263.587,201.560 262.964,202.000 262.492 C 202.440 262.020,202.800 261.356,202.800 261.017 C 202.800 260.678,202.986 260.400,203.213 260.400 C 203.439 260.400,203.593 259.815,203.553 259.100 C 203.501 258.167,204.077 256.783,205.592 254.200 C 207.831 250.382,208.731 248.828,209.963 246.653 C 210.383 245.913,211.463 244.094,212.363 242.612 C 213.263 241.131,214.000 239.855,214.000 239.777 C 214.000 239.699,214.565 238.682,215.256 237.518 C 216.642 235.181,216.634 235.194,220.892 227.800 C 222.538 224.940,224.835 220.980,225.995 219.000 C 227.155 217.020,228.552 214.590,229.101 213.600 C 229.650 212.610,230.481 211.170,230.949 210.400 C 231.416 209.630,232.159 208.358,232.599 207.572 C 236.008 201.495,237.046 199.953,237.872 199.746 C 238.365 199.623,238.999 198.999,239.282 198.361 C 239.564 197.722,239.931 197.200,240.098 197.200 C 240.264 197.200,240.400 196.990,240.400 196.734 C 240.400 195.988,241.723 193.200,242.077 193.200 C 242.255 193.200,242.400 192.840,242.400 192.400 C 242.400 191.960,242.580 191.600,242.800 191.600 C 243.020 191.600,243.200 191.330,243.200 191.000 C 243.200 190.670,243.380 190.400,243.600 190.400 C 243.820 190.400,244.000 190.040,244.000 189.600 C 244.000 189.160,244.180 188.800,244.400 188.800 C 244.620 188.800,244.800 188.440,244.800 188.000 C 244.800 187.560,244.980 187.200,245.200 187.200 C 245.420 187.200,245.600 186.840,245.600 186.400 C 245.600 185.960,245.780 185.600,246.000 185.600 C 246.220 185.600,246.400 185.255,246.400 184.833 C 246.400 184.412,246.535 184.007,246.700 183.933 C 246.865 183.860,247.450 182.900,248.000 181.800 C 248.550 180.700,249.675 178.560,250.500 177.045 C 251.325 175.529,252.000 174.044,252.000 173.745 C 252.000 173.445,252.180 173.200,252.400 173.200 C 252.620 173.200,252.800 172.840,252.800 172.400 C 252.800 171.960,252.980 171.600,253.200 171.600 C 253.420 171.600,253.600 171.240,253.600 170.800 C 253.600 170.360,253.780 170.000,254.000 170.000 C 254.220 170.000,254.400 169.761,254.400 169.468 C 254.400 169.175,254.841 168.064,255.381 166.998 C 255.920 165.933,256.269 164.912,256.157 164.731 C 256.045 164.549,256.143 164.400,256.376 164.400 C 256.609 164.400,256.800 164.040,256.800 163.600 C 256.800 163.160,256.964 162.800,257.165 162.800 C 257.366 162.800,257.651 162.080,257.800 161.200 C 257.949 160.320,258.234 159.600,258.435 159.600 C 258.636 159.600,258.800 159.150,258.800 158.600 C 258.800 158.050,258.980 157.600,259.200 157.600 C 259.420 157.600,259.600 157.240,259.600 156.800 C 259.600 156.360,259.780 156.000,260.000 156.000 C 260.220 156.000,260.400 155.640,260.400 155.200 C 260.400 154.760,260.580 154.400,260.800 154.400 C 261.020 154.400,261.200 153.961,261.200 153.424 C 261.200 152.887,261.380 152.336,261.600 152.200 C 261.820 152.064,262.000 151.603,262.000 151.176 C 262.000 150.749,262.141 150.400,262.313 150.400 C 262.485 150.400,262.666 149.905,262.716 149.300 C 262.766 148.695,262.985 148.140,263.203 148.067 C 263.422 147.993,263.600 147.408,263.600 146.767 C 263.600 146.125,263.780 145.600,264.000 145.600 C 264.220 145.600,264.400 145.060,264.400 144.400 C 264.400 143.740,264.580 143.200,264.800 143.200 C 265.020 143.200,265.200 142.761,265.200 142.224 C 265.200 141.687,265.380 141.136,265.600 141.000 C 265.820 140.864,266.000 140.313,266.000 139.776 C 266.000 139.239,266.180 138.800,266.400 138.800 C 266.620 138.800,266.800 138.260,266.800 137.600 C 266.800 136.940,266.980 136.400,267.200 136.400 C 267.420 136.400,267.600 135.860,267.600 135.200 C 267.600 134.540,267.780 134.000,268.000 134.000 C 268.220 134.000,268.400 133.471,268.400 132.824 C 268.400 132.177,268.580 131.536,268.800 131.400 C 269.020 131.264,269.200 130.533,269.200 129.776 C 269.200 129.019,269.380 128.400,269.600 128.400 C 269.820 128.400,270.000 127.871,270.000 127.224 C 270.000 126.577,270.180 125.936,270.400 125.800 C 270.620 125.664,270.800 124.933,270.800 124.176 C 270.800 123.419,270.980 122.800,271.200 122.800 C 271.420 122.800,271.600 122.181,271.600 121.424 C 271.600 120.667,271.780 119.936,272.000 119.800 C 272.220 119.664,272.400 118.879,272.400 118.056 C 272.400 117.233,272.562 116.389,272.759 116.180 C 272.956 115.971,273.219 115.080,273.343 114.200 C 273.467 113.320,273.741 111.610,273.952 110.400 C 274.858 105.212,275.175 102.412,275.187 99.500 C 275.194 97.709,275.369 96.400,275.600 96.400 C 275.856 96.400,276.000 92.941,276.000 86.824 C 276.000 80.871,275.849 77.154,275.600 77.000 C 275.380 76.864,275.194 75.638,275.187 74.276 C 275.171 71.204,274.201 64.400,273.210 60.400 C 272.964 59.410,272.612 57.970,272.427 57.200 C 271.739 54.334,270.394 50.359,269.553 48.705 C 269.359 48.323,269.200 47.648,269.200 47.205 C 269.200 46.762,269.020 46.400,268.800 46.400 C 268.580 46.400,268.400 46.051,268.400 45.624 C 268.400 45.197,268.220 44.736,268.000 44.600 C 267.780 44.464,267.600 44.003,267.600 43.576 C 267.600 43.149,267.420 42.800,267.200 42.800 C 266.980 42.800,266.800 42.440,266.800 42.000 C 266.800 41.560,266.620 41.200,266.400 41.200 C 266.180 41.200,266.000 40.840,266.000 40.400 C 266.000 39.960,265.820 39.600,265.600 39.600 C 265.380 39.600,265.200 39.240,265.200 38.800 C 265.200 38.360,265.020 38.000,264.800 38.000 C 264.580 38.000,264.400 37.680,264.400 37.288 C 264.400 36.897,264.040 36.317,263.600 36.000 C 263.160 35.683,262.800 35.103,262.800 34.712 C 262.800 34.320,262.620 34.000,262.400 34.000 C 262.180 34.000,262.000 33.680,262.000 33.288 C 262.000 32.897,261.640 32.317,261.200 32.000 C 260.760 31.683,260.400 31.143,260.400 30.800 C 260.400 30.457,260.040 29.917,259.600 29.600 C 259.160 29.283,258.800 28.703,258.800 28.312 C 258.800 27.920,258.665 27.599,258.500 27.597 C 258.335 27.596,257.757 26.944,257.215 26.149 C 256.674 25.354,255.729 24.166,255.115 23.509 C 254.502 22.853,254.000 22.168,254.000 21.988 C 254.000 21.495,246.049 13.600,245.552 13.600 C 245.315 13.600,244.617 13.060,244.000 12.400 C 243.383 11.740,242.657 11.200,242.386 11.200 C 242.116 11.200,241.603 10.880,241.247 10.490 C 240.339 9.493,238.544 8.400,237.814 8.400 C 237.476 8.400,237.200 8.220,237.200 8.000 C 237.200 7.780,236.922 7.600,236.583 7.600 C 236.244 7.600,235.580 7.240,235.108 6.800 C 234.636 6.360,233.934 6.000,233.548 6.000 C 233.163 6.000,232.736 5.820,232.600 5.600 C 232.464 5.380,232.003 5.200,231.576 5.200 C 231.149 5.200,230.800 5.020,230.800 4.800 C 230.800 4.580,230.440 4.400,230.000 4.400 C 229.560 4.400,229.200 4.220,229.200 4.000 C 229.200 3.780,228.660 3.600,228.000 3.600 C 227.340 3.600,226.800 3.420,226.800 3.200 C 226.800 2.980,226.361 2.800,225.824 2.800 C 225.287 2.800,224.736 2.620,224.600 2.400 C 224.464 2.180,223.913 2.000,223.376 2.000 C 222.839 2.000,222.400 1.820,222.400 1.600 C 222.400 1.380,221.579 1.200,220.576 1.200 C 219.573 1.200,218.848 1.046,218.964 0.858 C 219.425 0.112,191.693 -0.320,182.900 0.295 M193.000 34.065 C 185.304 35.044,177.332 37.302,171.600 40.125 C 167.148 42.318,166.227 43.577,166.570 47.000 C 166.702 48.320,166.818 49.733,166.827 50.140 C 166.847 51.045,168.533 52.800,169.382 52.800 C 169.722 52.800,170.000 52.980,170.000 53.200 C 170.000 53.420,170.990 53.600,172.200 53.600 C 173.410 53.600,174.400 53.420,174.400 53.200 C 174.400 52.980,174.749 52.800,175.176 52.800 C 175.603 52.800,176.064 52.620,176.200 52.400 C 176.336 52.180,176.797 52.000,177.224 52.000 C 177.651 52.000,178.000 51.820,178.000 51.600 C 178.000 51.380,178.450 51.200,179.000 51.200 C 179.550 51.200,180.000 51.020,180.000 50.800 C 180.000 50.580,180.540 50.400,181.200 50.400 C 181.860 50.400,182.400 50.220,182.400 50.000 C 182.400 49.780,182.940 49.600,183.600 49.600 C 184.260 49.600,184.800 49.420,184.800 49.200 C 184.800 48.980,185.430 48.800,186.200 48.800 C 186.970 48.800,187.600 48.620,187.600 48.400 C 187.600 48.180,188.500 48.000,189.600 48.000 C 190.700 48.000,191.600 47.820,191.600 47.600 C 191.600 47.346,194.667 47.200,200.000 47.200 C 205.333 47.200,208.400 47.346,208.400 47.600 C 208.400 47.820,209.199 48.000,210.176 48.000 C 211.153 48.000,212.064 48.180,212.200 48.400 C 212.336 48.620,213.067 48.800,213.824 48.800 C 214.581 48.800,215.200 48.980,215.200 49.200 C 215.200 49.420,215.740 49.600,216.400 49.600 C 217.060 49.600,217.600 49.780,217.600 50.000 C 217.600 50.220,218.140 50.400,218.800 50.400 C 219.460 50.400,220.000 50.580,220.000 50.800 C 220.000 51.020,220.360 51.200,220.800 51.200 C 221.240 51.200,221.600 51.380,221.600 51.600 C 221.600 51.820,222.140 52.000,222.800 52.000 C 223.460 52.000,224.000 52.180,224.000 52.400 C 224.000 52.626,225.133 52.800,226.600 52.800 C 228.067 52.800,229.200 52.626,229.200 52.400 C 229.200 52.180,229.478 52.000,229.818 52.000 C 231.749 52.000,232.868 48.275,232.184 44.127 C 231.985 42.920,229.559 40.000,228.756 40.000 C 228.555 40.000,227.628 39.653,226.696 39.229 C 223.685 37.859,217.686 36.001,213.000 34.985 C 207.217 33.732,198.696 33.340,193.000 34.065 M253.872 45.507 C 254.661 47.219,255.924 50.087,256.818 52.200 C 258.933 57.196,261.145 66.123,262.467 75.000 C 263.101 79.260,263.090 93.641,262.449 98.400 C 261.435 105.928,260.089 112.881,258.382 119.400 C 257.922 121.160,257.387 123.140,257.195 123.800 C 256.756 125.306,256.107 127.608,255.645 129.300 C 255.209 130.894,252.443 139.121,250.971 143.200 C 250.005 145.878,246.484 154.349,244.321 159.200 C 239.794 169.356,232.054 184.463,226.391 194.200 C 224.185 197.993,223.310 199.508,222.000 201.800 C 221.560 202.570,220.840 203.830,220.400 204.600 C 219.177 206.740,218.497 207.916,212.998 217.400 C 207.873 226.239,207.076 227.616,205.600 230.200 C 200.010 239.983,193.084 251.840,192.391 252.812 C 191.956 253.423,191.600 254.121,191.600 254.362 C 191.600 254.603,191.420 254.800,191.200 254.800 C 190.980 254.800,190.800 254.993,190.800 255.228 C 190.800 255.463,190.260 256.441,189.600 257.400 C 188.940 258.359,188.400 259.259,188.400 259.400 C 188.400 259.541,187.860 260.441,187.200 261.400 C 186.540 262.359,186.000 263.249,186.000 263.378 C 186.000 263.507,185.393 264.555,184.652 265.706 C 182.958 268.336,175.556 280.325,174.962 281.400 C 174.719 281.840,173.564 283.730,172.396 285.600 C 171.227 287.470,169.603 290.080,168.787 291.400 C 167.971 292.720,165.542 296.590,163.391 300.000 C 161.239 303.410,159.281 306.604,159.039 307.097 C 158.798 307.590,158.465 307.995,158.300 307.997 C 158.135 307.999,158.000 308.190,158.000 308.422 C 158.000 308.654,157.294 309.883,156.432 311.153 C 155.569 312.423,154.512 314.078,154.082 314.831 C 153.213 316.351,146.239 327.384,142.566 333.048 C 141.264 335.054,138.760 338.965,137.000 341.739 C 135.240 344.513,131.505 350.309,128.700 354.619 C 125.895 358.929,123.600 362.522,123.600 362.602 C 123.600 363.150,112.300 379.800,111.928 379.800 C 111.670 379.800,111.110 378.900,110.682 377.800 C 110.254 376.700,109.566 375.037,109.152 374.104 C 108.738 373.172,108.400 372.254,108.400 372.066 C 108.400 371.877,108.145 371.200,107.833 370.561 C 107.522 369.923,104.715 362.920,101.597 355.000 C 98.479 347.080,95.584 339.837,95.164 338.904 C 94.744 337.972,94.400 337.024,94.400 336.799 C 94.400 336.574,94.241 336.077,94.047 335.695 C 93.716 335.045,93.379 334.247,92.400 331.800 C 92.180 331.250,91.820 330.350,91.600 329.800 C 91.380 329.250,90.996 328.305,90.746 327.700 C 90.497 327.095,90.113 326.150,89.893 325.600 C 89.673 325.050,89.339 324.240,89.150 323.800 C 88.168 321.510,83.066 308.446,82.783 307.496 C 82.444 306.360,82.860 305.792,89.752 297.987 C 90.439 297.210,91.990 295.410,93.200 293.987 C 94.410 292.565,95.788 290.950,96.263 290.400 C 96.737 289.850,99.327 286.790,102.018 283.600 C 104.709 280.410,107.679 276.900,108.619 275.800 C 109.559 274.700,112.526 271.190,115.214 268.000 C 117.902 264.810,120.573 261.657,121.150 260.994 C 121.728 260.330,122.855 258.980,123.655 257.994 C 124.456 257.007,125.446 255.810,125.855 255.334 C 126.265 254.857,126.870 254.134,127.200 253.728 C 129.345 251.082,131.420 248.570,131.601 248.400 C 131.718 248.290,133.060 246.670,134.583 244.800 C 136.107 242.930,137.454 241.310,137.576 241.200 C 137.699 241.090,138.967 239.560,140.393 237.800 C 141.819 236.040,143.216 234.359,143.499 234.065 C 143.781 233.771,144.503 232.871,145.104 232.065 C 145.704 231.259,146.306 230.510,146.440 230.400 C 147.720 229.354,175.350 194.128,185.189 180.999 C 192.113 171.759,197.882 164.110,198.008 164.000 C 198.135 163.890,198.671 163.170,199.200 162.400 C 199.729 161.630,200.260 160.910,200.381 160.800 C 200.861 160.362,205.183 154.446,206.810 152.000 C 207.762 150.570,208.660 149.310,208.807 149.200 C 209.686 148.543,224.800 124.830,224.800 124.109 C 224.800 124.007,225.162 123.415,225.605 122.793 C 226.047 122.172,226.920 120.704,227.543 119.532 C 228.166 118.359,229.092 116.680,229.600 115.800 C 232.847 110.174,239.413 96.161,241.970 89.400 C 242.469 88.080,243.033 86.640,243.222 86.200 C 243.696 85.099,245.614 79.309,246.071 77.600 C 246.277 76.830,246.627 75.570,246.849 74.800 C 247.235 73.463,247.637 71.877,248.370 68.800 C 249.825 62.694,251.230 53.781,251.802 47.033 C 252.151 42.905,252.541 42.618,253.872 45.507 M244.800 209.400 C 244.800 209.950,244.653 210.400,244.474 210.400 C 242.819 210.400,241.918 215.804,243.217 217.935 C 243.897 219.051,249.724 226.558,250.408 227.200 C 250.525 227.310,251.246 228.210,252.010 229.200 C 252.775 230.190,253.785 231.450,254.255 232.000 C 255.080 232.963,261.515 240.839,264.400 244.415 C 266.048 246.458,273.414 255.356,274.652 256.800 C 275.124 257.350,276.407 258.880,277.503 260.200 C 279.694 262.838,289.149 274.009,290.537 275.600 C 291.016 276.150,294.824 280.560,298.998 285.400 C 303.172 290.240,307.152 294.830,307.843 295.600 C 317.458 306.313,317.817 306.837,316.835 308.705 C 316.635 309.087,315.086 312.910,313.393 317.200 C 311.701 321.490,310.155 325.405,309.958 325.900 C 309.761 326.395,309.444 327.205,309.254 327.700 C 308.812 328.846,308.231 330.300,307.654 331.700 C 307.404 332.305,307.044 333.205,306.854 333.700 C 306.412 334.846,305.831 336.300,305.254 337.700 C 305.004 338.305,304.596 339.295,304.346 339.900 C 304.097 340.505,303.737 341.405,303.546 341.900 C 303.356 342.395,303.036 343.205,302.836 343.700 C 302.636 344.195,300.631 349.280,298.380 355.000 C 296.130 360.720,294.025 366.030,293.703 366.800 C 292.455 369.789,291.802 371.398,291.146 373.100 C 290.956 373.595,290.620 374.450,290.400 375.000 C 290.180 375.550,289.844 376.405,289.654 376.900 C 288.926 378.789,288.252 380.000,287.928 380.000 C 287.581 380.000,282.380 372.207,272.600 357.033 C 269.520 352.255,265.065 345.379,262.700 341.754 C 260.335 338.128,258.400 335.068,258.400 334.953 C 258.400 334.838,257.883 333.992,257.252 333.072 C 255.807 330.969,247.767 318.267,246.718 316.431 C 246.288 315.678,245.231 314.023,244.368 312.753 C 243.506 311.483,242.800 310.357,242.800 310.250 C 242.800 310.144,242.107 309.009,241.260 307.728 C 239.457 305.001,230.659 290.840,229.501 288.800 C 229.064 288.030,228.390 286.950,228.002 286.400 C 227.615 285.850,226.221 283.600,224.903 281.400 C 215.167 265.141,215.410 265.383,209.836 266.427 C 206.767 267.002,206.000 267.475,206.000 268.795 C 206.000 269.264,205.848 269.553,205.663 269.439 C 205.477 269.324,205.287 270.393,205.241 271.815 C 205.190 273.411,205.319 274.400,205.579 274.400 C 205.810 274.400,206.000 274.760,206.000 275.200 C 206.000 275.640,206.180 276.000,206.400 276.000 C 206.620 276.000,206.800 276.360,206.800 276.800 C 206.800 277.240,206.959 277.600,207.153 277.600 C 207.347 277.600,207.996 278.635,208.594 279.900 C 209.193 281.165,209.803 282.290,209.951 282.400 C 210.099 282.510,210.665 283.455,211.209 284.500 C 211.753 285.545,212.334 286.400,212.499 286.400 C 212.665 286.400,212.800 286.593,212.800 286.828 C 212.800 287.063,213.340 288.041,214.000 289.000 C 214.660 289.959,215.200 290.854,215.200 290.989 C 215.200 291.123,215.560 291.620,216.000 292.092 C 216.440 292.564,216.800 293.187,216.800 293.475 C 216.800 293.764,216.980 294.000,217.200 294.000 C 217.420 294.000,217.600 294.320,217.600 294.712 C 217.600 295.103,217.960 295.683,218.400 296.000 C 218.840 296.317,219.200 296.897,219.200 297.288 C 219.200 297.680,219.380 298.000,219.600 298.000 C 219.820 298.000,220.000 298.320,220.000 298.712 C 220.000 299.103,220.360 299.683,220.800 300.000 C 221.240 300.317,221.600 300.897,221.600 301.288 C 221.600 301.680,221.780 302.000,222.000 302.000 C 222.220 302.000,222.400 302.270,222.400 302.600 C 222.400 302.930,222.580 303.200,222.800 303.200 C 223.020 303.200,223.200 303.470,223.200 303.800 C 223.200 304.130,223.380 304.400,223.600 304.400 C 223.820 304.400,224.000 304.577,224.000 304.792 C 224.000 305.008,224.630 306.169,225.400 307.373 C 226.170 308.577,226.800 309.750,226.800 309.981 C 226.800 310.211,226.980 310.400,227.200 310.400 C 227.420 310.400,227.600 310.636,227.600 310.925 C 227.600 311.213,227.960 311.836,228.400 312.308 C 228.840 312.780,229.200 313.362,229.200 313.600 C 229.200 313.838,229.560 314.420,230.000 314.892 C 230.440 315.364,230.800 315.987,230.800 316.275 C 230.800 316.564,230.980 316.800,231.200 316.800 C 231.420 316.800,231.600 317.120,231.600 317.512 C 231.600 317.903,231.960 318.483,232.400 318.800 C 232.840 319.117,233.200 319.697,233.200 320.088 C 233.200 320.480,233.380 320.800,233.600 320.800 C 233.820 320.800,234.000 321.070,234.000 321.400 C 234.000 321.730,234.180 322.000,234.400 322.000 C 234.620 322.000,234.800 322.270,234.800 322.600 C 234.800 322.930,234.980 323.200,235.200 323.200 C 235.420 323.200,235.600 323.430,235.600 323.712 C 235.600 323.993,235.960 324.483,236.400 324.800 C 236.840 325.117,237.200 325.697,237.200 326.088 C 237.200 326.480,237.380 326.800,237.600 326.800 C 237.820 326.800,238.000 327.036,238.000 327.325 C 238.000 327.613,238.360 328.236,238.800 328.708 C 239.240 329.180,239.600 329.804,239.600 330.095 C 239.600 330.386,239.960 330.883,240.400 331.200 C 240.840 331.517,241.200 332.097,241.200 332.488 C 241.200 332.880,241.368 333.200,241.573 333.200 C 241.778 333.200,242.073 333.605,242.228 334.100 C 242.383 334.595,243.025 335.752,243.655 336.672 C 244.285 337.592,244.800 338.537,244.800 338.772 C 244.800 339.007,244.950 339.200,245.132 339.200 C 245.315 339.200,245.720 339.695,246.032 340.300 C 246.345 340.905,246.915 341.749,247.300 342.175 C 247.685 342.602,248.000 343.187,248.000 343.475 C 248.000 343.764,248.180 344.000,248.400 344.000 C 248.620 344.000,248.800 344.236,248.800 344.525 C 248.800 344.813,249.160 345.436,249.600 345.908 C 250.040 346.380,250.400 347.004,250.400 347.295 C 250.400 347.586,250.760 348.083,251.200 348.400 C 251.640 348.717,252.000 349.257,252.000 349.600 C 252.000 349.943,252.360 350.483,252.800 350.800 C 253.240 351.117,253.600 351.614,253.600 351.905 C 253.600 352.196,253.960 352.820,254.400 353.292 C 254.840 353.764,255.200 354.387,255.200 354.675 C 255.200 354.964,255.380 355.200,255.600 355.200 C 255.820 355.200,256.000 355.388,256.000 355.617 C 256.000 355.846,256.360 356.420,256.800 356.892 C 257.240 357.364,257.600 357.987,257.600 358.275 C 257.600 358.564,257.753 358.800,257.939 358.800 C 258.126 358.800,258.603 359.520,259.000 360.400 C 259.397 361.280,259.874 362.000,260.061 362.000 C 260.247 362.000,260.400 362.236,260.400 362.525 C 260.400 362.813,260.760 363.436,261.200 363.908 C 261.640 364.380,262.000 365.004,262.000 365.295 C 262.000 365.586,262.360 366.083,262.800 366.400 C 263.240 366.717,263.600 367.214,263.600 367.505 C 263.600 367.796,263.960 368.420,264.400 368.892 C 264.840 369.364,265.200 369.987,265.200 370.275 C 265.200 370.564,265.380 370.800,265.600 370.800 C 265.820 370.800,266.000 371.070,266.000 371.400 C 266.000 371.730,266.180 372.000,266.400 372.000 C 266.620 372.000,266.800 372.227,266.800 372.504 C 266.800 372.781,267.160 373.232,267.600 373.507 C 268.040 373.782,268.400 374.260,268.400 374.570 C 268.400 374.880,268.567 375.193,268.770 375.267 C 268.974 375.340,269.199 375.670,269.270 376.000 C 269.342 376.330,269.715 376.891,270.100 377.247 C 270.485 377.603,270.800 378.148,270.800 378.459 C 270.800 378.769,271.160 379.283,271.600 379.600 C 272.040 379.917,272.400 380.457,272.400 380.800 C 272.400 381.143,272.760 381.683,273.200 382.000 C 273.640 382.317,274.000 382.897,274.000 383.288 C 274.000 383.680,274.147 384.000,274.326 384.000 C 274.505 384.000,274.957 384.585,275.329 385.300 C 276.410 387.375,277.742 389.510,278.523 390.420 C 278.920 390.883,279.444 391.698,279.687 392.231 C 279.930 392.764,280.258 393.200,280.416 393.200 C 280.574 393.200,280.927 393.740,281.200 394.400 C 281.473 395.060,281.825 395.600,281.981 395.600 C 282.137 395.600,282.520 396.095,282.832 396.700 C 285.042 400.982,295.600 401.245,295.600 397.018 C 295.600 396.678,295.780 396.400,296.000 396.400 C 296.220 396.400,296.400 396.040,296.400 395.600 C 296.400 395.160,296.580 394.800,296.800 394.800 C 297.020 394.800,297.200 394.260,297.200 393.600 C 297.200 392.940,297.380 392.400,297.600 392.400 C 297.820 392.400,298.000 392.040,298.000 391.600 C 298.000 391.160,298.180 390.800,298.400 390.800 C 298.620 390.800,298.800 390.350,298.800 389.800 C 298.800 389.250,298.980 388.800,299.200 388.800 C 299.420 388.800,299.600 388.361,299.600 387.824 C 299.600 387.287,299.780 386.736,300.000 386.600 C 300.220 386.464,300.400 386.003,300.400 385.576 C 300.400 385.149,300.580 384.800,300.800 384.800 C 301.020 384.800,301.200 384.361,301.200 383.824 C 301.200 383.287,301.380 382.736,301.600 382.600 C 301.820 382.464,302.000 382.003,302.000 381.576 C 302.000 381.149,302.180 380.800,302.400 380.800 C 302.620 380.800,302.800 380.361,302.800 379.824 C 302.800 379.287,302.980 378.736,303.200 378.600 C 303.420 378.464,303.600 378.003,303.600 377.576 C 303.600 377.149,303.780 376.800,304.000 376.800 C 304.220 376.800,304.400 376.521,304.400 376.181 C 304.400 375.840,304.760 374.816,305.200 373.906 C 305.640 372.995,306.000 372.047,306.000 371.800 C 306.000 371.553,306.339 370.641,306.753 369.775 C 307.167 368.909,307.631 367.617,307.784 366.905 C 307.937 366.192,308.228 365.506,308.431 365.381 C 308.634 365.255,308.800 364.801,308.800 364.371 C 308.800 363.941,308.980 363.232,309.200 362.795 C 309.420 362.358,309.780 361.642,310.000 361.205 C 310.220 360.768,310.400 360.048,310.400 359.605 C 310.400 359.162,310.580 358.800,310.800 358.800 C 311.020 358.800,311.200 358.451,311.200 358.024 C 311.200 357.597,311.380 357.136,311.600 357.000 C 311.820 356.864,312.000 356.403,312.000 355.976 C 312.000 355.549,312.180 355.200,312.400 355.200 C 312.620 355.200,312.800 354.840,312.800 354.400 C 312.800 353.960,312.980 353.600,313.200 353.600 C 313.420 353.600,313.600 353.060,313.600 352.400 C 313.600 351.740,313.780 351.200,314.000 351.200 C 314.220 351.200,314.400 350.840,314.400 350.400 C 314.400 349.960,314.580 349.600,314.800 349.600 C 315.020 349.600,315.200 349.060,315.200 348.400 C 315.200 347.740,315.380 347.200,315.600 347.200 C 315.820 347.200,316.000 346.840,316.000 346.400 C 316.000 345.960,316.180 345.600,316.400 345.600 C 316.620 345.600,316.800 345.060,316.800 344.400 C 316.800 343.740,316.980 343.200,317.200 343.200 C 317.420 343.200,317.600 342.840,317.600 342.400 C 317.600 341.960,317.780 341.600,318.000 341.600 C 318.220 341.600,318.400 341.245,318.400 340.812 C 318.400 340.379,318.760 339.383,319.200 338.600 C 319.640 337.817,320.000 336.821,320.000 336.388 C 320.000 335.955,320.180 335.600,320.400 335.600 C 320.620 335.600,320.800 335.251,320.800 334.824 C 320.800 334.397,320.980 333.936,321.200 333.800 C 321.420 333.664,321.600 333.113,321.600 332.576 C 321.600 332.039,321.741 331.600,321.913 331.600 C 322.085 331.600,322.474 330.745,322.778 329.700 C 323.082 328.655,323.438 327.710,323.569 327.600 C 323.988 327.247,325.204 323.433,325.202 322.476 C 325.201 321.962,325.377 321.662,325.600 321.800 C 325.827 321.940,326.000 321.604,326.000 321.024 C 326.000 320.461,326.180 320.000,326.400 320.000 C 326.620 320.000,326.800 319.651,326.800 319.224 C 326.800 318.797,326.980 318.336,327.200 318.200 C 327.420 318.064,327.600 317.513,327.600 316.976 C 327.600 316.439,327.780 316.000,328.000 316.000 C 328.220 316.000,328.400 315.651,328.400 315.224 C 328.400 314.797,328.580 314.336,328.800 314.200 C 329.020 314.064,329.200 313.513,329.200 312.976 C 329.200 312.439,329.380 312.000,329.600 312.000 C 329.820 312.000,330.000 311.651,330.000 311.224 C 330.000 310.797,330.180 310.336,330.400 310.200 C 330.620 310.064,330.800 309.513,330.800 308.976 C 330.800 308.439,330.980 308.000,331.200 308.000 C 331.426 308.000,331.600 306.867,331.600 305.400 C 331.600 303.933,331.426 302.800,331.200 302.800 C 330.980 302.800,330.800 302.506,330.800 302.147 C 330.800 301.788,330.476 301.203,330.081 300.847 C 329.686 300.491,328.936 299.591,328.415 298.846 C 327.895 298.102,326.238 296.212,324.734 294.647 C 323.231 293.083,322.000 291.670,322.000 291.509 C 322.000 291.347,320.830 290.045,319.400 288.615 C 317.970 287.185,316.800 285.838,316.800 285.621 C 316.800 285.405,316.440 285.035,316.000 284.800 C 315.560 284.565,315.200 284.184,315.200 283.955 C 315.200 283.725,314.519 282.876,313.687 282.069 C 312.855 281.261,311.735 279.970,311.199 279.200 C 310.662 278.430,309.273 276.859,308.111 275.709 C 306.950 274.559,306.000 273.452,306.000 273.249 C 306.000 273.047,305.143 272.005,304.095 270.935 C 303.047 269.865,301.747 268.362,301.207 267.595 C 300.668 266.828,299.584 265.570,298.800 264.800 C 298.016 264.030,296.937 262.770,296.403 262.000 C 295.274 260.374,293.276 258.400,292.758 258.400 C 292.561 258.400,292.400 258.131,292.400 257.803 C 292.400 257.222,291.753 256.352,289.500 253.909 C 288.895 253.252,288.400 252.559,288.400 252.368 C 288.400 252.177,287.633 251.251,286.695 250.311 C 285.757 249.370,284.547 247.977,284.007 247.216 C 282.949 245.724,281.410 243.996,278.100 240.583 C 276.945 239.392,276.000 238.235,276.000 238.012 C 276.000 237.789,275.651 237.200,275.224 236.703 C 274.798 236.206,274.078 235.367,273.624 234.839 C 273.171 234.310,272.800 233.763,272.800 233.622 C 272.800 233.482,272.214 232.744,271.497 231.983 C 270.780 231.223,269.752 229.970,269.212 229.200 C 268.673 228.430,267.729 227.323,267.115 226.740 C 266.502 226.156,266.000 225.567,266.000 225.429 C 266.000 225.291,265.185 224.364,264.189 223.368 C 263.192 222.371,262.501 221.360,262.651 221.117 C 262.815 220.852,262.740 220.790,262.462 220.962 C 262.208 221.119,262.000 221.039,262.000 220.784 C 262.000 220.529,261.460 219.817,260.800 219.200 C 260.140 218.583,259.600 217.857,259.600 217.586 C 259.600 217.316,259.273 216.803,258.874 216.447 C 258.474 216.091,257.374 214.746,256.430 213.458 C 253.031 208.823,252.353 208.400,248.317 208.400 C 244.832 208.400,244.800 208.409,244.800 209.400 " stroke="none" fill="#1d1c1c" fill-rule="evenodd"></path><path id="path1" d="M252.400 46.757 C 252.400 50.564,250.483 62.846,248.757 70.100 C 247.506 75.357,246.079 80.367,245.197 82.600 C 245.023 83.040,244.664 84.030,244.400 84.800 C 243.818 86.493,243.229 87.960,242.753 88.895 C 242.559 89.277,242.400 89.774,242.400 89.999 C 242.400 90.224,242.022 91.262,241.560 92.304 C 240.698 94.251,240.582 94.526,239.331 97.593 C 238.285 100.158,230.696 115.279,228.788 118.600 C 227.904 120.140,227.073 121.715,226.943 122.100 C 226.813 122.485,226.569 122.800,226.400 122.800 C 226.231 122.800,225.993 123.115,225.871 123.500 C 225.654 124.185,224.396 126.404,224.000 126.800 C 223.890 126.910,223.558 127.430,223.262 127.955 C 222.967 128.480,222.408 129.470,222.022 130.155 C 219.749 134.179,208.883 150.506,208.327 150.733 C 208.147 150.807,208.000 151.088,208.000 151.358 C 208.000 151.628,207.680 152.198,207.289 152.625 C 206.898 153.051,206.139 154.030,205.603 154.800 C 204.160 156.872,195.464 168.568,195.194 168.800 C 195.066 168.910,194.529 169.630,194.000 170.400 C 193.471 171.170,192.931 171.890,192.800 172.000 C 192.669 172.110,192.129 172.830,191.600 173.600 C 191.071 174.370,190.535 175.090,190.408 175.200 C 190.281 175.310,187.489 179.000,184.204 183.400 C 180.918 187.800,178.125 191.490,177.996 191.600 C 177.867 191.710,177.329 192.430,176.800 193.200 C 176.271 193.970,175.731 194.690,175.600 194.800 C 175.469 194.910,174.923 195.630,174.386 196.400 C 173.850 197.170,173.193 198.070,172.925 198.400 C 172.658 198.730,170.593 201.340,168.336 204.200 C 166.080 207.060,164.135 209.490,164.014 209.600 C 163.894 209.710,163.304 210.459,162.704 211.265 C 162.103 212.071,161.384 212.971,161.106 213.265 C 160.828 213.559,160.125 214.430,159.545 215.200 C 158.965 215.970,158.155 216.990,157.745 217.466 C 156.655 218.734,155.964 219.590,154.410 221.601 C 153.646 222.591,152.926 223.490,152.809 223.600 C 152.693 223.710,151.519 225.150,150.200 226.800 C 148.881 228.450,147.705 229.890,147.586 230.000 C 147.468 230.110,146.214 231.640,144.800 233.400 C 143.386 235.160,142.130 236.690,142.009 236.800 C 141.888 236.910,140.984 237.990,140.000 239.200 C 139.016 240.410,138.118 241.490,138.005 241.600 C 137.891 241.710,136.719 243.150,135.399 244.799 C 132.138 248.876,129.090 252.547,126.693 255.288 C 125.593 256.546,124.421 257.963,124.090 258.435 C 123.759 258.908,122.989 259.859,122.379 260.548 C 121.769 261.236,119.078 264.410,116.398 267.600 C 113.719 270.790,110.778 274.280,109.863 275.356 C 106.019 279.876,105.390 280.610,105.197 280.800 C 105.085 280.910,103.204 283.160,101.017 285.800 C 98.830 288.440,96.758 290.870,96.413 291.200 C 96.068 291.530,94.979 292.784,93.993 293.986 C 93.007 295.188,91.634 296.808,90.943 297.586 C 89.904 298.754,86.147 303.151,83.678 306.086 C 83.115 306.756,83.827 308.967,87.224 317.100 C 88.011 318.984,88.519 320.231,88.854 321.100 C 89.044 321.595,89.380 322.450,89.600 323.000 C 89.820 323.550,90.156 324.405,90.346 324.900 C 90.537 325.395,90.897 326.295,91.146 326.900 C 91.396 327.505,91.780 328.450,92.000 329.000 C 92.220 329.550,92.580 330.450,92.800 331.000 C 93.020 331.550,93.380 332.450,93.600 333.000 C 93.820 333.550,94.156 334.405,94.346 334.900 C 94.537 335.395,94.897 336.295,95.146 336.900 C 95.396 337.505,95.780 338.450,96.000 339.000 C 96.220 339.550,96.566 340.405,96.768 340.900 C 96.971 341.395,98.430 345.130,100.010 349.200 C 101.591 353.270,103.135 357.123,103.442 357.761 C 103.749 358.400,104.000 359.084,104.000 359.281 C 104.000 359.478,104.360 360.384,104.800 361.294 C 105.240 362.205,105.600 363.098,105.600 363.279 C 105.600 363.461,105.978 364.462,106.440 365.504 C 106.902 366.547,107.418 367.760,107.586 368.200 C 107.978 369.222,108.570 370.702,109.146 372.100 C 109.724 373.500,110.305 374.954,110.746 376.100 C 110.937 376.595,111.327 377.495,111.614 378.100 L 112.135 379.199 114.127 376.100 C 115.222 374.395,116.692 372.100,117.392 371.000 C 118.093 369.900,120.829 365.670,123.472 361.600 C 126.116 357.530,130.282 351.050,132.731 347.200 C 135.180 343.350,137.368 339.983,137.592 339.717 C 137.816 339.451,138.000 339.130,138.000 339.004 C 138.000 338.877,139.260 336.895,140.800 334.600 C 142.340 332.305,143.600 330.241,143.600 330.013 C 143.600 329.786,143.735 329.599,143.900 329.597 C 144.065 329.595,144.395 329.190,144.633 328.697 C 145.082 327.767,149.059 321.464,153.462 314.703 C 154.858 312.560,156.000 310.625,156.000 310.403 C 156.000 310.181,156.180 310.000,156.400 310.000 C 156.620 310.000,156.800 309.764,156.800 309.475 C 156.800 309.187,157.115 308.594,157.500 308.158 C 158.388 307.153,159.583 305.209,159.871 304.300 C 159.993 303.915,160.252 303.600,160.447 303.600 C 160.641 303.600,160.800 303.437,160.800 303.238 C 160.800 303.038,162.712 299.843,165.049 296.138 C 167.385 292.432,169.657 288.771,170.097 288.002 C 170.537 287.233,171.415 285.851,172.048 284.930 C 172.682 284.009,173.200 283.063,173.200 282.828 C 173.200 282.593,173.380 282.400,173.600 282.400 C 173.820 282.400,174.000 282.130,174.000 281.800 C 174.000 281.470,174.159 281.200,174.353 281.200 C 174.548 281.200,174.807 280.885,174.929 280.500 C 175.146 279.815,176.404 277.596,176.800 277.200 C 176.910 277.090,177.259 276.550,177.576 276.000 C 178.960 273.597,185.768 262.502,186.449 261.538 C 186.862 260.954,187.200 260.357,187.200 260.210 C 187.200 260.064,187.740 259.159,188.400 258.200 C 189.060 257.241,189.600 256.341,189.600 256.200 C 189.600 256.059,190.140 255.159,190.800 254.200 C 191.460 253.241,192.000 252.263,192.000 252.028 C 192.000 251.793,192.159 251.600,192.353 251.600 C 192.548 251.600,192.807 251.285,192.929 250.900 C 193.225 249.964,194.524 247.834,194.900 247.667 C 195.065 247.593,195.200 247.376,195.200 247.184 C 195.200 246.992,195.767 245.882,196.461 244.718 C 197.154 243.553,199.064 240.260,200.705 237.400 C 202.346 234.540,204.029 231.615,204.445 230.900 C 205.166 229.659,206.093 228.031,207.262 225.955 C 207.558 225.430,207.890 224.910,208.000 224.800 C 208.110 224.690,208.442 224.170,208.738 223.645 C 209.033 223.120,209.645 222.040,210.097 221.245 C 210.548 220.450,211.465 218.810,212.133 217.600 C 212.801 216.390,214.509 213.420,215.928 211.000 C 218.927 205.885,219.848 204.287,222.062 200.355 C 222.358 199.830,222.690 199.310,222.800 199.200 C 222.910 199.090,223.242 198.570,223.538 198.045 C 223.833 197.520,224.444 196.440,224.894 195.645 C 225.345 194.850,226.138 193.435,226.657 192.500 C 227.175 191.565,228.078 189.945,228.661 188.900 C 232.855 181.394,243.247 160.591,244.848 156.500 C 245.042 156.005,245.375 155.195,245.588 154.700 C 245.801 154.205,246.675 152.180,247.530 150.200 C 248.384 148.220,249.747 144.620,250.557 142.200 C 251.368 139.780,252.204 137.487,252.415 137.105 C 252.627 136.723,252.800 136.059,252.800 135.629 C 252.800 135.199,252.980 134.736,253.200 134.600 C 253.420 134.464,253.600 134.001,253.600 133.571 C 253.600 133.141,253.762 132.477,253.961 132.095 C 254.160 131.713,254.537 130.590,254.800 129.600 C 255.063 128.610,255.440 127.487,255.639 127.105 C 255.838 126.723,256.000 125.969,256.000 125.429 C 256.000 124.889,256.180 124.336,256.400 124.200 C 256.620 124.064,256.800 123.434,256.800 122.800 C 256.800 122.166,256.960 121.548,257.156 121.427 C 257.351 121.306,257.613 120.621,257.737 119.904 C 257.861 119.187,258.073 117.970,258.208 117.200 C 258.344 116.430,258.610 115.440,258.800 115.000 C 258.990 114.560,259.255 113.570,259.388 112.800 C 259.521 112.030,259.812 110.500,260.033 109.400 C 260.486 107.154,260.960 104.209,261.674 99.200 C 262.290 94.885,262.300 78.813,261.690 74.600 C 261.128 70.718,260.590 67.665,259.999 65.000 C 259.755 63.900,259.456 62.413,259.334 61.696 C 259.212 60.979,258.951 60.294,258.756 60.173 C 258.560 60.052,258.400 59.459,258.400 58.856 C 258.400 58.253,258.257 57.589,258.082 57.380 C 257.907 57.171,257.535 56.280,257.255 55.400 C 256.770 53.871,256.628 53.488,255.702 51.200 C 255.027 49.530,252.690 44.800,252.540 44.800 C 252.463 44.800,252.400 45.680,252.400 46.757 " stroke="none" fill="#eb839b" fill-rule="evenodd"></path><path id="path2" d="M146.343 46.800 C 145.410 48.742,144.860 49.977,143.580 53.000 C 143.393 53.440,142.851 55.060,142.374 56.600 C 141.898 58.140,141.349 59.713,141.154 60.095 C 140.959 60.477,140.800 61.321,140.800 61.971 C 140.800 62.621,140.639 63.252,140.442 63.374 C 140.245 63.495,139.983 64.271,139.858 65.097 C 139.733 65.924,139.438 67.680,139.202 69.000 C 138.099 75.177,137.846 78.426,137.833 86.600 C 137.819 95.579,138.373 101.492,139.967 109.400 C 140.188 110.500,140.479 112.030,140.612 112.800 C 140.745 113.570,141.010 114.560,141.200 115.000 C 141.390 115.440,141.656 116.430,141.792 117.200 C 141.927 117.970,142.139 119.187,142.263 119.904 C 142.387 120.621,142.649 121.306,142.844 121.427 C 143.040 121.548,143.200 122.166,143.200 122.800 C 143.200 123.434,143.380 124.064,143.600 124.200 C 143.820 124.336,144.000 124.889,144.000 125.429 C 144.000 125.969,144.162 126.723,144.361 127.105 C 144.560 127.487,144.937 128.610,145.200 129.600 C 145.463 130.590,145.840 131.713,146.039 132.095 C 146.238 132.477,146.400 133.141,146.400 133.571 C 146.400 134.001,146.580 134.464,146.800 134.600 C 147.020 134.736,147.200 135.199,147.200 135.629 C 147.200 136.059,147.376 136.723,147.591 137.105 C 147.806 137.487,148.422 139.150,148.960 140.800 C 150.114 144.338,152.384 150.319,153.613 153.058 C 154.092 154.126,154.757 155.630,155.090 156.400 C 156.463 159.574,157.823 162.477,160.282 167.480 C 163.778 174.593,163.773 177.685,160.259 180.089 C 158.894 181.023,158.809 181.667,159.908 182.765 C 160.414 183.271,160.530 183.268,160.826 182.739 C 161.012 182.407,168.096 172.879,176.567 161.567 C 189.317 144.543,191.831 140.977,191.163 140.869 C 190.719 140.797,190.090 140.959,189.765 141.229 C 189.064 141.810,186.512 141.138,184.693 139.893 C 183.428 139.027,179.384 132.937,175.597 126.195 C 175.200 125.488,174.633 124.480,174.338 123.955 C 174.042 123.430,173.710 122.910,173.600 122.800 C 173.490 122.690,173.158 122.170,172.862 121.645 C 172.567 121.120,171.955 120.040,171.502 119.245 C 168.293 113.607,161.743 100.472,160.409 97.000 C 160.025 96.002,158.434 92.437,157.956 91.505 C 157.760 91.123,157.600 90.448,157.600 90.005 C 157.600 89.562,157.420 89.200,157.200 89.200 C 156.980 89.200,156.800 88.838,156.800 88.395 C 156.800 87.952,156.620 87.232,156.400 86.795 C 156.180 86.358,155.820 85.642,155.600 85.205 C 155.380 84.768,155.200 84.059,155.200 83.629 C 155.200 83.199,155.020 82.736,154.800 82.600 C 154.580 82.464,154.400 81.924,154.400 81.400 C 154.400 80.876,154.241 80.349,154.046 80.229 C 153.851 80.108,153.596 79.513,153.479 78.905 C 153.362 78.297,153.086 77.170,152.867 76.400 C 151.900 73.011,150.475 67.189,150.027 64.800 C 149.759 63.370,149.384 61.390,149.195 60.400 C 148.547 57.020,147.934 52.204,147.667 48.400 L 147.400 44.600 146.343 46.800 M232.400 49.800 C 232.400 50.130,232.720 50.400,233.112 50.400 C 233.503 50.400,234.083 50.760,234.400 51.200 C 234.717 51.640,235.297 52.000,235.688 52.000 C 236.080 52.000,236.400 52.180,236.400 52.400 C 236.400 52.620,236.754 52.800,237.187 52.800 C 238.258 52.800,237.849 51.859,236.479 51.171 C 235.885 50.873,234.922 50.307,234.338 49.914 C 233.042 49.042,232.400 49.004,232.400 49.800 M163.906 50.903 C 162.501 51.685,161.636 52.970,162.161 53.494 C 162.290 53.623,162.732 53.339,163.144 52.864 C 163.557 52.389,164.111 52.000,164.375 52.000 C 164.973 52.000,166.000 51.006,166.000 50.429 C 166.000 49.849,165.659 49.927,163.906 50.903 M251.693 52.000 C 251.693 52.770,251.775 53.085,251.876 52.700 C 251.976 52.315,251.976 51.685,251.876 51.300 C 251.775 50.915,251.693 51.230,251.693 52.000 M247.646 73.267 C 247.621 73.634,247.496 74.264,247.370 74.667 C 247.152 75.362,247.163 75.363,247.597 74.687 C 247.848 74.296,247.973 73.666,247.873 73.287 C 247.711 72.668,247.688 72.666,247.646 73.267 M261.029 103.029 C 260.881 103.615,260.838 104.172,260.932 104.266 C 261.027 104.360,261.224 103.958,261.371 103.371 C 261.519 102.785,261.562 102.228,261.468 102.134 C 261.373 102.040,261.176 102.442,261.029 103.029 M241.286 205.700 C 241.060 205.975,239.934 207.820,238.786 209.800 C 235.793 214.959,235.529 215.412,233.200 219.400 C 232.044 221.380,230.784 223.540,230.401 224.200 C 230.018 224.860,227.409 229.360,224.602 234.200 C 219.733 242.597,218.971 243.914,217.251 246.900 C 216.840 247.615,215.553 249.820,214.391 251.800 C 213.230 253.780,211.204 257.260,209.888 259.533 C 207.967 262.853,207.349 263.628,206.748 263.471 C 205.754 263.211,205.788 264.071,206.800 264.800 C 207.240 265.117,207.600 265.607,207.600 265.888 C 207.600 266.525,207.541 266.528,209.650 265.776 C 212.051 264.919,214.448 265.316,216.207 266.859 C 217.347 267.860,221.200 273.549,221.200 274.231 C 221.200 274.343,221.384 274.651,221.608 274.917 C 222.214 275.634,225.200 280.393,225.200 280.641 C 225.200 280.759,225.740 281.641,226.400 282.600 C 227.060 283.559,227.600 284.537,227.600 284.772 C 227.600 285.007,227.780 285.200,228.000 285.200 C 228.220 285.200,228.400 285.393,228.400 285.628 C 228.400 285.863,228.940 286.841,229.600 287.800 C 230.260 288.759,230.800 289.654,230.800 289.789 C 230.800 289.924,230.987 290.251,231.216 290.517 C 231.444 290.783,232.727 292.800,234.066 295.000 C 235.406 297.200,237.288 300.213,238.251 301.695 C 239.213 303.178,240.000 304.495,240.000 304.623 C 240.000 304.751,240.540 305.641,241.200 306.600 C 241.860 307.559,242.400 308.454,242.400 308.589 C 242.400 308.723,242.760 309.220,243.200 309.692 C 243.640 310.164,244.000 310.787,244.000 311.075 C 244.000 311.364,244.180 311.600,244.400 311.600 C 244.620 311.600,244.800 311.782,244.800 312.004 C 244.800 312.226,245.769 313.891,246.954 315.704 C 248.139 317.517,250.682 321.520,252.604 324.600 C 254.527 327.680,256.888 331.413,257.850 332.895 C 258.813 334.378,259.600 335.773,259.600 335.995 C 259.600 336.218,259.750 336.400,259.932 336.400 C 260.115 336.400,260.520 336.895,260.832 337.500 C 261.145 338.105,261.536 338.780,261.703 339.000 C 262.887 340.562,272.800 356.130,272.800 356.427 C 272.800 356.632,272.980 356.800,273.200 356.800 C 273.420 356.800,273.600 356.967,273.600 357.170 C 273.600 357.374,276.810 362.413,280.734 368.367 C 288.550 380.226,287.849 379.578,289.200 376.200 C 289.420 375.650,289.804 374.705,290.054 374.100 C 290.303 373.495,290.663 372.595,290.854 372.100 C 291.044 371.605,291.404 370.705,291.654 370.100 C 292.231 368.700,292.812 367.246,293.254 366.100 C 293.444 365.605,293.756 364.795,293.946 364.300 C 294.137 363.805,294.497 362.905,294.746 362.300 C 294.996 361.695,295.362 360.795,295.559 360.300 C 295.757 359.805,296.188 358.770,296.517 358.000 C 296.846 357.230,298.048 354.170,299.188 351.200 C 300.328 348.230,301.428 345.395,301.631 344.900 C 301.834 344.405,302.180 343.550,302.400 343.000 C 302.620 342.450,302.980 341.550,303.200 341.000 C 303.420 340.450,303.780 339.550,304.000 339.000 C 304.220 338.450,304.604 337.505,304.854 336.900 C 305.103 336.295,305.463 335.395,305.654 334.900 C 305.844 334.405,306.180 333.550,306.400 333.000 C 306.620 332.450,306.956 331.595,307.146 331.100 C 307.337 330.605,307.721 329.660,308.000 329.000 C 308.279 328.340,308.663 327.395,308.854 326.900 C 309.044 326.405,309.380 325.550,309.600 325.000 C 309.820 324.450,310.156 323.595,310.346 323.100 C 310.537 322.605,310.897 321.705,311.146 321.100 C 311.396 320.495,311.780 319.550,312.000 319.000 C 312.220 318.450,312.563 317.595,312.761 317.100 C 312.960 316.605,313.965 314.090,314.994 311.511 L 316.866 306.821 312.394 301.711 C 309.934 298.900,306.882 295.430,305.611 294.000 C 304.340 292.570,302.784 290.770,302.153 290.000 C 301.522 289.230,300.350 287.880,299.547 287.000 C 298.745 286.120,297.576 284.770,296.951 284.000 C 296.325 283.230,295.715 282.510,295.596 282.400 C 295.477 282.290,294.394 281.030,293.190 279.601 C 291.985 278.171,290.727 276.731,290.393 276.401 C 290.059 276.070,288.981 274.810,287.998 273.600 C 287.015 272.390,286.109 271.310,285.985 271.200 C 285.861 271.090,284.092 269.020,282.054 266.600 C 280.016 264.180,277.608 261.339,276.702 260.286 C 275.797 259.234,274.784 257.974,274.451 257.486 C 274.117 256.999,273.561 256.330,273.215 256.000 C 272.869 255.670,271.781 254.410,270.798 253.200 C 269.815 251.990,268.908 250.910,268.783 250.800 C 268.658 250.690,267.335 249.070,265.843 247.200 C 264.351 245.330,262.651 243.253,262.065 242.584 C 261.479 241.915,260.508 240.715,259.906 239.918 C 259.304 239.121,258.578 238.229,258.291 237.935 C 258.004 237.641,255.823 234.970,253.444 232.000 C 251.064 229.030,248.821 226.239,248.459 225.799 C 248.096 225.358,247.173 224.188,246.406 223.199 C 245.639 222.209,244.515 220.860,243.907 220.200 C 243.300 219.540,242.803 218.775,242.802 218.500 C 242.801 218.225,242.620 218.000,242.400 218.000 C 241.849 218.000,241.891 212.951,242.451 211.904 C 242.699 211.441,243.329 210.634,243.851 210.112 C 244.846 209.117,245.076 208.400,244.400 208.400 C 244.180 208.400,244.000 208.122,244.000 207.782 C 244.000 206.498,241.934 204.913,241.286 205.700 M97.804 289.196 C 97.174 289.854,96.735 290.456,96.829 290.534 C 96.923 290.612,97.513 290.074,98.139 289.338 C 99.554 287.677,99.345 287.588,97.804 289.196 M133.353 346.100 C 131.976 348.436,131.886 348.635,132.587 347.800 C 133.400 346.832,134.100 345.600,133.838 345.600 C 133.733 345.600,133.515 345.825,133.353 346.100 " stroke="none" fill="#eb647c" fill-rule="evenodd"></path><path id="path3" d="M189.600 13.270 C 180.183 14.831,175.115 16.723,167.000 21.709 C 166.560 21.979,166.110 22.291,166.000 22.402 C 165.890 22.514,165.170 23.078,164.400 23.657 C 161.258 26.018,161.355 25.817,160.981 30.800 C 160.145 41.937,160.913 54.619,162.280 52.244 C 162.727 51.469,165.570 49.934,166.032 50.220 C 166.242 50.349,166.292 50.651,166.145 50.889 C 165.991 51.137,166.061 51.209,166.307 51.057 C 166.607 50.872,166.547 50.120,166.109 48.583 C 165.111 45.073,166.718 41.585,170.000 40.141 C 170.550 39.899,171.810 39.337,172.800 38.892 C 173.790 38.447,175.230 37.866,176.000 37.601 C 176.770 37.336,177.760 36.972,178.200 36.793 C 178.640 36.614,179.450 36.351,180.000 36.210 C 180.550 36.068,182.350 35.598,184.000 35.164 C 195.408 32.166,209.272 32.656,221.000 36.472 C 223.564 37.306,223.961 37.460,226.896 38.760 C 227.938 39.222,228.955 39.600,229.156 39.600 C 231.171 39.600,233.592 44.715,232.810 47.323 C 232.554 48.178,232.402 48.905,232.472 48.939 C 232.543 48.973,233.050 49.256,233.600 49.570 C 234.150 49.883,235.275 50.502,236.100 50.944 C 236.925 51.386,237.600 51.895,237.600 52.074 C 237.600 52.253,237.837 52.400,238.128 52.400 C 238.971 52.400,239.807 39.185,239.240 34.810 C 238.998 32.946,238.800 30.278,238.800 28.882 C 238.800 27.370,238.598 26.151,238.300 25.870 C 231.399 19.338,222.042 15.164,209.954 13.225 C 206.807 12.720,192.730 12.751,189.600 13.270 M148.093 52.800 C 148.093 53.570,148.175 53.885,148.276 53.500 C 148.376 53.115,148.376 52.485,148.276 52.100 C 148.175 51.715,148.093 52.030,148.093 52.800 M191.953 140.276 C 191.927 140.454,191.913 140.696,191.923 140.812 C 191.933 140.929,185.017 150.274,176.553 161.580 C 168.089 172.885,160.996 182.419,160.790 182.767 C 160.459 183.326,160.368 183.330,160.013 182.800 C 159.669 182.285,159.611 182.300,159.606 182.900 C 159.603 183.285,159.780 183.600,160.000 183.600 C 160.220 183.600,160.400 183.855,160.400 184.167 C 160.400 184.478,160.578 184.793,160.797 184.867 C 161.015 184.940,161.234 185.491,161.283 186.090 C 161.332 186.690,161.623 187.277,161.928 187.394 C 162.233 187.511,162.380 187.875,162.254 188.203 C 161.329 190.615,163.985 188.161,167.779 183.100 C 170.129 179.965,172.266 177.130,172.528 176.800 C 172.790 176.470,176.235 171.880,180.184 166.600 C 184.133 161.320,187.471 156.910,187.602 156.800 C 187.732 156.690,188.271 155.970,188.800 155.200 C 189.329 154.430,189.869 153.710,190.000 153.600 C 190.131 153.490,190.671 152.770,191.200 152.000 C 191.729 151.230,192.269 150.510,192.401 150.400 C 192.533 150.290,193.262 149.300,194.021 148.200 C 194.779 147.100,195.535 146.140,195.700 146.067 C 196.229 145.831,196.020 144.115,195.400 143.600 C 195.070 143.326,194.800 142.887,194.800 142.623 C 194.800 141.883,192.049 139.616,191.953 140.276 M237.754 200.309 C 237.289 200.689,235.692 203.160,234.204 205.800 C 231.161 211.201,230.633 212.121,228.856 215.118 C 228.165 216.282,227.600 217.407,227.600 217.618 C 227.600 217.828,227.441 218.000,227.247 218.000 C 227.052 218.000,226.790 218.315,226.664 218.700 C 226.538 219.085,225.952 220.210,225.361 221.200 C 224.770 222.190,223.952 223.585,223.543 224.300 C 222.397 226.305,221.677 227.550,216.202 237.000 C 209.806 248.041,209.765 248.111,208.800 249.800 C 206.823 253.261,206.441 253.919,205.302 255.839 C 203.823 258.333,203.383 259.600,203.997 259.600 C 204.244 259.600,204.343 259.768,204.216 259.974 C 204.089 260.180,204.402 260.765,204.912 261.275 C 205.421 261.785,205.959 262.517,206.107 262.901 C 206.656 264.333,207.598 263.491,209.907 259.500 C 211.212 257.245,213.230 253.780,214.391 251.800 C 215.553 249.820,216.840 247.615,217.251 246.900 C 218.971 243.914,219.733 242.597,224.602 234.200 C 227.409 229.360,230.018 224.860,230.401 224.200 C 230.784 223.540,232.044 221.380,233.200 219.400 C 235.747 215.040,236.131 214.379,238.780 209.800 C 239.926 207.820,241.029 206.029,241.232 205.820 C 241.963 205.065,241.582 203.656,240.369 202.636 C 239.692 202.066,239.255 201.600,239.398 201.600 C 239.540 201.600,239.373 201.315,239.025 200.968 C 238.677 200.620,238.495 200.170,238.620 199.968 C 238.951 199.433,238.711 199.527,237.754 200.309 M211.300 265.476 C 211.685 265.576,212.315 265.576,212.700 265.476 C 213.085 265.375,212.770 265.293,212.000 265.293 C 211.230 265.293,210.915 265.375,211.300 265.476 " stroke="none" fill="#e94d64" fill-rule="evenodd"></path><path id="path4" d="M188.400 12.845 C 183.143 13.894,182.001 14.165,179.800 14.883 C 173.420 16.964,164.996 21.769,161.950 25.064 C 159.653 27.548,159.277 53.215,161.539 53.194 C 161.954 53.190,162.036 53.079,161.759 52.894 C 160.781 52.241,160.330 39.464,160.981 30.800 C 161.355 25.817,161.258 26.018,164.400 23.657 C 165.170 23.078,165.890 22.514,166.000 22.402 C 166.724 21.670,172.950 18.222,175.527 17.126 C 189.432 11.214,209.767 11.133,224.000 16.933 C 229.068 18.998,234.872 22.625,238.300 25.870 C 238.598 26.151,238.800 27.370,238.800 28.882 C 238.800 30.278,238.998 32.946,239.240 34.810 C 239.710 38.437,238.986 52.400,238.328 52.400 C 238.147 52.400,238.000 52.595,238.000 52.833 C 238.000 54.242,239.050 52.576,239.302 50.768 C 240.664 40.968,239.872 26.752,237.853 24.778 C 234.366 21.369,226.410 16.909,220.200 14.883 C 217.949 14.148,216.501 13.812,211.280 12.808 C 208.710 12.313,190.918 12.342,188.400 12.845 M191.000 33.786 C 186.727 34.380,181.105 35.710,178.200 36.815 C 177.760 36.982,176.770 37.336,176.000 37.601 C 175.230 37.866,173.790 38.447,172.800 38.892 C 171.810 39.337,170.551 39.904,170.003 40.151 C 166.757 41.613,165.181 44.784,166.000 48.202 C 166.287 49.395,166.667 50.282,166.845 50.172 C 167.024 50.062,166.996 49.516,166.785 48.960 C 165.352 45.191,166.834 42.473,171.600 40.125 C 183.687 34.172,199.937 32.155,213.000 34.985 C 217.686 36.001,223.685 37.859,226.696 39.229 C 227.628 39.653,228.547 40.000,228.736 40.000 C 230.658 40.000,232.529 43.842,232.243 47.200 L 232.021 49.800 232.644 47.765 C 233.577 44.716,231.391 39.600,229.156 39.600 C 228.955 39.600,227.938 39.222,226.896 38.760 C 223.961 37.460,223.564 37.306,221.000 36.472 C 211.725 33.454,200.566 32.455,191.000 33.786 M145.378 47.428 C 142.878 52.827,142.992 52.547,141.659 56.600 C 136.341 72.778,135.525 90.656,139.268 109.000 C 140.610 115.578,141.447 119.082,142.828 123.900 C 143.771 127.193,144.024 128.087,144.355 129.300 C 144.834 131.053,147.662 139.428,149.143 143.481 C 151.433 149.748,154.920 157.844,158.650 165.551 C 163.179 174.911,163.338 176.274,160.238 179.170 C 158.762 180.548,158.946 181.032,160.440 179.703 C 163.513 176.970,163.609 174.306,160.831 168.860 C 157.524 162.380,154.070 154.812,151.583 148.600 C 150.372 145.573,144.661 128.775,143.968 126.200 C 143.790 125.540,143.443 124.280,143.196 123.400 C 142.949 122.520,142.571 121.080,142.355 120.200 C 142.140 119.320,141.782 117.880,141.560 117.000 C 136.080 95.277,136.239 75.758,142.047 57.200 C 143.359 53.007,143.254 53.268,145.641 48.200 L 147.336 44.600 147.654 47.759 C 148.112 52.298,148.442 52.454,148.202 48.019 C 147.918 42.785,147.563 42.711,145.378 47.428 M252.213 43.980 C 252.084 44.188,251.899 45.853,251.803 47.680 C 251.685 49.897,251.740 50.602,251.966 49.800 C 252.153 49.140,252.327 47.619,252.353 46.420 C 252.382 45.046,252.540 44.381,252.779 44.620 C 253.751 45.594,257.488 54.904,258.793 59.600 C 259.068 60.590,259.433 61.850,259.604 62.400 C 259.906 63.373,260.406 65.817,261.179 70.100 C 262.283 76.220,262.472 79.423,262.269 88.600 C 262.072 97.497,261.817 100.561,260.835 105.800 C 260.629 106.900,260.342 108.610,260.198 109.600 C 260.054 110.590,259.790 111.850,259.611 112.400 C 259.432 112.950,259.067 114.480,258.800 115.800 C 258.533 117.120,258.175 118.650,258.004 119.200 C 257.833 119.750,257.498 120.920,257.259 121.800 C 254.509 131.957,249.895 145.517,247.151 151.508 C 246.518 152.889,246.000 154.100,246.000 154.198 C 246.000 154.373,244.905 156.858,242.914 161.200 C 241.047 165.270,233.233 180.976,231.769 183.600 C 230.970 185.030,229.641 187.460,228.814 189.000 C 227.988 190.540,224.653 196.390,221.404 202.000 C 215.198 212.717,214.493 213.937,213.200 216.200 C 211.702 218.822,210.904 220.198,208.793 223.800 C 206.934 226.972,201.924 235.632,199.998 239.000 C 199.621 239.660,198.747 241.153,198.056 242.318 C 197.365 243.482,196.800 244.497,196.800 244.573 C 196.800 244.649,195.339 247.116,193.552 250.056 C 191.766 252.995,188.459 258.460,186.204 262.200 C 180.297 271.995,178.778 274.474,177.992 275.600 C 177.608 276.150,176.936 277.230,176.499 278.000 C 175.281 280.145,166.432 294.382,165.141 296.272 C 164.514 297.192,164.000 298.055,164.000 298.190 C 164.000 298.325,163.100 299.770,162.000 301.400 C 160.900 303.030,160.000 304.470,160.000 304.600 C 160.000 304.730,159.145 306.138,158.100 307.729 C 157.055 309.321,156.020 310.928,155.800 311.302 C 155.580 311.675,154.050 314.090,152.400 316.668 C 150.750 319.246,149.333 321.522,149.251 321.725 C 149.169 321.928,147.864 323.963,146.351 326.246 C 144.838 328.530,143.600 330.484,143.600 330.590 C 143.600 330.695,142.205 332.901,140.500 335.491 C 138.795 338.081,136.680 341.360,135.800 342.777 C 134.920 344.194,132.625 347.753,130.700 350.685 C 128.775 353.618,127.200 356.094,127.200 356.188 C 127.200 356.281,124.452 360.552,121.093 365.679 C 117.734 370.806,114.367 376.034,113.610 377.297 C 112.853 378.561,112.103 379.461,111.942 379.297 C 111.782 379.134,105.170 362.722,97.249 342.826 L 82.848 306.653 84.924 304.226 C 86.066 302.892,87.180 301.600,87.400 301.355 C 89.039 299.532,101.199 285.306,106.000 279.596 C 106.990 278.419,109.878 275.013,112.418 272.028 C 114.958 269.042,118.610 264.710,120.533 262.400 C 122.456 260.090,124.717 257.390,125.557 256.400 C 126.908 254.809,136.782 242.844,140.735 238.008 C 141.541 237.023,143.106 235.133,144.213 233.808 C 145.321 232.484,147.300 230.050,148.612 228.400 C 149.924 226.750,151.099 225.310,151.223 225.200 C 151.348 225.090,154.830 220.770,158.962 215.600 C 163.093 210.430,166.772 205.839,167.137 205.399 C 167.502 204.958,168.425 203.788,169.190 202.799 C 169.954 201.809,170.679 200.910,170.800 200.800 C 171.033 200.589,173.488 197.331,193.105 171.200 C 199.795 162.290,205.513 154.694,205.814 154.319 C 207.430 152.304,221.610 130.797,221.957 129.835 C 222.043 129.596,222.427 128.950,222.810 128.400 C 223.193 127.850,223.868 126.770,224.311 126.000 C 224.753 125.230,226.407 122.350,227.985 119.600 C 230.815 114.669,237.902 100.682,239.338 97.193 C 239.744 96.207,240.314 94.860,240.604 94.200 C 241.117 93.036,242.493 89.495,244.025 85.400 C 245.045 82.671,247.606 74.065,247.573 73.477 C 247.537 72.851,247.009 74.152,246.386 76.400 C 245.747 78.703,243.661 85.155,243.218 86.200 C 243.031 86.640,242.469 88.080,241.970 89.400 C 239.413 96.161,232.847 110.174,229.600 115.800 C 229.092 116.680,228.166 118.359,227.543 119.532 C 226.920 120.704,226.047 122.172,225.605 122.793 C 225.162 123.415,224.800 124.007,224.800 124.109 C 224.800 124.830,209.686 148.543,208.807 149.200 C 208.660 149.310,207.762 150.570,206.810 152.000 C 205.183 154.446,200.861 160.362,200.381 160.800 C 200.260 160.910,199.729 161.630,199.200 162.400 C 198.671 163.170,198.135 163.890,198.008 164.000 C 197.882 164.110,192.113 171.759,185.189 180.999 C 175.350 194.128,147.720 229.354,146.440 230.400 C 146.306 230.510,145.704 231.259,145.104 232.065 C 144.503 232.871,143.781 233.771,143.499 234.065 C 143.216 234.359,141.819 236.040,140.393 237.800 C 138.967 239.560,137.699 241.090,137.576 241.200 C 137.454 241.310,136.107 242.930,134.583 244.800 C 133.060 246.670,131.718 248.290,131.601 248.400 C 131.420 248.570,129.345 251.082,127.200 253.728 C 126.870 254.134,126.265 254.857,125.855 255.334 C 125.446 255.810,124.456 257.007,123.655 257.994 C 122.855 258.980,121.728 260.330,121.150 260.994 C 120.573 261.657,117.902 264.810,115.214 268.000 C 112.526 271.190,109.559 274.700,108.619 275.800 C 107.679 276.900,104.709 280.410,102.018 283.600 C 99.327 286.790,96.737 289.850,96.263 290.400 C 95.788 290.950,94.410 292.565,93.200 293.987 C 91.990 295.410,90.439 297.210,89.752 297.987 C 82.860 305.792,82.444 306.360,82.783 307.496 C 83.066 308.446,88.168 321.510,89.150 323.800 C 89.339 324.240,89.673 325.050,89.893 325.600 C 90.113 326.150,90.497 327.095,90.746 327.700 C 90.996 328.305,91.380 329.250,91.600 329.800 C 91.820 330.350,92.180 331.250,92.400 331.800 C 93.379 334.247,93.716 335.045,94.047 335.695 C 94.241 336.077,94.400 336.574,94.400 336.799 C 94.400 337.024,94.744 337.972,95.164 338.904 C 95.584 339.837,98.479 347.080,101.597 355.000 C 104.715 362.920,107.522 369.923,107.833 370.561 C 108.145 371.200,108.400 371.877,108.400 372.066 C 108.400 372.254,108.738 373.172,109.152 374.104 C 109.566 375.037,110.254 376.700,110.682 377.800 C 111.110 378.900,111.670 379.800,111.928 379.800 C 112.300 379.800,123.600 363.150,123.600 362.602 C 123.600 362.522,125.895 358.929,128.700 354.619 C 131.505 350.309,135.240 344.513,137.000 341.739 C 138.760 338.965,141.264 335.054,142.566 333.048 C 146.239 327.384,153.213 316.351,154.082 314.831 C 154.512 314.078,155.569 312.423,156.432 311.153 C 157.294 309.883,158.000 308.654,158.000 308.422 C 158.000 308.190,158.135 307.999,158.300 307.997 C 158.465 307.995,158.798 307.590,159.039 307.097 C 159.281 306.604,161.239 303.410,163.391 300.000 C 165.542 296.590,167.971 292.720,168.787 291.400 C 169.603 290.080,171.227 287.470,172.396 285.600 C 173.564 283.730,174.719 281.840,174.962 281.400 C 175.556 280.325,182.958 268.336,184.652 265.706 C 185.393 264.555,186.000 263.507,186.000 263.378 C 186.000 263.249,186.540 262.359,187.200 261.400 C 187.860 260.441,188.400 259.541,188.400 259.400 C 188.400 259.259,188.940 258.359,189.600 257.400 C 190.260 256.441,190.800 255.463,190.800 255.228 C 190.800 254.993,190.980 254.800,191.200 254.800 C 191.420 254.800,191.600 254.603,191.600 254.362 C 191.600 254.121,191.956 253.423,192.391 252.812 C 193.084 251.840,200.010 239.983,205.600 230.200 C 207.076 227.616,207.873 226.239,212.998 217.400 C 218.497 207.916,219.177 206.740,220.400 204.600 C 220.840 203.830,221.560 202.570,222.000 201.800 C 223.310 199.508,224.185 197.993,226.391 194.200 C 232.054 184.463,239.794 169.356,244.321 159.200 C 246.484 154.349,250.005 145.878,250.971 143.200 C 252.443 139.121,255.209 130.894,255.645 129.300 C 256.107 127.608,256.756 125.306,257.195 123.800 C 258.770 118.396,260.308 111.644,261.385 105.400 C 263.034 95.844,263.523 82.096,262.467 75.000 C 261.145 66.123,258.933 57.196,256.818 52.200 C 253.363 44.038,252.799 43.031,252.213 43.980 M251.020 54.118 C 250.845 55.613,250.800 56.933,250.918 57.052 C 251.211 57.344,251.722 53.095,251.508 52.153 C 251.413 51.739,251.194 52.623,251.020 54.118 M148.486 53.800 C 148.483 54.900,148.624 56.250,148.800 56.800 C 149.260 58.236,149.278 55.599,148.823 53.400 L 148.492 51.800 148.486 53.800 M250.211 59.275 C 250.049 60.306,250.002 61.386,250.106 61.675 C 250.210 61.964,250.427 61.356,250.589 60.325 C 250.751 59.294,250.798 58.214,250.694 57.925 C 250.590 57.636,250.373 58.244,250.211 59.275 M149.241 58.800 C 149.129 62.348,154.330 82.180,157.161 89.000 C 157.344 89.440,157.721 90.340,158.000 91.000 C 158.279 91.660,158.640 92.560,158.803 93.000 C 159.418 94.664,162.455 101.294,164.849 106.200 C 166.989 110.587,170.933 118.094,171.822 119.474 C 172.132 119.955,172.748 120.990,173.192 121.774 C 183.510 139.988,185.193 141.901,190.042 140.932 C 191.974 140.545,193.728 139.606,192.524 139.602 C 192.042 139.601,191.536 139.780,191.400 140.000 C 190.930 140.760,186.422 140.470,185.202 139.601 C 183.936 138.700,177.106 127.941,172.378 119.400 C 171.769 118.300,170.620 116.230,169.825 114.800 C 167.819 111.191,162.304 99.941,161.002 96.800 C 160.409 95.370,159.653 93.570,159.321 92.800 C 157.572 88.737,155.058 81.510,153.615 76.400 C 153.336 75.410,152.965 74.150,152.792 73.600 C 152.618 73.050,152.269 71.700,152.015 70.600 C 151.761 69.500,151.401 67.970,151.216 67.200 C 151.030 66.430,150.656 64.540,150.385 63.000 C 149.662 58.902,149.281 57.504,149.241 58.800 M249.419 63.927 C 249.255 64.877,249.217 65.750,249.334 65.868 C 249.626 66.159,250.126 63.373,249.900 62.721 C 249.800 62.435,249.584 62.977,249.419 63.927 M248.578 67.778 C 248.427 68.581,248.404 69.337,248.526 69.460 C 248.648 69.582,248.872 69.025,249.022 68.222 C 249.173 67.419,249.196 66.663,249.074 66.540 C 248.952 66.418,248.728 66.975,248.578 67.778 M247.888 70.533 C 247.730 70.936,247.611 71.656,247.625 72.133 C 247.649 72.956,247.671 72.950,248.040 72.025 C 248.254 71.489,248.373 70.769,248.303 70.425 C 248.199 69.911,248.125 69.930,247.888 70.533 M196.000 144.967 C 196.000 145.498,195.865 145.993,195.700 146.067 C 195.535 146.140,194.779 147.100,194.021 148.200 C 193.262 149.300,192.533 150.290,192.401 150.400 C 192.269 150.510,191.729 151.230,191.200 152.000 C 190.671 152.770,190.131 153.490,190.000 153.600 C 189.869 153.710,189.329 154.430,188.800 155.200 C 188.271 155.970,187.732 156.690,187.602 156.800 C 187.471 156.910,184.133 161.320,180.184 166.600 C 176.235 171.880,172.791 176.470,172.531 176.800 C 172.271 177.130,170.316 179.740,168.186 182.600 C 166.057 185.460,163.954 188.115,163.513 188.500 C 162.900 189.035,162.853 189.200,163.314 189.200 C 163.645 189.200,165.417 187.175,167.251 184.700 C 169.085 182.225,170.688 180.110,170.812 180.000 C 170.937 179.890,171.471 179.170,172.000 178.400 C 172.529 177.630,173.068 176.910,173.199 176.800 C 176.366 174.131,197.496 144.000,196.200 144.000 C 196.090 144.000,196.000 144.435,196.000 144.967 M237.352 199.906 C 236.924 200.186,232.000 208.255,232.000 208.675 C 232.000 208.786,231.667 209.354,231.261 209.938 C 230.855 210.522,229.979 211.990,229.315 213.200 C 228.651 214.410,227.158 217.020,225.997 219.000 C 224.836 220.980,222.538 224.940,220.892 227.800 C 216.634 235.194,216.642 235.181,215.256 237.518 C 214.565 238.682,214.000 239.699,214.000 239.777 C 214.000 239.855,213.263 241.131,212.363 242.612 C 211.463 244.094,210.383 245.913,209.963 246.653 C 208.863 248.595,207.984 250.117,205.493 254.400 C 204.277 256.490,203.371 258.345,203.479 258.523 C 203.587 258.701,204.036 258.161,204.476 257.323 C 204.916 256.485,205.525 255.406,205.830 254.926 C 206.135 254.445,206.748 253.410,207.192 252.626 C 209.101 249.255,208.994 249.442,216.202 237.000 C 221.677 227.550,222.397 226.305,223.543 224.300 C 223.952 223.585,224.770 222.190,225.361 221.200 C 225.952 220.210,226.538 219.085,226.664 218.700 C 226.790 218.315,227.052 218.000,227.247 218.000 C 227.441 218.000,227.600 217.828,227.600 217.618 C 227.600 217.407,228.165 216.282,228.856 215.118 C 230.633 212.121,231.161 211.201,234.204 205.800 C 235.692 203.160,237.289 200.689,237.754 200.309 C 238.576 199.638,238.253 199.315,237.352 199.906 M243.300 210.975 C 240.957 214.045,241.562 217.620,245.066 221.400 C 245.474 221.840,246.431 223.010,247.193 224.000 C 247.956 224.990,248.676 225.890,248.793 226.000 C 248.911 226.110,251.154 228.900,253.777 232.200 C 256.400 235.500,258.650 238.290,258.778 238.400 C 258.906 238.510,259.819 239.587,260.805 240.794 C 262.863 243.309,262.362 242.700,269.033 250.800 C 271.841 254.210,274.245 257.090,274.375 257.200 C 274.505 257.310,275.416 258.390,276.400 259.600 C 277.384 260.810,278.283 261.890,278.398 262.000 C 278.513 262.110,280.337 264.270,282.453 266.800 C 288.814 274.408,292.348 278.565,293.808 280.156 C 294.032 280.400,297.088 283.930,300.600 288.000 C 304.112 292.070,307.168 295.600,307.392 295.844 C 308.726 297.298,310.927 299.783,313.200 302.403 C 314.630 304.051,316.025 305.637,316.300 305.928 C 317.018 306.687,316.732 307.788,314.310 313.600 C 314.081 314.150,313.737 315.005,313.546 315.500 C 313.356 315.995,313.020 316.850,312.800 317.400 C 312.580 317.950,312.220 318.850,312.000 319.400 C 311.780 319.950,311.396 320.895,311.146 321.500 C 310.897 322.105,310.537 323.005,310.346 323.500 C 309.905 324.646,309.324 326.100,308.746 327.500 C 308.497 328.105,308.137 329.005,307.946 329.500 C 307.756 329.995,307.420 330.850,307.200 331.400 C 306.980 331.950,306.620 332.850,306.400 333.400 C 306.180 333.950,305.820 334.850,305.600 335.400 C 304.917 337.107,304.574 337.973,301.400 346.000 C 299.704 350.290,298.155 354.205,297.958 354.700 C 297.761 355.195,297.444 356.005,297.254 356.500 C 296.812 357.646,296.231 359.100,295.654 360.500 C 295.404 361.105,295.020 362.050,294.800 362.600 C 294.580 363.150,294.220 364.050,294.000 364.600 C 293.780 365.150,293.420 366.050,293.200 366.600 C 292.980 367.150,292.596 368.095,292.346 368.700 C 291.769 370.100,291.188 371.554,290.746 372.700 C 290.556 373.195,290.244 374.005,290.054 374.500 C 287.809 380.330,288.604 380.679,282.287 371.088 C 279.212 366.420,276.510 362.195,276.284 361.700 C 276.057 361.205,275.720 360.800,275.536 360.800 C 275.351 360.800,275.200 360.564,275.200 360.275 C 275.200 359.987,274.840 359.364,274.400 358.892 C 273.960 358.420,273.600 357.934,273.600 357.813 C 273.600 357.692,272.449 355.840,271.042 353.697 C 264.675 343.998,258.000 333.487,258.000 333.159 C 258.000 332.962,257.820 332.800,257.600 332.800 C 257.380 332.800,257.200 332.618,257.200 332.396 C 257.200 332.174,256.232 330.509,255.049 328.696 C 253.867 326.883,251.326 322.880,249.404 319.800 C 247.481 316.720,244.939 312.717,243.754 310.904 C 242.569 309.091,241.600 307.426,241.600 307.204 C 241.600 306.982,241.420 306.800,241.200 306.800 C 240.980 306.800,240.800 306.618,240.800 306.395 C 240.800 306.173,240.013 304.778,239.052 303.295 C 238.090 301.813,235.366 297.450,232.997 293.600 C 230.629 289.750,228.260 285.920,227.733 285.088 C 227.205 284.257,226.443 282.997,226.040 282.288 C 225.637 281.580,224.359 279.470,223.200 277.600 C 222.041 275.730,220.767 273.627,220.369 272.927 C 216.409 265.970,213.837 264.446,209.000 266.188 C 207.041 266.894,207.649 266.959,210.359 266.334 C 215.138 265.231,215.355 265.456,224.903 281.400 C 226.221 283.600,227.615 285.850,228.002 286.400 C 228.390 286.950,229.064 288.030,229.501 288.800 C 230.659 290.840,239.457 305.001,241.260 307.728 C 242.107 309.009,242.800 310.144,242.800 310.250 C 242.800 310.357,243.506 311.483,244.368 312.753 C 245.231 314.023,246.288 315.678,246.718 316.431 C 247.767 318.267,255.807 330.969,257.252 333.072 C 257.883 333.992,258.400 334.838,258.400 334.953 C 258.400 335.068,260.335 338.128,262.700 341.754 C 265.065 345.379,269.520 352.255,272.600 357.033 C 282.380 372.207,287.581 380.000,287.928 380.000 C 288.252 380.000,288.926 378.789,289.654 376.900 C 289.844 376.405,290.180 375.550,290.400 375.000 C 290.620 374.450,290.980 373.550,291.200 373.000 C 291.420 372.450,291.780 371.550,292.000 371.000 C 292.220 370.450,292.562 369.595,292.759 369.100 C 292.957 368.605,293.382 367.570,293.703 366.800 C 294.025 366.030,296.130 360.720,298.380 355.000 C 300.631 349.280,302.636 344.195,302.836 343.700 C 303.036 343.205,303.380 342.350,303.600 341.800 C 303.820 341.250,304.180 340.350,304.400 339.800 C 304.620 339.250,305.004 338.305,305.254 337.700 C 305.503 337.095,305.863 336.195,306.054 335.700 C 306.244 335.205,306.580 334.350,306.800 333.800 C 307.020 333.250,307.356 332.395,307.546 331.900 C 307.737 331.405,308.097 330.505,308.346 329.900 C 309.125 328.012,309.470 327.143,313.393 317.200 C 315.086 312.910,316.635 309.087,316.835 308.705 C 317.817 306.837,317.458 306.313,307.843 295.600 C 307.152 294.830,303.172 290.240,298.998 285.400 C 294.824 280.560,291.016 276.150,290.537 275.600 C 289.149 274.009,279.694 262.838,277.503 260.200 C 276.407 258.880,275.124 257.350,274.652 256.800 C 273.414 255.356,266.048 246.458,264.400 244.415 C 261.515 240.839,255.080 232.963,254.255 232.000 C 253.785 231.450,252.775 230.190,252.010 229.200 C 251.246 228.210,250.525 227.310,250.408 227.200 C 249.724 226.558,243.897 219.051,243.217 217.935 C 241.854 215.699,242.548 211.589,244.499 210.346 C 244.718 210.207,244.831 209.908,244.749 209.682 C 244.667 209.457,244.015 210.038,243.300 210.975 " stroke="none" fill="#9d3a4c" fill-rule="evenodd"></path></g></svg>