<svg id="svg" version="1.1" xmlns="http://www.w3.org/2000/svg" xmlns:xlink="http://www.w3.org/1999/xlink" width="400" height="400" viewBox="0, 0, 400,400"><g id="svgg"><path id="path0" d="M16.200 12.482 C 15.101 13.110,13.028 15.215,12.465 16.274 C 11.858 17.415,11.795 60.626,12.400 61.000 C 12.620 61.136,12.800 62.756,12.800 64.600 C 12.800 66.444,12.980 68.064,13.200 68.200 C 13.420 68.336,13.600 69.596,13.600 71.000 C 13.600 72.404,13.780 73.664,14.000 73.800 C 14.220 73.936,14.400 75.027,14.400 76.224 C 14.400 77.421,14.580 78.400,14.800 78.400 C 15.020 78.400,15.200 79.300,15.200 80.400 C 15.200 81.500,15.380 82.400,15.600 82.400 C 15.820 82.400,16.000 83.199,16.000 84.176 C 16.000 85.153,16.180 86.064,16.400 86.200 C 16.620 86.336,16.800 87.056,16.800 87.800 C 16.800 88.544,16.980 89.264,17.200 89.400 C 17.420 89.536,17.600 90.267,17.600 91.024 C 17.600 91.781,17.780 92.400,18.000 92.400 C 18.220 92.400,18.400 93.120,18.400 94.000 C 18.400 94.880,18.580 95.600,18.800 95.600 C 19.020 95.600,19.200 96.140,19.200 96.800 C 19.200 97.460,19.380 98.000,19.600 98.000 C 19.820 98.000,20.000 98.540,20.000 99.200 C 20.000 99.860,20.180 100.400,20.400 100.400 C 20.620 100.400,20.800 101.030,20.800 101.800 C 20.800 102.570,20.980 103.200,21.200 103.200 C 21.420 103.200,21.600 103.650,21.600 104.200 C 21.600 104.750,21.780 105.200,22.000 105.200 C 22.220 105.200,22.400 105.639,22.400 106.176 C 22.400 106.713,22.580 107.264,22.800 107.400 C 23.020 107.536,23.200 108.087,23.200 108.624 C 23.200 109.161,23.380 109.600,23.600 109.600 C 23.820 109.600,24.000 110.140,24.000 110.800 C 24.000 111.460,24.137 112.000,24.305 112.000 C 24.473 112.000,24.946 113.174,25.357 114.609 C 25.768 116.043,26.261 117.314,26.452 117.432 C 26.643 117.550,26.800 117.997,26.800 118.424 C 26.800 118.851,26.980 119.200,27.200 119.200 C 27.420 119.200,27.600 119.472,27.600 119.805 C 27.600 120.138,27.768 120.723,27.974 121.105 C 28.179 121.487,28.583 122.385,28.871 123.100 C 29.160 123.815,29.531 124.400,29.698 124.400 C 29.864 124.400,30.000 124.760,30.000 125.200 C 30.000 125.640,30.180 126.000,30.400 126.000 C 30.620 126.000,30.800 126.360,30.800 126.800 C 30.800 127.240,30.980 127.600,31.200 127.600 C 31.420 127.600,31.600 127.960,31.600 128.400 C 31.600 128.840,31.780 129.200,32.000 129.200 C 32.220 129.200,32.400 129.560,32.400 130.000 C 32.400 130.440,32.580 130.800,32.800 130.800 C 33.020 130.800,33.200 131.160,33.200 131.600 C 33.200 132.040,33.380 132.400,33.600 132.400 C 33.820 132.400,34.000 132.760,34.000 133.200 C 34.000 133.640,34.180 134.000,34.400 134.000 C 34.620 134.000,34.800 134.236,34.800 134.525 C 34.800 134.813,35.160 135.436,35.600 135.908 C 36.040 136.380,36.400 137.044,36.400 137.383 C 36.400 137.722,36.536 138.000,36.702 138.000 C 36.869 138.000,37.229 138.506,37.503 139.125 C 37.776 139.744,38.360 140.636,38.800 141.108 C 39.240 141.580,39.600 142.204,39.600 142.495 C 39.600 142.786,39.960 143.283,40.400 143.600 C 40.840 143.917,41.200 144.497,41.200 144.888 C 41.200 145.280,41.362 145.600,41.561 145.600 C 41.759 145.600,42.111 146.095,42.342 146.700 C 42.922 148.221,44.065 150.073,44.900 150.846 C 45.285 151.202,45.600 151.653,45.601 151.847 C 45.601 152.041,46.141 152.830,46.800 153.600 C 47.459 154.370,47.999 155.185,47.999 155.412 C 48.000 155.638,48.360 156.083,48.800 156.400 C 49.240 156.717,49.600 157.135,49.600 157.328 C 49.600 157.521,50.140 158.183,50.800 158.800 C 51.460 159.417,52.000 160.101,52.000 160.320 C 52.000 160.539,52.900 161.638,54.000 162.761 C 55.100 163.885,56.000 164.989,56.000 165.215 C 56.000 165.442,56.585 166.230,57.300 166.968 C 58.015 167.706,59.766 169.614,61.192 171.208 C 64.928 175.385,69.167 179.626,70.904 180.924 C 71.732 181.542,73.639 183.252,75.143 184.724 C 78.581 188.089,81.348 190.438,82.729 191.161 C 83.318 191.470,84.091 192.055,84.447 192.461 C 84.803 192.868,85.271 193.200,85.488 193.200 C 85.704 193.200,86.446 193.740,87.137 194.400 C 87.828 195.060,88.548 195.600,88.737 195.600 C 88.926 195.600,89.646 196.140,90.337 196.800 C 91.028 197.460,91.746 198.000,91.934 198.000 C 92.122 198.000,92.602 198.360,93.000 198.800 C 93.398 199.240,93.966 199.600,94.262 199.600 C 94.558 199.600,94.800 199.750,94.800 199.932 C 94.800 200.115,95.295 200.520,95.900 200.832 C 96.505 201.145,97.349 201.715,97.775 202.100 C 98.202 202.485,98.787 202.800,99.075 202.800 C 99.364 202.800,99.600 202.958,99.600 203.151 C 99.600 203.345,100.140 203.727,100.800 204.000 C 101.460 204.273,102.000 204.655,102.000 204.849 C 102.000 205.042,102.360 205.200,102.800 205.200 C 103.240 205.200,103.600 205.339,103.600 205.508 C 103.600 205.678,104.995 206.529,106.700 207.400 C 108.405 208.271,109.860 209.122,109.933 209.292 C 110.007 209.461,110.322 209.600,110.633 209.600 C 110.945 209.600,111.200 209.780,111.200 210.000 C 111.200 210.220,111.560 210.400,112.000 210.400 C 112.440 210.400,112.800 210.580,112.800 210.800 C 112.800 211.020,113.160 211.200,113.600 211.200 C 114.040 211.200,114.400 211.380,114.400 211.600 C 114.400 211.820,114.760 212.000,115.200 212.000 C 115.640 212.000,116.000 212.180,116.000 212.400 C 116.000 212.620,116.360 212.800,116.800 212.800 C 117.240 212.800,117.600 212.980,117.600 213.200 C 117.600 213.420,117.960 213.600,118.400 213.600 C 118.840 213.600,119.200 213.780,119.200 214.000 C 119.200 214.220,119.560 214.400,120.000 214.400 C 120.440 214.400,120.800 214.580,120.800 214.800 C 120.800 215.020,121.239 215.200,121.776 215.200 C 122.313 215.200,122.864 215.380,123.000 215.600 C 123.136 215.820,123.597 216.000,124.024 216.000 C 124.451 216.000,124.800 216.180,124.800 216.400 C 124.800 216.620,125.160 216.800,125.600 216.800 C 126.040 216.800,126.400 216.980,126.400 217.200 C 126.400 217.420,126.850 217.600,127.400 217.600 C 127.950 217.600,128.400 217.780,128.400 218.000 C 128.400 218.220,128.760 218.400,129.200 218.400 C 129.640 218.400,130.000 218.580,130.000 218.800 C 130.000 219.020,130.362 219.200,130.805 219.200 C 131.248 219.200,131.968 219.380,132.405 219.600 C 132.842 219.820,133.558 220.180,133.995 220.400 C 134.432 220.620,135.074 220.800,135.423 220.800 C 136.972 220.800,137.200 221.718,137.200 227.971 C 137.200 231.724,137.351 234.000,137.600 234.000 C 137.820 234.000,138.000 234.900,138.000 236.000 C 138.000 237.100,138.180 238.000,138.400 238.000 C 138.620 238.000,138.800 238.630,138.800 239.400 C 138.800 240.170,138.980 240.800,139.200 240.800 C 139.420 240.800,139.600 241.340,139.600 242.000 C 139.600 242.660,139.780 243.200,140.000 243.200 C 140.220 243.200,140.400 243.740,140.400 244.400 C 140.400 245.060,140.580 245.600,140.800 245.600 C 141.020 245.600,141.200 246.140,141.200 246.800 C 141.200 247.460,141.380 248.000,141.600 248.000 C 141.820 248.000,142.000 248.304,142.000 248.676 C 142.000 249.577,145.599 256.800,146.048 256.800 C 146.242 256.800,146.400 257.070,146.400 257.400 C 146.400 257.730,146.568 258.000,146.773 258.000 C 146.978 258.000,147.262 258.366,147.404 258.813 C 147.546 259.260,148.098 260.062,148.631 260.595 C 149.164 261.128,149.600 261.737,149.600 261.949 C 149.600 262.990,162.475 275.200,163.573 275.200 C 163.808 275.200,164.000 275.380,164.000 275.600 C 164.000 275.820,164.270 276.000,164.600 276.000 C 164.930 276.000,165.200 276.180,165.200 276.400 C 165.200 276.620,165.520 276.800,165.912 276.800 C 166.303 276.800,166.883 277.160,167.200 277.600 C 167.517 278.040,168.097 278.400,168.488 278.400 C 168.880 278.400,169.200 278.580,169.200 278.800 C 169.200 279.020,169.560 279.200,170.000 279.200 C 170.440 279.200,170.800 279.380,170.800 279.600 C 170.800 279.820,171.160 280.000,171.600 280.000 C 172.040 280.000,172.400 280.180,172.400 280.400 C 172.400 280.620,172.760 280.800,173.200 280.800 C 173.640 280.800,174.000 280.980,174.000 281.200 C 174.000 281.420,174.360 281.600,174.800 281.600 C 175.240 281.600,175.600 281.780,175.600 282.000 C 175.600 282.220,176.050 282.400,176.600 282.400 C 177.150 282.400,177.600 282.580,177.600 282.800 C 177.600 283.020,178.140 283.200,178.800 283.200 C 179.460 283.200,180.000 283.380,180.000 283.600 C 180.000 283.820,180.540 284.000,181.200 284.000 C 181.860 284.000,182.400 284.180,182.400 284.400 C 182.400 284.620,183.120 284.800,184.000 284.800 C 184.880 284.800,185.600 284.980,185.600 285.200 C 185.600 285.420,186.489 285.600,187.576 285.600 C 188.663 285.600,189.664 285.780,189.800 286.000 C 189.954 286.249,193.796 286.400,200.000 286.400 C 206.204 286.400,210.046 286.249,210.200 286.000 C 210.336 285.780,211.337 285.600,212.424 285.600 C 213.511 285.600,214.400 285.420,214.400 285.200 C 214.400 284.980,215.120 284.800,216.000 284.800 C 216.880 284.800,217.600 284.620,217.600 284.400 C 217.600 284.180,218.140 284.000,218.800 284.000 C 219.460 284.000,220.000 283.820,220.000 283.600 C 220.000 283.380,220.540 283.200,221.200 283.200 C 221.860 283.200,222.400 283.020,222.400 282.800 C 222.400 282.580,222.850 282.400,223.400 282.400 C 223.950 282.400,224.400 282.220,224.400 282.000 C 224.400 281.780,224.760 281.600,225.200 281.600 C 225.640 281.600,226.000 281.420,226.000 281.200 C 226.000 280.980,226.360 280.800,226.800 280.800 C 227.240 280.800,227.600 280.620,227.600 280.400 C 227.600 280.180,227.960 280.000,228.400 280.000 C 228.840 280.000,229.200 279.820,229.200 279.600 C 229.200 279.380,229.560 279.200,230.000 279.200 C 230.440 279.200,230.800 279.020,230.800 278.800 C 230.800 278.580,231.120 278.400,231.512 278.400 C 231.903 278.400,232.483 278.040,232.800 277.600 C 233.117 277.160,233.697 276.800,234.088 276.800 C 234.480 276.800,234.800 276.650,234.800 276.468 C 234.800 276.285,235.295 275.883,235.900 275.576 C 236.505 275.268,237.630 274.569,238.400 274.023 C 240.130 272.795,250.400 262.452,250.400 261.938 C 250.400 261.732,250.836 261.128,251.369 260.595 C 251.902 260.062,252.454 259.260,252.596 258.813 C 252.738 258.366,253.022 258.000,253.227 258.000 C 253.432 258.000,253.600 257.730,253.600 257.400 C 253.600 257.070,253.780 256.800,254.000 256.800 C 254.220 256.800,254.400 256.545,254.400 256.233 C 254.400 255.922,254.541 255.607,254.714 255.533 C 255.181 255.335,258.000 249.447,258.000 248.670 C 258.000 248.302,258.180 248.000,258.400 248.000 C 258.620 248.000,258.800 247.460,258.800 246.800 C 258.800 246.140,258.980 245.600,259.200 245.600 C 259.420 245.600,259.600 245.060,259.600 244.400 C 259.600 243.740,259.780 243.200,260.000 243.200 C 260.220 243.200,260.400 242.660,260.400 242.000 C 260.400 241.340,260.580 240.800,260.800 240.800 C 261.020 240.800,261.200 240.170,261.200 239.400 C 261.200 238.630,261.380 238.000,261.600 238.000 C 261.820 238.000,262.000 237.100,262.000 236.000 C 262.000 234.900,262.180 234.000,262.400 234.000 C 262.649 234.000,262.800 231.724,262.800 227.971 C 262.800 221.718,263.028 220.800,264.577 220.800 C 264.926 220.800,265.568 220.620,266.005 220.400 C 266.442 220.180,267.158 219.820,267.595 219.600 C 268.032 219.380,268.752 219.200,269.195 219.200 C 269.638 219.200,270.000 219.020,270.000 218.800 C 270.000 218.580,270.360 218.400,270.800 218.400 C 271.240 218.400,271.600 218.220,271.600 218.000 C 271.600 217.780,272.050 217.600,272.600 217.600 C 273.150 217.600,273.600 217.420,273.600 217.200 C 273.600 216.980,273.960 216.800,274.400 216.800 C 274.840 216.800,275.200 216.620,275.200 216.400 C 275.200 216.180,275.549 216.000,275.976 216.000 C 276.403 216.000,276.864 215.820,277.000 215.600 C 277.136 215.380,277.687 215.200,278.224 215.200 C 278.761 215.200,279.200 215.020,279.200 214.800 C 279.200 214.580,279.560 214.400,280.000 214.400 C 280.440 214.400,280.800 214.220,280.800 214.000 C 280.800 213.780,281.160 213.600,281.600 213.600 C 282.040 213.600,282.400 213.420,282.400 213.200 C 282.400 212.980,282.760 212.800,283.200 212.800 C 283.640 212.800,284.000 212.620,284.000 212.400 C 284.000 212.180,284.360 212.000,284.800 212.000 C 285.240 212.000,285.600 211.820,285.600 211.600 C 285.600 211.380,285.960 211.200,286.400 211.200 C 286.840 211.200,287.200 211.020,287.200 210.800 C 287.200 210.580,287.560 210.400,288.000 210.400 C 288.440 210.400,288.800 210.220,288.800 210.000 C 288.800 209.780,289.055 209.600,289.367 209.600 C 289.678 209.600,289.993 209.461,290.067 209.292 C 290.140 209.122,291.595 208.271,293.300 207.400 C 295.005 206.529,296.400 205.678,296.400 205.508 C 296.400 205.339,296.760 205.200,297.200 205.200 C 297.640 205.200,298.000 205.020,298.000 204.800 C 298.000 204.580,298.236 204.400,298.525 204.400 C 298.813 204.400,299.436 204.040,299.908 203.600 C 300.380 203.160,301.004 202.800,301.295 202.800 C 301.586 202.800,302.083 202.440,302.400 202.000 C 302.717 201.560,303.173 201.200,303.413 201.200 C 303.653 201.200,304.198 200.885,304.625 200.500 C 305.051 200.115,305.895 199.545,306.500 199.232 C 307.105 198.920,307.600 198.515,307.600 198.332 C 307.600 198.150,307.830 198.000,308.112 198.000 C 308.393 198.000,308.883 197.640,309.200 197.200 C 309.517 196.760,309.980 196.400,310.229 196.400 C 310.478 196.400,311.246 195.860,311.937 195.200 C 312.628 194.540,313.348 194.000,313.537 194.000 C 313.726 194.000,314.431 193.475,315.103 192.833 C 315.775 192.190,316.779 191.425,317.333 191.133 C 318.722 190.399,321.539 187.977,325.277 184.300 C 327.010 182.595,328.584 181.200,328.774 181.200 C 329.211 181.200,335.830 174.610,339.000 171.019 C 340.320 169.524,341.985 167.699,342.700 166.964 C 343.415 166.228,344.000 165.442,344.000 165.215 C 344.000 164.989,344.900 163.885,346.000 162.761 C 347.100 161.638,348.000 160.539,348.000 160.320 C 348.000 160.101,348.540 159.417,349.200 158.800 C 349.860 158.183,350.400 157.521,350.400 157.328 C 350.400 157.135,350.760 156.717,351.200 156.400 C 351.640 156.083,352.000 155.593,352.000 155.312 C 352.000 155.030,352.180 154.800,352.400 154.800 C 352.620 154.800,352.800 154.530,352.800 154.200 C 352.800 153.870,352.950 153.600,353.132 153.600 C 353.315 153.600,353.719 153.105,354.030 152.500 C 354.340 151.895,354.866 151.130,355.197 150.799 C 355.967 150.031,357.119 148.113,357.658 146.700 C 357.889 146.095,358.241 145.600,358.439 145.600 C 358.638 145.600,358.800 145.280,358.800 144.888 C 358.800 144.497,359.160 143.917,359.600 143.600 C 360.040 143.283,360.400 142.703,360.400 142.312 C 360.400 141.920,360.580 141.600,360.800 141.600 C 361.020 141.600,361.200 141.412,361.200 141.183 C 361.200 140.954,361.560 140.380,362.000 139.908 C 362.440 139.436,362.800 138.813,362.800 138.525 C 362.800 138.236,362.980 138.000,363.200 138.000 C 363.420 138.000,363.600 137.640,363.600 137.200 C 363.600 136.760,363.780 136.400,364.000 136.400 C 364.220 136.400,364.400 136.130,364.400 135.800 C 364.400 135.470,364.580 135.200,364.800 135.200 C 365.020 135.200,365.200 134.930,365.200 134.600 C 365.200 134.270,365.380 134.000,365.600 134.000 C 365.820 134.000,366.000 133.640,366.000 133.200 C 366.000 132.760,366.180 132.400,366.400 132.400 C 366.620 132.400,366.800 132.040,366.800 131.600 C 366.800 131.160,366.980 130.800,367.200 130.800 C 367.420 130.800,367.600 130.440,367.600 130.000 C 367.600 129.560,367.780 129.200,368.000 129.200 C 368.220 129.200,368.400 128.840,368.400 128.400 C 368.400 127.960,368.580 127.600,368.800 127.600 C 369.020 127.600,369.200 127.240,369.200 126.800 C 369.200 126.360,369.380 126.000,369.600 126.000 C 369.820 126.000,370.000 125.640,370.000 125.200 C 370.000 124.760,370.180 124.400,370.400 124.400 C 370.620 124.400,370.800 124.040,370.800 123.600 C 370.800 123.160,370.980 122.800,371.200 122.800 C 371.420 122.800,371.600 122.451,371.600 122.024 C 371.600 121.597,371.780 121.136,372.000 121.000 C 372.220 120.864,372.400 120.403,372.400 119.976 C 372.400 119.549,372.580 119.200,372.800 119.200 C 373.020 119.200,373.200 118.851,373.200 118.424 C 373.200 117.997,373.357 117.550,373.548 117.432 C 373.739 117.314,374.232 116.043,374.643 114.609 C 375.054 113.174,375.527 112.000,375.695 112.000 C 375.863 112.000,376.000 111.460,376.000 110.800 C 376.000 110.140,376.180 109.600,376.400 109.600 C 376.620 109.600,376.800 109.161,376.800 108.624 C 376.800 108.087,376.980 107.536,377.200 107.400 C 377.420 107.264,377.600 106.713,377.600 106.176 C 377.600 105.639,377.780 105.200,378.000 105.200 C 378.220 105.200,378.400 104.750,378.400 104.200 C 378.400 103.650,378.580 103.200,378.800 103.200 C 379.020 103.200,379.200 102.570,379.200 101.800 C 379.200 101.030,379.380 100.400,379.600 100.400 C 379.820 100.400,380.000 99.860,380.000 99.200 C 380.000 98.540,380.180 98.000,380.400 98.000 C 380.620 98.000,380.800 97.460,380.800 96.800 C 380.800 96.140,380.980 95.600,381.200 95.600 C 381.420 95.600,381.600 94.880,381.600 94.000 C 381.600 93.120,381.780 92.400,382.000 92.400 C 382.220 92.400,382.400 91.781,382.400 91.024 C 382.400 90.267,382.580 89.536,382.800 89.400 C 383.020 89.264,383.200 88.544,383.200 87.800 C 383.200 87.056,383.380 86.336,383.600 86.200 C 383.820 86.064,384.000 85.153,384.000 84.176 C 384.000 83.199,384.180 82.400,384.400 82.400 C 384.620 82.400,384.800 81.500,384.800 80.400 C 384.800 79.300,384.980 78.400,385.200 78.400 C 385.422 78.400,385.600 77.333,385.600 76.000 C 385.600 74.667,385.778 73.600,386.000 73.600 C 386.225 73.600,386.400 72.475,386.400 71.024 C 386.400 69.607,386.580 68.336,386.800 68.200 C 387.020 68.064,387.200 66.444,387.200 64.600 C 387.200 62.756,387.380 61.136,387.600 61.000 C 388.205 60.626,388.142 17.415,387.535 16.274 C 386.938 15.150,384.850 13.062,383.726 12.465 C 382.476 11.800,17.363 11.817,16.200 12.482 M371.849 42.900 C 371.561 62.644,370.899 68.609,367.199 84.800 C 365.796 90.944,361.553 104.190,359.512 108.802 C 358.420 111.269,357.338 113.753,356.559 115.583 C 353.830 121.992,343.975 139.331,341.583 141.930 C 341.244 142.298,340.355 143.500,339.608 144.600 C 334.202 152.556,321.482 166.539,313.228 173.600 C 306.492 179.363,296.308 186.920,292.200 189.204 C 291.320 189.693,290.122 190.433,289.538 190.847 C 288.954 191.261,288.357 191.600,288.210 191.600 C 288.064 191.600,287.192 192.115,286.272 192.744 C 284.540 193.928,271.567 200.464,268.400 201.747 C 267.410 202.149,265.837 202.820,264.904 203.238 C 263.972 203.657,263.024 204.000,262.799 204.000 C 262.574 204.000,262.077 204.159,261.695 204.353 C 260.566 204.927,259.160 205.490,256.400 206.474 L 253.800 207.400 200.000 207.400 C 150.922 207.400,146.042 207.342,144.400 206.738 C 141.573 205.698,139.081 204.758,138.100 204.363 C 137.605 204.163,136.795 203.838,136.300 203.641 C 135.805 203.443,134.770 203.007,134.000 202.672 C 133.230 202.337,131.668 201.696,130.530 201.249 C 127.952 200.236,118.124 195.326,115.187 193.585 C 113.984 192.872,112.460 191.977,111.800 191.598 C 103.397 186.760,95.125 180.750,85.486 172.476 C 83.020 170.360,72.890 160.149,70.567 157.439 C 69.265 155.920,68.020 154.480,67.800 154.238 C 66.747 153.082,63.958 149.498,61.712 146.415 C 60.343 144.537,59.074 142.820,58.890 142.600 C 55.481 138.503,46.970 123.550,43.239 115.100 C 42.778 114.055,42.049 112.420,41.621 111.468 C 37.028 101.257,32.819 86.852,30.381 73.000 C 28.712 63.520,28.376 58.988,28.150 42.900 L 27.940 28.000 200.004 28.000 L 372.067 28.000 371.849 42.900 M60.600 60.866 C 56.681 63.028,55.536 67.480,56.821 75.554 C 57.053 77.009,57.438 79.460,57.676 81.000 C 59.220 90.963,64.829 106.100,70.720 116.200 C 71.105 116.860,71.945 118.300,72.587 119.400 C 82.196 135.872,98.659 152.591,113.281 160.726 C 128.666 169.286,135.379 170.318,138.833 164.654 C 140.846 161.351,138.406 154.003,135.295 154.000 C 135.017 154.000,134.477 153.834,134.095 153.631 C 133.713 153.428,131.870 152.671,130.000 151.949 C 108.937 143.812,87.248 120.466,77.650 95.600 C 76.928 93.730,76.172 91.887,75.969 91.505 C 75.766 91.123,75.600 90.459,75.600 90.029 C 75.600 89.599,75.441 89.149,75.246 89.029 C 75.051 88.908,74.796 88.313,74.679 87.705 C 74.562 87.097,74.268 85.880,74.027 85.000 C 72.648 79.969,71.974 75.871,71.660 70.593 C 71.329 65.017,70.643 63.236,68.164 61.513 C 66.450 60.322,62.239 59.962,60.600 60.866 M246.791 226.100 C 246.730 249.528,224.692 270.384,200.000 270.384 C 175.281 270.384,153.200 249.451,153.200 226.017 L 153.200 222.800 200.000 222.800 L 246.800 222.800 246.791 226.100 M195.800 293.670 C 194.512 294.387,192.000 297.305,192.000 298.084 C 192.000 298.478,191.820 298.800,191.600 298.800 C 191.380 298.800,191.200 299.160,191.200 299.600 C 191.200 300.040,191.020 300.400,190.800 300.400 C 190.580 300.400,190.400 300.760,190.400 301.200 C 190.400 301.640,190.220 302.000,190.000 302.000 C 189.780 302.000,189.600 302.360,189.600 302.800 C 189.600 303.240,189.420 303.600,189.200 303.600 C 188.980 303.600,188.800 303.960,188.800 304.400 C 188.800 304.840,188.620 305.200,188.400 305.200 C 188.180 305.200,188.000 305.560,188.000 306.000 C 188.000 306.440,187.820 306.800,187.600 306.800 C 187.380 306.800,187.200 307.160,187.200 307.600 C 187.200 308.040,187.020 308.400,186.800 308.400 C 186.580 308.400,186.400 308.745,186.400 309.167 C 186.400 309.588,186.262 309.993,186.093 310.067 C 185.682 310.246,174.791 332.064,174.796 332.700 C 174.798 332.975,174.620 333.200,174.400 333.200 C 174.180 333.200,174.000 333.560,174.000 334.000 C 174.000 334.440,173.820 334.800,173.600 334.800 C 173.380 334.800,173.200 335.160,173.200 335.600 C 173.200 336.040,173.020 336.400,172.800 336.400 C 172.580 336.400,172.400 336.760,172.400 337.200 C 172.400 337.640,172.220 338.000,172.000 338.000 C 171.780 338.000,171.600 338.360,171.600 338.800 C 171.600 339.240,171.420 339.600,171.200 339.600 C 170.980 339.600,170.800 339.960,170.800 340.400 C 170.800 340.840,170.620 341.200,170.400 341.200 C 170.180 341.200,170.000 341.650,170.000 342.200 C 170.000 342.750,169.820 343.200,169.600 343.200 C 169.380 343.200,169.200 343.639,169.200 344.176 C 169.200 344.713,169.020 345.264,168.800 345.400 C 168.580 345.536,168.400 346.166,168.400 346.800 C 168.400 347.434,168.220 348.064,168.000 348.200 C 167.757 348.350,167.600 351.271,167.600 355.624 C 167.600 360.141,167.748 362.800,168.000 362.800 C 168.220 362.800,168.400 363.520,168.400 364.400 C 168.400 365.280,168.580 366.000,168.800 366.000 C 169.020 366.000,169.200 366.450,169.200 367.000 C 169.200 367.550,169.380 368.000,169.600 368.000 C 169.820 368.000,170.000 368.450,170.000 369.000 C 170.000 369.550,170.180 370.000,170.400 370.000 C 170.620 370.000,170.800 370.360,170.800 370.800 C 170.800 371.240,170.980 371.600,171.200 371.600 C 171.420 371.600,171.600 371.870,171.600 372.200 C 171.600 372.530,171.780 372.800,172.000 372.800 C 172.220 372.800,172.400 373.070,172.400 373.400 C 172.400 373.730,172.580 374.000,172.800 374.000 C 173.020 374.000,173.200 374.174,173.200 374.387 C 173.200 375.124,180.147 382.400,180.852 382.400 C 181.062 382.400,181.620 382.760,182.092 383.200 C 182.564 383.640,183.187 384.000,183.475 384.000 C 183.764 384.000,184.000 384.180,184.000 384.400 C 184.000 384.620,184.360 384.800,184.800 384.800 C 185.240 384.800,185.600 384.980,185.600 385.200 C 185.600 385.420,185.960 385.600,186.400 385.600 C 186.840 385.600,187.200 385.780,187.200 386.000 C 187.200 386.220,187.740 386.400,188.400 386.400 C 189.060 386.400,189.600 386.580,189.600 386.800 C 189.600 387.020,190.320 387.200,191.200 387.200 C 192.080 387.200,192.800 387.380,192.800 387.600 C 192.800 387.852,195.467 388.000,200.000 388.000 C 204.533 388.000,207.200 387.852,207.200 387.600 C 207.200 387.380,207.920 387.200,208.800 387.200 C 209.680 387.200,210.400 387.020,210.400 386.800 C 210.400 386.580,210.940 386.400,211.600 386.400 C 212.260 386.400,212.800 386.220,212.800 386.000 C 212.800 385.780,213.160 385.600,213.600 385.600 C 214.040 385.600,214.400 385.420,214.400 385.200 C 214.400 384.980,214.760 384.800,215.200 384.800 C 215.640 384.800,216.000 384.620,216.000 384.400 C 216.000 384.180,216.236 384.000,216.525 384.000 C 216.813 384.000,217.436 383.640,217.908 383.200 C 218.380 382.760,218.938 382.400,219.148 382.400 C 219.853 382.400,226.800 375.124,226.800 374.387 C 226.800 374.174,226.980 374.000,227.200 374.000 C 227.420 374.000,227.600 373.730,227.600 373.400 C 227.600 373.070,227.780 372.800,228.000 372.800 C 228.220 372.800,228.400 372.530,228.400 372.200 C 228.400 371.870,228.580 371.600,228.800 371.600 C 229.020 371.600,229.200 371.240,229.200 370.800 C 229.200 370.360,229.380 370.000,229.600 370.000 C 229.820 370.000,230.000 369.561,230.000 369.024 C 230.000 368.487,230.180 367.936,230.400 367.800 C 230.620 367.664,230.800 367.203,230.800 366.776 C 230.800 366.349,230.980 366.000,231.200 366.000 C 231.420 366.000,231.600 365.280,231.600 364.400 C 231.600 363.520,231.780 362.800,232.000 362.800 C 232.252 362.800,232.400 360.141,232.400 355.624 C 232.400 351.271,232.243 348.350,232.000 348.200 C 231.780 348.064,231.600 347.423,231.600 346.776 C 231.600 346.129,231.420 345.600,231.200 345.600 C 230.980 345.600,230.800 345.060,230.800 344.400 C 230.800 343.740,230.620 343.200,230.400 343.200 C 230.180 343.200,230.000 342.750,230.000 342.200 C 230.000 341.650,229.820 341.200,229.600 341.200 C 229.380 341.200,229.200 340.840,229.200 340.400 C 229.200 339.960,229.020 339.600,228.800 339.600 C 228.580 339.600,228.400 339.240,228.400 338.800 C 228.400 338.360,228.220 338.000,228.000 338.000 C 227.780 338.000,227.600 337.640,227.600 337.200 C 227.600 336.760,227.420 336.400,227.200 336.400 C 226.980 336.400,226.800 336.040,226.800 335.600 C 226.800 335.160,226.620 334.800,226.400 334.800 C 226.180 334.800,226.000 334.440,226.000 334.000 C 226.000 333.560,225.820 333.200,225.600 333.200 C 225.380 333.200,225.202 332.975,225.204 332.700 C 225.209 332.064,214.318 310.246,213.907 310.067 C 213.738 309.993,213.600 309.588,213.600 309.167 C 213.600 308.745,213.420 308.400,213.200 308.400 C 212.980 308.400,212.800 308.040,212.800 307.600 C 212.800 307.160,212.620 306.800,212.400 306.800 C 212.180 306.800,212.000 306.440,212.000 306.000 C 212.000 305.560,211.820 305.200,211.600 305.200 C 211.380 305.200,211.200 304.840,211.200 304.400 C 211.200 303.960,211.020 303.600,210.800 303.600 C 210.580 303.600,210.400 303.240,210.400 302.800 C 210.400 302.360,210.220 302.000,210.000 302.000 C 209.780 302.000,209.600 301.640,209.600 301.200 C 209.600 300.760,209.420 300.400,209.200 300.400 C 208.980 300.400,208.800 300.040,208.800 299.600 C 208.800 299.160,208.620 298.800,208.400 298.800 C 208.180 298.800,208.000 298.478,208.000 298.084 C 208.000 297.291,205.504 294.482,204.105 293.700 C 202.992 293.078,196.903 293.056,195.800 293.670 M208.093 334.715 C 217.543 353.741,218.063 355.840,214.956 362.416 C 206.521 380.274,178.769 370.443,183.959 351.435 C 184.736 348.587,199.340 319.634,200.000 319.632 C 200.391 319.631,203.212 324.888,208.093 334.715 " stroke="none" fill="#050404" fill-rule="evenodd"></path><path id="path1" d="M28.542 40.900 C 28.817 57.278,29.364 63.660,31.550 76.000 C 32.323 80.367,34.470 89.343,35.615 93.000 C 36.827 96.870,38.490 101.911,38.781 102.600 C 38.967 103.040,39.336 104.030,39.600 104.800 C 41.823 111.274,48.983 125.965,53.120 132.542 C 54.484 134.710,55.600 136.645,55.600 136.842 C 55.600 137.039,55.780 137.200,56.000 137.200 C 56.220 137.200,56.400 137.393,56.400 137.628 C 56.400 138.015,58.228 140.867,59.453 142.391 C 59.723 142.726,61.426 144.980,63.240 147.400 C 68.207 154.030,72.243 158.671,78.198 164.600 C 83.076 169.457,86.283 172.432,89.200 174.806 C 90.410 175.791,91.641 176.825,91.935 177.104 C 92.229 177.384,93.129 178.103,93.935 178.704 C 94.741 179.304,95.490 179.898,95.600 180.023 C 95.893 180.357,103.444 185.667,104.930 186.584 C 105.628 187.015,106.260 187.510,106.333 187.684 C 106.407 187.858,106.644 188.000,106.861 188.000 C 107.078 188.000,108.041 188.540,109.000 189.200 C 109.959 189.860,110.937 190.400,111.172 190.400 C 111.407 190.400,111.600 190.559,111.600 190.753 C 111.600 190.948,111.915 191.210,112.300 191.336 C 112.685 191.462,113.900 192.108,115.000 192.772 C 119.879 195.718,130.184 200.539,139.100 204.046 C 139.595 204.241,140.405 204.568,140.900 204.774 C 141.395 204.979,142.520 205.361,143.400 205.623 C 144.280 205.884,145.313 206.256,145.695 206.449 C 146.083 206.645,169.999 206.800,199.868 206.800 C 258.241 206.800,253.937 206.945,259.000 204.810 C 259.440 204.625,261.510 203.811,263.600 203.003 C 269.424 200.749,280.914 195.267,285.000 192.793 C 286.100 192.127,287.270 191.465,287.600 191.322 C 287.930 191.179,289.225 190.373,290.478 189.531 C 291.731 188.689,292.864 188.000,292.995 188.000 C 293.126 188.000,293.451 187.813,293.717 187.584 C 293.983 187.355,296.450 185.615,299.200 183.719 C 301.950 181.822,304.290 180.156,304.400 180.016 C 304.510 179.876,305.230 179.329,306.000 178.800 C 306.770 178.271,307.670 177.549,308.000 177.197 C 308.330 176.844,309.015 176.271,309.522 175.924 C 315.868 171.584,331.709 154.709,338.740 144.800 C 339.755 143.370,340.723 142.140,340.893 142.067 C 341.062 141.993,341.200 141.761,341.200 141.550 C 341.200 141.339,341.531 140.811,341.936 140.377 C 342.341 139.942,342.926 139.095,343.235 138.493 C 343.545 137.892,343.889 137.310,343.999 137.200 C 344.110 137.090,344.462 136.550,344.781 136.000 C 345.101 135.450,346.499 133.110,347.889 130.800 C 349.278 128.490,351.863 123.630,353.634 120.000 C 355.404 116.370,357.021 113.087,357.226 112.705 C 357.432 112.323,357.600 111.738,357.600 111.405 C 357.600 111.072,357.780 110.800,358.000 110.800 C 358.220 110.800,358.400 110.528,358.400 110.196 C 358.400 109.863,358.739 108.828,359.153 107.896 C 359.567 106.963,360.125 105.570,360.393 104.800 C 360.661 104.030,361.033 103.040,361.219 102.600 C 361.510 101.911,363.173 96.870,364.385 93.000 C 365.530 89.343,367.677 80.367,368.450 76.000 C 370.590 63.919,371.173 57.113,371.457 40.900 L 371.676 28.400 200.004 28.400 L 28.331 28.400 28.542 40.900 M65.776 59.808 C 70.012 61.093,72.000 63.732,72.000 68.071 C 72.000 70.668,72.397 74.047,73.260 78.800 C 73.934 82.509,75.096 87.050,75.639 88.095 C 75.838 88.477,76.000 89.141,76.000 89.571 C 76.000 90.001,76.180 90.464,76.400 90.600 C 76.620 90.736,76.800 91.199,76.800 91.629 C 76.800 92.059,76.959 92.723,77.153 93.105 C 77.348 93.487,77.689 94.250,77.913 94.800 C 81.892 104.605,89.538 117.723,94.600 123.431 C 94.820 123.679,95.720 124.800,96.600 125.922 C 98.968 128.941,108.609 138.331,111.600 140.532 C 113.030 141.584,114.470 142.662,114.800 142.928 C 118.514 145.920,126.647 150.197,132.800 152.394 C 138.402 154.394,140.219 156.553,140.175 161.161 C 140.109 168.038,134.509 170.550,126.166 167.443 C 120.982 165.512,113.444 161.755,110.338 159.553 C 109.754 159.139,109.079 158.800,108.838 158.800 C 108.597 158.800,108.400 158.620,108.400 158.400 C 108.400 158.180,108.164 158.000,107.875 158.000 C 107.587 158.000,107.002 157.680,106.575 157.289 C 106.149 156.898,105.170 156.142,104.400 155.608 C 97.872 151.086,89.532 143.128,83.085 135.269 C 79.139 130.458,72.400 120.857,72.400 120.045 C 72.400 119.837,72.265 119.607,72.100 119.533 C 71.228 119.146,62.400 101.264,62.400 99.884 C 62.400 99.596,62.252 99.189,62.072 98.980 C 61.892 98.771,61.333 97.250,60.831 95.600 C 60.329 93.950,59.756 92.287,59.559 91.905 C 59.362 91.523,59.200 90.769,59.200 90.229 C 59.200 89.689,59.040 89.148,58.844 89.027 C 58.649 88.906,58.388 88.221,58.266 87.504 C 58.144 86.787,57.853 85.300,57.618 84.200 C 56.033 76.758,55.497 66.468,56.576 64.193 C 57.458 62.336,59.923 60.345,62.049 59.774 C 63.012 59.516,63.800 59.283,63.800 59.257 C 63.800 59.230,64.689 59.478,65.776 59.808 M195.633 370.944 C 195.725 371.023,196.340 371.208,197.000 371.356 C 197.876 371.552,198.038 371.515,197.600 371.218 C 197.060 370.853,195.232 370.598,195.633 370.944 M202.400 371.218 C 201.962 371.515,202.124 371.552,203.000 371.356 C 204.471 371.027,204.790 370.798,203.767 370.806 C 203.345 370.809,202.730 370.995,202.400 371.218 " stroke="none" fill="#fbdbab" fill-rule="evenodd"></path><path id="path2" d="M371.293 52.000 C 371.293 52.770,371.375 53.085,371.476 52.700 C 371.576 52.315,371.576 51.685,371.476 51.300 C 371.375 50.915,371.293 51.230,371.293 52.000 M28.493 52.400 C 28.493 53.170,28.575 53.485,28.676 53.100 C 28.776 52.715,28.776 52.085,28.676 51.700 C 28.575 51.315,28.493 51.630,28.493 52.400 M28.928 56.800 C 28.928 58.230,29.001 58.815,29.089 58.100 C 29.178 57.385,29.178 56.215,29.089 55.500 C 29.001 54.785,28.928 55.370,28.928 56.800 M370.928 56.800 C 370.928 58.230,371.001 58.815,371.089 58.100 C 371.178 57.385,371.178 56.215,371.089 55.500 C 371.001 54.785,370.928 55.370,370.928 56.800 M370.101 65.000 C 370.105 65.880,370.187 66.193,370.283 65.695 C 370.379 65.198,370.375 64.478,370.275 64.095 C 370.175 63.713,370.096 64.120,370.101 65.000 M29.693 65.200 C 29.693 65.970,29.775 66.285,29.876 65.900 C 29.976 65.515,29.976 64.885,29.876 64.500 C 29.775 64.115,29.693 64.430,29.693 65.200 M56.093 75.200 C 56.093 75.970,56.175 76.285,56.276 75.900 C 56.376 75.515,56.376 74.885,56.276 74.500 C 56.175 74.115,56.093 74.430,56.093 75.200 M100.000 130.110 C 100.000 130.171,101.395 131.566,103.100 133.210 L 106.200 136.200 103.210 133.100 C 100.433 130.221,100.000 129.817,100.000 130.110 M86.000 138.925 C 86.000 138.994,86.585 139.579,87.300 140.225 L 88.600 141.400 87.425 140.100 C 86.330 138.888,86.000 138.616,86.000 138.925 M94.800 147.725 C 94.800 147.794,95.385 148.379,96.100 149.025 L 97.400 150.200 96.225 148.900 C 95.130 147.688,94.800 147.416,94.800 147.725 M72.000 158.525 C 72.000 158.594,72.585 159.179,73.300 159.825 L 74.600 161.000 73.425 159.700 C 72.330 158.488,72.000 158.216,72.000 158.525 M326.575 159.700 L 325.400 161.000 326.700 159.825 C 327.415 159.179,328.000 158.594,328.000 158.525 C 328.000 158.216,327.670 158.488,326.575 159.700 M140.101 161.000 C 140.105 161.880,140.187 162.193,140.283 161.695 C 140.379 161.198,140.375 160.478,140.275 160.095 C 140.175 159.713,140.096 160.120,140.101 161.000 M83.400 170.000 C 84.259 170.880,85.052 171.600,85.162 171.600 C 85.272 171.600,84.659 170.880,83.800 170.000 C 82.941 169.120,82.148 168.400,82.038 168.400 C 81.928 168.400,82.541 169.120,83.400 170.000 M316.181 170.100 L 314.600 171.800 316.300 170.219 C 317.881 168.748,318.184 168.400,317.881 168.400 C 317.816 168.400,317.051 169.165,316.181 170.100 M298.100 184.440 C 297.165 185.102,296.400 185.733,296.400 185.841 C 296.400 185.950,297.210 185.481,298.200 184.800 C 299.190 184.119,300.000 183.480,300.000 183.381 C 300.000 183.105,299.924 183.148,298.100 184.440 M101.200 184.146 C 101.200 184.256,101.740 184.730,102.400 185.200 C 103.060 185.670,103.600 185.964,103.600 185.854 C 103.600 185.744,103.060 185.270,102.400 184.800 C 101.740 184.330,101.200 184.036,101.200 184.146 M132.800 201.800 C 133.350 202.114,133.980 202.372,134.200 202.372 C 134.420 202.372,134.150 202.114,133.600 201.800 C 133.050 201.486,132.420 201.228,132.200 201.228 C 131.980 201.228,132.250 201.486,132.800 201.800 M173.900 207.100 C 188.255 207.158,211.745 207.158,226.100 207.100 C 240.455 207.042,228.710 206.994,200.000 206.994 C 171.290 206.994,159.545 207.042,173.900 207.100 M153.348 224.300 C 153.459 224.685,153.671 226.440,153.819 228.200 C 153.967 229.960,154.354 232.390,154.679 233.600 C 155.004 234.810,155.413 236.340,155.589 237.000 C 156.450 240.237,158.320 244.428,160.084 247.072 C 160.698 247.992,161.200 248.922,161.200 249.139 C 161.200 249.356,161.335 249.593,161.500 249.667 C 161.665 249.740,162.439 250.638,163.220 251.663 C 180.534 274.378,215.057 276.023,233.988 255.034 C 234.765 254.173,235.591 253.273,235.825 253.034 C 236.059 252.795,237.324 250.980,238.637 249.000 C 241.672 244.424,243.382 240.871,244.411 237.000 C 244.587 236.340,244.995 234.810,245.319 233.600 C 245.643 232.390,246.033 229.892,246.186 228.050 C 246.339 226.207,246.559 224.452,246.675 224.150 C 246.853 223.685,239.604 223.600,200.016 223.600 C 155.568 223.600,153.157 223.636,153.348 224.300 M183.701 355.400 C 183.705 356.280,183.787 356.593,183.883 356.095 C 183.979 355.598,183.975 354.878,183.875 354.495 C 183.775 354.113,183.696 354.520,183.701 355.400 M216.093 355.600 C 216.093 356.370,216.175 356.685,216.276 356.300 C 216.376 355.915,216.376 355.285,216.276 354.900 C 216.175 354.515,216.093 354.830,216.093 355.600 " stroke="none" fill="#ea747b" fill-rule="evenodd"></path><path id="path3" d="M28.030 41.500 C 28.046 48.925,28.184 55.810,28.337 56.800 C 28.490 57.790,28.545 51.805,28.459 43.500 L 28.303 28.400 200.002 28.400 L 371.702 28.400 371.543 43.500 C 371.455 51.805,371.507 57.700,371.657 56.600 C 371.807 55.500,371.946 48.615,371.965 41.300 L 372.000 28.000 200.000 28.000 L 28.000 28.000 28.030 41.500 M28.840 61.633 C 28.862 63.045,29.032 64.650,29.218 65.200 C 29.424 65.807,29.467 64.865,29.327 62.800 C 29.051 58.714,28.785 58.076,28.840 61.633 M370.669 62.336 C 370.488 64.171,370.429 65.762,370.539 65.873 C 370.867 66.200,371.269 62.744,371.129 60.800 C 371.024 59.334,370.939 59.619,370.669 62.336 M62.213 59.887 C 60.060 60.219,57.560 62.371,56.565 64.749 C 54.913 68.695,56.892 83.105,60.720 95.000 C 61.351 96.962,62.658 100.348,63.733 102.806 C 64.072 103.579,64.545 104.729,64.785 105.361 C 65.026 105.994,65.305 106.429,65.405 106.328 C 65.505 106.228,64.953 104.641,64.177 102.802 C 61.375 96.158,58.565 86.733,57.676 81.000 C 57.438 79.460,57.053 77.009,56.821 75.554 C 55.187 65.290,57.540 60.379,64.074 60.413 C 69.241 60.440,71.214 63.088,71.660 70.593 C 71.974 75.871,72.648 79.969,74.027 85.000 C 74.268 85.880,74.562 87.097,74.679 87.705 C 74.796 88.313,75.051 88.908,75.246 89.029 C 75.441 89.149,75.600 89.599,75.600 90.029 C 75.600 90.459,75.766 91.123,75.969 91.505 C 76.172 91.887,76.928 93.730,77.650 95.600 C 85.171 115.084,101.205 135.087,117.800 145.686 C 123.036 149.030,132.855 153.679,133.442 153.091 C 133.559 152.975,132.967 152.657,132.127 152.386 C 115.608 147.039,95.025 128.241,84.622 109.000 C 83.789 107.460,82.775 105.649,82.367 104.975 C 77.278 96.552,72.000 78.486,72.000 69.487 C 72.000 62.800,68.103 58.978,62.213 59.887 M29.690 68.000 C 29.684 68.990,29.824 70.250,30.000 70.800 L 30.320 71.800 30.330 70.800 C 30.336 70.250,30.197 68.990,30.020 68.000 L 29.700 66.200 29.690 68.000 M369.862 68.742 C 369.691 70.140,369.638 71.372,369.745 71.479 C 370.032 71.765,370.497 68.285,370.322 67.163 C 370.240 66.633,370.033 67.344,369.862 68.742 M30.475 73.200 C 30.465 73.970,30.611 74.960,30.800 75.400 C 31.257 76.464,31.257 74.797,30.800 73.000 L 30.495 71.800 30.475 73.200 M369.047 73.737 C 368.878 74.802,368.832 75.765,368.944 75.878 C 369.236 76.169,369.705 73.424,369.514 72.540 C 369.427 72.133,369.216 72.671,369.047 73.737 M368.254 77.954 C 368.100 78.918,368.058 79.791,368.161 79.894 C 368.430 80.163,368.915 77.345,368.707 76.722 C 368.612 76.436,368.408 76.990,368.254 77.954 M31.268 77.600 C 31.262 78.150,31.411 78.960,31.600 79.400 L 31.944 80.200 31.932 79.400 C 31.926 78.960,31.776 78.150,31.600 77.600 L 31.280 76.600 31.268 77.600 M32.068 81.200 C 32.062 81.750,32.211 82.560,32.400 83.000 L 32.744 83.800 32.732 83.000 C 32.726 82.560,32.576 81.750,32.400 81.200 L 32.080 80.200 32.068 81.200 M367.422 81.822 C 367.272 82.625,367.238 83.372,367.348 83.482 C 367.458 83.592,367.672 83.025,367.822 82.222 C 367.973 81.419,368.006 80.673,367.896 80.563 C 367.786 80.453,367.573 81.019,367.422 81.822 M32.834 84.800 C 32.822 85.350,32.987 86.070,33.200 86.400 C 33.709 87.187,33.709 85.784,33.200 84.600 C 32.885 83.867,32.854 83.884,32.834 84.800 M366.622 85.129 C 366.458 85.859,366.422 86.556,366.542 86.676 C 366.843 86.977,367.320 84.956,367.099 84.317 C 367.001 84.033,366.786 84.398,366.622 85.129 M33.656 87.800 C 33.656 88.240,33.811 88.960,34.000 89.400 L 34.344 90.200 34.344 89.400 C 34.344 88.960,34.189 88.240,34.000 87.800 L 33.656 87.000 33.656 87.800 M365.800 88.400 C 365.648 89.091,365.614 89.747,365.724 89.857 C 365.834 89.967,366.048 89.491,366.200 88.800 C 366.352 88.109,366.386 87.453,366.276 87.343 C 366.166 87.233,365.952 87.709,365.800 88.400 M34.412 91.000 C 34.412 91.440,34.587 92.070,34.800 92.400 C 35.121 92.897,35.188 92.862,35.188 92.200 C 35.188 91.760,35.013 91.130,34.800 90.800 C 34.479 90.303,34.412 90.338,34.412 91.000 M365.073 90.953 C 364.923 91.345,364.811 91.966,364.825 92.333 C 364.842 92.775,364.981 92.674,365.237 92.034 C 365.449 91.503,365.561 90.882,365.485 90.654 C 365.409 90.427,365.224 90.561,365.073 90.953 M35.200 93.551 C 35.200 94.571,39.859 107.553,41.666 111.568 C 42.120 112.575,42.848 114.210,43.285 115.200 C 46.947 123.509,55.501 138.528,58.890 142.600 C 59.074 142.820,60.343 144.537,61.712 146.415 C 63.958 149.498,66.747 153.082,67.800 154.238 C 68.020 154.480,69.265 155.920,70.567 157.439 C 72.890 160.149,83.020 170.360,85.486 172.476 C 95.125 180.750,103.397 186.760,111.800 191.598 C 112.460 191.977,113.984 192.872,115.187 193.585 C 120.197 196.556,133.075 202.659,133.480 202.254 C 133.559 202.174,132.674 201.706,131.512 201.214 C 129.133 200.205,117.242 194.349,115.400 193.278 C 108.274 189.136,102.056 185.077,96.591 181.002 C 94.836 179.693,93.310 178.525,93.200 178.406 C 93.090 178.287,92.010 177.389,90.800 176.411 C 71.218 160.587,53.383 137.253,43.405 114.400 C 41.302 109.582,40.971 108.815,40.346 107.300 C 39.428 105.072,39.235 104.548,38.400 102.000 C 37.931 100.570,37.397 99.040,37.214 98.600 C 37.030 98.160,36.575 96.765,36.203 95.500 C 35.584 93.398,35.200 92.652,35.200 93.551 M363.804 95.478 C 363.428 96.755,362.967 98.160,362.780 98.600 C 362.593 99.040,362.177 100.215,361.855 101.211 C 353.257 127.819,332.309 157.737,309.200 176.411 C 307.990 177.389,306.910 178.288,306.800 178.408 C 305.616 179.707,292.126 188.980,288.100 191.263 C 287.385 191.668,286.125 192.400,285.300 192.889 C 284.475 193.378,280.290 195.535,276.000 197.681 C 271.710 199.828,268.400 201.587,268.645 201.592 C 269.323 201.604,284.367 194.057,286.272 192.748 C 287.192 192.117,288.064 191.600,288.210 191.600 C 288.357 191.600,288.954 191.261,289.538 190.847 C 290.122 190.433,291.320 189.693,292.200 189.204 C 296.308 186.920,306.492 179.363,313.228 173.600 C 321.482 166.539,334.202 152.556,339.608 144.600 C 340.355 143.500,341.244 142.298,341.583 141.930 C 343.975 139.331,353.830 121.992,356.559 115.583 C 357.338 113.753,358.420 111.269,359.512 108.802 C 361.152 105.097,364.975 93.641,364.672 93.339 C 364.571 93.238,364.181 94.200,363.804 95.478 M65.600 106.941 C 65.600 108.879,75.940 126.046,80.693 132.000 C 81.659 133.210,82.734 134.560,83.081 135.000 C 88.324 141.638,97.644 150.614,104.000 155.147 C 109.478 159.054,118.281 164.252,118.704 163.829 C 118.801 163.733,117.962 163.189,116.842 162.621 C 100.325 154.252,83.110 137.439,72.587 119.400 C 71.945 118.300,71.104 116.860,70.718 116.200 C 70.332 115.540,69.104 113.206,67.989 111.014 C 65.975 107.055,65.600 106.415,65.600 106.941 M134.174 153.557 C 134.324 153.801,134.752 154.000,135.124 154.000 C 139.818 154.004,141.124 163.296,136.917 166.764 C 135.337 168.066,135.371 168.431,136.974 167.380 C 141.016 164.732,141.131 157.884,137.185 154.772 C 135.690 153.592,133.699 152.790,134.174 153.557 M119.200 164.171 C 119.200 164.429,123.630 166.403,124.148 166.376 C 124.397 166.364,123.520 165.834,122.200 165.200 C 119.816 164.055,119.200 163.843,119.200 164.171 M127.200 167.600 C 127.530 167.813,128.070 167.988,128.400 167.988 C 128.933 167.988,128.933 167.945,128.400 167.600 C 128.070 167.387,127.530 167.212,127.200 167.212 C 126.667 167.212,126.667 167.255,127.200 167.600 M129.738 168.494 C 130.346 168.881,134.700 168.886,134.937 168.500 C 135.039 168.335,133.807 168.200,132.199 168.200 C 130.591 168.200,129.484 168.332,129.738 168.494 M263.800 203.200 C 262.920 203.607,262.403 203.954,262.651 203.970 C 263.210 204.007,266.000 202.861,266.000 202.595 C 266.000 202.277,265.491 202.417,263.800 203.200 M136.200 203.600 C 136.336 203.820,136.767 204.000,137.157 204.000 C 137.547 204.000,137.986 204.119,138.132 204.265 C 138.278 204.411,139.343 204.871,140.499 205.288 C 141.654 205.704,143.410 206.349,144.400 206.722 C 146.059 207.347,150.405 207.400,200.000 207.400 L 253.800 207.400 256.400 206.474 C 257.830 205.964,259.360 205.396,259.800 205.210 C 260.240 205.024,260.941 204.762,261.357 204.627 C 261.774 204.492,262.033 204.299,261.933 204.200 C 261.833 204.100,259.962 204.689,257.776 205.509 L 253.800 207.000 201.437 207.109 C 144.690 207.226,147.191 207.321,140.548 204.817 C 135.780 203.020,135.855 203.041,136.200 203.600 M153.200 223.200 C 153.200 223.464,169.067 223.600,200.000 223.600 C 230.933 223.600,246.800 223.464,246.800 223.200 C 246.800 222.936,230.933 222.800,200.000 222.800 C 169.067 222.800,153.200 222.936,153.200 223.200 M153.254 226.717 C 152.841 246.111,170.611 265.674,192.400 269.814 C 218.382 274.751,247.198 251.938,246.735 226.800 L 246.687 224.200 246.338 227.400 C 245.682 233.413,244.332 238.351,241.963 243.400 C 241.074 245.294,236.737 252.102,235.825 253.034 C 235.591 253.273,234.765 254.173,233.988 255.034 C 215.057 276.023,180.534 274.378,163.220 251.663 C 162.439 250.638,161.665 249.740,161.500 249.667 C 161.335 249.593,161.200 249.356,161.200 249.139 C 161.200 248.922,160.698 247.992,160.084 247.072 C 158.278 244.364,156.467 240.278,155.531 236.800 C 155.324 236.030,154.974 234.770,154.753 234.000 C 154.532 233.230,154.117 230.710,153.829 228.400 C 153.337 224.444,153.304 224.346,153.254 226.717 M198.849 320.652 C 198.586 321.230,198.462 321.795,198.574 321.907 C 198.686 322.019,198.958 321.636,199.179 321.055 C 199.400 320.475,199.769 320.000,200.000 320.000 C 200.231 320.000,200.600 320.475,200.821 321.055 C 201.042 321.636,201.314 322.019,201.426 321.907 C 201.831 321.502,200.655 319.600,200.000 319.600 C 199.631 319.600,199.113 320.073,198.849 320.652 M188.841 340.772 C 186.399 345.596,184.402 349.781,184.404 350.072 C 184.408 350.506,192.691 334.303,193.369 332.536 C 194.133 330.544,192.693 333.165,188.841 340.772 M207.431 334.136 C 208.027 335.690,215.611 350.447,215.378 349.600 C 215.075 348.501,207.626 333.600,207.379 333.600 C 207.294 333.600,207.318 333.841,207.431 334.136 M183.778 352.178 C 183.627 352.981,183.594 353.727,183.704 353.837 C 183.814 353.947,184.027 353.381,184.178 352.578 C 184.328 351.775,184.362 351.028,184.252 350.918 C 184.142 350.808,183.928 351.375,183.778 352.178 M215.675 351.400 C 215.686 351.840,215.832 352.740,216.000 353.400 L 216.305 354.600 216.325 353.400 C 216.335 352.740,216.189 351.840,216.000 351.400 L 215.656 350.600 215.675 351.400 M183.675 357.800 C 183.665 358.460,183.811 359.360,184.000 359.800 L 184.344 360.600 184.325 359.800 C 184.314 359.360,184.168 358.460,184.000 357.800 L 183.695 356.600 183.675 357.800 M215.854 358.354 C 215.700 359.318,215.658 360.191,215.761 360.294 C 216.030 360.563,216.515 357.745,216.307 357.122 C 216.212 356.836,216.008 357.390,215.854 358.354 M214.253 362.928 C 213.673 364.113,212.643 365.664,211.965 366.374 C 211.286 367.084,210.817 367.750,210.921 367.854 C 211.215 368.148,213.803 364.800,214.780 362.861 C 215.262 361.905,215.577 361.044,215.481 360.948 C 215.385 360.852,214.832 361.743,214.253 362.928 M185.639 363.700 C 186.332 365.036,188.859 368.074,189.087 367.846 C 189.196 367.737,188.841 367.205,188.298 366.662 C 187.756 366.120,186.912 365.029,186.423 364.238 C 185.443 362.651,184.902 362.281,185.639 363.700 M189.600 368.277 C 189.600 368.863,193.849 371.209,194.881 371.191 C 195.166 371.186,194.622 370.829,193.671 370.398 C 192.720 369.966,191.415 369.238,190.771 368.779 C 190.127 368.321,189.600 368.094,189.600 368.277 M209.399 368.676 C 208.960 369.013,207.700 369.716,206.600 370.240 C 205.500 370.764,204.827 371.194,205.104 371.196 C 206.211 371.205,210.774 368.641,210.370 368.237 C 210.276 368.143,209.839 368.340,209.399 368.676 M196.138 371.694 C 196.392 371.856,198.130 371.988,200.000 371.988 C 201.870 371.988,203.608 371.856,203.862 371.694 C 204.116 371.532,202.378 371.400,200.000 371.400 C 197.622 371.400,195.884 371.532,196.138 371.694 " stroke="none" fill="#9d4b52" fill-rule="evenodd"></path><path id="path4" d="M197.188 325.700 C 195.764 328.615,194.465 331.060,194.300 331.133 C 194.135 331.207,194.000 331.612,194.000 332.033 C 194.000 332.455,193.820 332.800,193.600 332.800 C 193.380 332.800,193.200 333.145,193.200 333.567 C 193.200 333.988,193.055 334.393,192.877 334.467 C 192.499 334.623,185.760 348.245,185.011 350.368 C 182.225 358.264,186.825 368.032,194.400 370.307 C 195.170 370.538,196.443 370.924,197.228 371.164 C 199.008 371.707,200.944 371.720,202.672 371.200 C 203.402 370.980,204.675 370.595,205.500 370.343 C 213.019 368.054,217.546 358.861,215.123 350.800 C 214.584 349.007,207.547 334.644,207.121 334.467 C 206.945 334.393,206.800 333.988,206.800 333.567 C 206.800 333.145,206.620 332.800,206.400 332.800 C 206.180 332.800,206.000 332.455,206.000 332.033 C 206.000 331.612,205.865 331.207,205.700 331.133 C 205.535 331.060,204.236 328.615,202.812 325.700 C 201.389 322.785,200.124 320.400,200.000 320.400 C 199.876 320.400,198.611 322.785,197.188 325.700 " stroke="none" fill="#ebf3f3" fill-rule="evenodd"></path></g></svg>