<svg id="svg" version="1.1" xmlns="http://www.w3.org/2000/svg" xmlns:xlink="http://www.w3.org/1999/xlink" width="400" height="400" viewBox="0, 0, 400,400"><g id="svgg"><path id="path0" d="M36.600 0.376 C 36.160 0.544,35.395 0.819,34.900 0.987 C 34.405 1.156,34.000 1.452,34.000 1.647 C 34.000 1.841,33.725 2.000,33.389 2.000 C 32.596 2.000,29.200 5.396,29.200 6.189 C 29.200 6.525,29.042 6.800,28.849 6.800 C 28.655 6.800,28.280 7.385,28.015 8.100 C 27.750 8.815,27.368 9.713,27.167 10.095 C 26.674 11.028,26.674 388.972,27.167 389.905 C 27.368 390.287,27.750 391.185,28.015 391.900 C 28.280 392.615,28.655 393.200,28.849 393.200 C 29.042 393.200,29.200 393.475,29.200 393.811 C 29.200 394.604,32.596 398.000,33.389 398.000 C 33.725 398.000,34.001 398.135,34.003 398.300 C 34.018 399.708,35.645 399.798,63.092 399.911 L 89.985 400.022 91.192 398.868 C 91.920 398.172,92.400 397.307,92.400 396.690 C 92.400 396.127,92.623 395.592,92.896 395.501 C 93.253 395.382,93.197 395.140,92.696 394.639 C 92.313 394.256,92.000 393.568,92.000 393.109 C 92.000 391.893,90.102 389.602,88.560 388.958 C 87.472 388.503,82.988 388.400,64.235 388.400 L 41.245 388.400 40.122 387.435 L 39.000 386.469 39.000 200.000 L 39.000 13.531 40.122 12.565 L 41.245 11.600 78.387 11.600 L 115.529 11.600 116.540 12.802 C 117.177 13.559,117.636 14.706,117.780 15.902 C 118.509 21.968,119.723 27.600,121.595 33.600 C 121.767 34.150,122.134 35.410,122.411 36.400 C 123.498 40.279,125.310 45.247,127.007 49.000 C 127.306 49.660,128.029 51.370,128.615 52.800 C 129.850 55.815,137.318 70.478,138.384 71.982 C 138.781 72.542,139.466 73.630,139.907 74.400 C 141.816 77.741,144.612 82.206,147.328 86.249 C 151.281 92.136,154.904 97.357,155.205 97.600 C 155.341 97.710,156.064 98.700,156.811 99.800 C 158.045 101.618,171.572 118.808,172.576 119.834 C 172.809 120.072,173.751 121.152,174.669 122.234 C 186.794 136.519,187.324 136.912,191.922 135.024 C 193.369 134.430,194.783 133.641,195.064 133.272 C 195.669 132.476,195.786 127.600,195.200 127.600 C 194.980 127.600,194.800 127.283,194.800 126.896 C 194.800 126.509,194.440 125.968,194.000 125.693 C 193.560 125.418,193.200 125.021,193.200 124.810 C 193.200 124.425,191.710 122.651,189.300 120.167 C 188.585 119.430,188.000 118.656,188.000 118.448 C 188.000 118.240,186.920 116.973,185.600 115.632 C 184.280 114.292,183.200 113.093,183.200 112.969 C 183.200 112.845,182.975 112.500,182.700 112.203 C 182.425 111.906,181.390 110.731,180.400 109.592 C 179.410 108.453,178.015 106.915,177.300 106.174 C 176.585 105.433,176.000 104.632,176.000 104.395 C 176.000 104.158,175.595 103.530,175.100 103.001 C 173.752 101.560,173.360 101.046,172.788 99.975 C 172.501 99.439,171.757 98.523,171.133 97.940 C 170.510 97.356,170.000 96.708,170.000 96.499 C 170.000 96.290,169.460 95.554,168.800 94.863 C 168.140 94.172,167.600 93.514,167.600 93.400 C 167.600 93.286,167.060 92.628,166.400 91.937 C 165.740 91.246,165.200 90.478,165.200 90.229 C 165.200 89.980,164.840 89.517,164.400 89.200 C 163.960 88.883,163.600 88.343,163.600 88.000 C 163.600 87.657,163.240 87.117,162.800 86.800 C 162.360 86.483,162.000 86.020,162.000 85.771 C 162.000 85.522,161.460 84.754,160.800 84.063 C 160.140 83.372,159.600 82.575,159.600 82.292 C 159.600 82.009,159.240 81.517,158.800 81.200 C 158.360 80.883,158.000 80.436,158.000 80.206 C 158.000 79.977,157.370 78.854,156.600 77.710 C 155.830 76.567,155.200 75.444,155.200 75.216 C 155.200 74.987,155.020 74.800,154.800 74.800 C 154.580 74.800,154.400 74.564,154.400 74.275 C 154.400 73.987,154.040 73.364,153.600 72.892 C 153.160 72.420,152.800 71.838,152.800 71.600 C 152.800 71.362,152.440 70.780,152.000 70.308 C 151.560 69.836,151.200 69.213,151.200 68.925 C 151.200 68.636,151.020 68.400,150.800 68.400 C 150.580 68.400,150.400 68.080,150.400 67.688 C 150.400 67.297,150.040 66.717,149.600 66.400 C 149.160 66.083,148.800 65.503,148.800 65.112 C 148.800 64.720,148.620 64.400,148.400 64.400 C 148.180 64.400,148.000 64.040,148.000 63.600 C 148.000 63.160,147.854 62.800,147.675 62.800 C 147.496 62.800,147.102 62.170,146.800 61.400 C 146.498 60.630,146.104 60.000,145.925 60.000 C 145.746 60.000,145.600 59.640,145.600 59.200 C 145.600 58.760,145.420 58.400,145.200 58.400 C 144.980 58.400,144.800 58.164,144.800 57.875 C 144.800 57.587,144.440 56.964,144.000 56.492 C 143.560 56.020,143.200 55.356,143.200 55.017 C 143.200 54.678,143.020 54.400,142.800 54.400 C 142.580 54.400,142.400 54.040,142.400 53.600 C 142.400 53.160,142.220 52.800,142.000 52.800 C 141.780 52.800,141.599 52.485,141.598 52.100 C 141.596 51.715,141.326 50.884,140.998 50.254 C 140.669 49.624,140.400 48.947,140.400 48.750 C 140.400 48.397,139.085 45.262,138.367 43.905 C 138.165 43.523,138.000 42.938,138.000 42.605 C 138.000 42.272,137.820 42.000,137.600 42.000 C 137.380 42.000,137.200 41.651,137.200 41.224 C 137.200 40.797,137.020 40.336,136.800 40.200 C 136.580 40.064,136.400 39.513,136.400 38.976 C 136.400 38.439,136.220 38.000,136.000 38.000 C 135.780 38.000,135.600 37.460,135.600 36.800 C 135.600 36.140,135.420 35.600,135.200 35.600 C 134.980 35.600,134.800 35.060,134.800 34.400 C 134.800 33.740,134.620 33.200,134.400 33.200 C 134.180 33.200,134.000 32.671,134.000 32.024 C 134.000 31.377,133.820 30.736,133.600 30.600 C 133.380 30.464,133.200 29.834,133.200 29.200 C 133.200 28.566,133.020 27.936,132.800 27.800 C 132.580 27.664,132.400 27.113,132.400 26.576 C 132.400 26.039,132.220 25.600,132.000 25.600 C 131.780 25.600,131.600 24.700,131.600 23.600 C 131.600 22.500,131.420 21.600,131.200 21.600 C 130.980 21.600,130.800 20.700,130.800 19.600 C 130.800 18.500,130.620 17.600,130.400 17.600 C 130.171 17.600,130.000 16.400,130.000 14.800 C 130.000 13.200,129.829 12.000,129.600 12.000 C 129.380 12.000,129.200 11.370,129.200 10.600 C 129.200 9.830,129.020 9.200,128.800 9.200 C 128.580 9.200,128.400 8.840,128.400 8.400 C 128.400 7.960,128.220 7.600,128.000 7.600 C 127.780 7.600,127.600 7.324,127.600 6.987 C 127.600 6.649,126.990 5.763,126.245 5.018 C 125.499 4.272,124.642 3.309,124.339 2.878 C 124.037 2.446,123.072 1.667,122.195 1.146 L 120.600 0.200 79.000 0.135 C 56.120 0.100,37.040 0.208,36.600 0.376 M155.400 27.424 C 155.180 27.482,154.538 27.631,153.974 27.754 C 152.663 28.040,151.200 29.302,151.200 30.147 C 151.200 30.506,151.020 30.800,150.800 30.800 C 150.567 30.800,150.400 32.133,150.400 34.000 C 150.400 35.867,150.567 37.200,150.800 37.200 C 151.020 37.200,151.200 37.560,151.200 38.000 C 151.200 38.440,151.380 38.800,151.600 38.800 C 151.820 38.800,152.000 39.000,152.000 39.244 C 152.000 40.142,155.541 43.200,156.581 43.200 C 157.141 43.200,157.600 43.380,157.600 43.600 C 157.600 44.095,159.365 44.125,160.305 43.647 C 160.687 43.452,161.540 43.047,162.200 42.747 C 163.746 42.042,164.400 41.413,164.400 40.629 C 164.400 40.283,164.580 40.000,164.800 40.000 C 165.026 40.000,165.200 38.867,165.200 37.400 C 165.200 35.933,165.026 34.800,164.800 34.800 C 164.580 34.800,164.400 34.384,164.400 33.875 C 164.400 33.367,164.040 32.564,163.600 32.092 C 163.160 31.620,162.800 31.038,162.800 30.799 C 162.800 29.133,157.708 26.810,155.400 27.424 M173.200 52.400 C 173.200 52.620,172.922 52.800,172.582 52.800 C 171.782 52.800,170.000 54.582,170.000 55.382 C 170.000 55.722,169.820 56.000,169.600 56.000 C 169.374 56.000,169.200 57.133,169.200 58.600 C 169.200 60.067,169.374 61.200,169.600 61.200 C 169.820 61.200,170.000 61.446,170.000 61.746 C 170.000 62.385,173.803 66.359,175.148 67.125 C 176.254 67.755,181.322 67.835,181.525 67.225 C 181.603 66.991,181.935 66.800,182.262 66.800 C 183.042 66.800,184.000 65.823,184.000 65.029 C 184.000 64.683,184.180 64.400,184.400 64.400 C 184.631 64.400,184.800 63.133,184.800 61.400 C 184.800 59.667,184.631 58.400,184.400 58.400 C 184.180 58.400,184.000 58.126,184.000 57.791 C 184.000 56.999,179.801 52.800,179.009 52.800 C 178.674 52.800,178.400 52.620,178.400 52.400 C 178.400 52.174,177.267 52.000,175.800 52.000 C 174.333 52.000,173.200 52.174,173.200 52.400 M196.800 73.600 C 196.800 73.820,196.428 74.000,195.973 74.000 C 191.398 74.000,190.786 83.523,195.194 86.134 C 195.747 86.462,196.740 87.196,197.400 87.765 C 199.318 89.417,204.063 89.299,205.927 87.552 C 207.928 85.677,208.669 82.213,207.646 79.521 C 206.935 77.652,202.509 74.000,200.954 74.000 C 200.649 74.000,200.400 73.820,200.400 73.600 C 200.400 73.380,199.590 73.200,198.600 73.200 C 197.610 73.200,196.800 73.380,196.800 73.600 M218.240 94.640 C 217.387 95.493,216.800 96.471,216.800 97.040 C 216.800 97.568,216.620 98.000,216.400 98.000 C 216.180 98.000,216.000 98.720,216.000 99.600 C 216.000 100.480,216.180 101.200,216.400 101.200 C 216.620 101.200,216.800 101.664,216.800 102.231 C 216.800 103.190,219.550 106.400,220.371 106.400 C 220.540 106.400,221.093 106.760,221.600 107.200 C 222.107 107.640,222.934 108.000,223.438 108.000 C 223.941 108.000,224.464 108.180,224.600 108.400 C 224.736 108.620,225.276 108.800,225.800 108.800 C 226.324 108.800,226.864 108.620,227.000 108.400 C 227.136 108.180,227.659 108.000,228.162 108.000 C 228.666 108.000,229.493 107.640,230.000 107.200 C 230.507 106.760,231.030 106.399,231.161 106.397 C 231.730 106.389,232.400 104.073,232.400 102.115 C 232.400 99.350,228.541 94.000,226.546 94.000 C 226.246 94.000,226.000 93.820,226.000 93.600 C 226.000 92.340,219.695 93.185,218.240 94.640 M245.800 112.400 C 245.664 112.620,245.248 112.800,244.876 112.800 C 242.845 112.802,241.200 115.660,241.200 119.190 C 241.200 122.048,241.502 122.774,243.350 124.357 C 243.763 124.711,244.520 125.405,245.032 125.900 C 245.544 126.395,246.242 126.800,246.582 126.800 C 246.922 126.800,247.200 126.980,247.200 127.200 C 247.200 127.433,248.533 127.600,250.400 127.600 C 252.160 127.600,253.600 127.464,253.600 127.298 C 253.600 127.131,254.140 126.756,254.800 126.464 C 255.531 126.141,256.000 125.633,256.000 125.166 C 256.000 124.745,256.180 124.400,256.400 124.400 C 258.291 124.400,256.253 116.797,254.006 115.466 C 253.453 115.138,252.460 114.404,251.800 113.835 C 251.052 113.190,250.120 112.801,249.324 112.800 C 248.622 112.800,247.936 112.620,247.800 112.400 C 247.664 112.180,247.214 112.000,246.800 112.000 C 246.386 112.000,245.936 112.180,245.800 112.400 M269.200 132.800 C 269.200 133.020,268.840 133.200,268.400 133.200 C 267.960 133.200,267.600 133.359,267.600 133.553 C 267.600 133.748,267.240 134.001,266.800 134.116 C 266.360 134.231,266.000 134.612,266.000 134.963 C 266.000 135.313,265.820 135.600,265.600 135.600 C 265.380 135.600,265.200 136.140,265.200 136.800 C 265.200 137.460,265.020 138.000,264.800 138.000 C 264.580 138.000,264.400 138.439,264.400 138.976 C 264.400 139.513,264.580 140.064,264.800 140.200 C 265.020 140.336,265.200 140.847,265.200 141.335 C 265.200 141.824,265.560 142.483,266.000 142.800 C 266.440 143.117,266.800 143.613,266.800 143.901 C 266.800 144.189,267.115 144.543,267.500 144.688 C 267.885 144.833,268.677 145.457,269.260 146.075 C 269.844 146.694,270.609 147.200,270.960 147.200 C 271.312 147.200,271.600 147.380,271.600 147.600 C 271.600 147.827,272.774 148.000,274.322 148.000 C 277.195 148.000,280.000 146.343,280.000 144.646 C 280.000 144.291,280.180 144.000,280.400 144.000 C 280.626 144.000,280.800 142.867,280.800 141.400 C 280.800 139.970,280.650 138.800,280.468 138.800 C 280.285 138.800,279.881 138.305,279.570 137.700 C 278.966 136.524,277.229 134.801,276.647 134.800 C 276.453 134.800,276.001 134.485,275.643 134.100 C 274.218 132.569,269.200 131.556,269.200 132.800 M205.724 143.732 C 204.880 144.010,204.364 144.490,204.198 145.151 C 204.060 145.701,203.599 146.640,203.173 147.237 C 202.252 148.532,202.153 151.170,202.968 152.720 C 203.627 153.972,218.931 169.046,227.828 177.206 C 229.384 178.633,232.534 181.525,234.828 183.633 C 237.123 185.742,240.440 188.712,242.200 190.233 C 243.959 191.755,245.919 193.450,246.555 194.000 C 247.191 194.550,247.912 195.180,248.156 195.400 C 248.401 195.620,249.951 196.970,251.601 198.400 C 253.250 199.829,254.690 201.099,254.800 201.220 C 254.910 201.342,257.160 203.232,259.799 205.421 C 262.439 207.609,264.959 209.727,265.399 210.127 C 265.840 210.526,266.971 211.426,267.914 212.127 C 269.783 213.516,269.784 213.527,268.748 217.600 C 268.127 220.041,267.838 232.153,268.352 234.186 C 268.577 235.073,268.983 236.790,269.253 238.000 C 269.524 239.210,269.893 240.371,270.073 240.580 C 270.253 240.789,270.400 241.225,270.400 241.549 C 270.400 244.302,276.090 252.942,280.702 257.191 L 283.746 259.996 281.630 266.498 C 279.725 272.352,278.788 274.803,276.353 280.300 C 275.939 281.235,275.225 282.855,274.766 283.900 C 273.820 286.058,272.464 288.756,271.236 290.923 C 270.776 291.735,270.035 293.044,269.589 293.831 C 258.034 314.232,237.050 330.202,215.000 335.378 C 208.121 336.992,207.205 337.152,202.000 337.640 C 186.545 339.088,177.574 338.416,163.400 334.748 C 161.042 334.138,159.387 333.730,155.600 332.827 C 153.730 332.381,148.780 331.194,144.600 330.190 C 133.286 327.471,132.288 327.512,130.072 330.800 C 127.294 334.921,129.826 338.190,137.200 340.005 C 139.950 340.682,142.875 341.408,143.700 341.618 C 144.525 341.828,145.875 342.171,146.700 342.381 C 147.525 342.591,149.820 343.139,151.800 343.600 C 155.287 344.412,156.747 344.770,159.900 345.590 C 160.725 345.804,161.760 346.032,162.200 346.095 C 162.986 346.209,163.002 346.556,163.104 366.247 L 163.207 386.284 162.149 387.342 L 161.091 388.400 137.194 388.400 C 109.391 388.400,109.573 388.372,108.597 392.814 C 108.455 393.461,108.172 394.094,107.969 394.219 C 107.430 394.552,107.518 396.732,108.100 397.455 C 108.375 397.797,109.002 398.514,109.492 399.049 L 110.385 400.021 138.459 399.910 C 160.484 399.824,166.569 399.692,166.700 399.300 C 166.792 399.025,167.212 398.800,167.633 398.800 C 168.055 398.800,168.400 398.650,168.400 398.468 C 168.400 398.285,168.895 397.881,169.500 397.570 C 170.622 396.994,172.399 395.238,172.400 394.705 C 172.400 394.542,172.709 394.049,173.086 393.608 C 175.115 391.238,175.154 390.794,175.178 369.500 L 175.200 349.600 176.200 349.600 C 176.750 349.600,177.200 349.780,177.200 350.000 C 177.200 350.258,181.659 350.400,189.776 350.400 C 197.729 350.400,202.444 350.253,202.600 350.000 C 202.736 349.780,204.367 349.600,206.224 349.600 C 208.208 349.600,209.600 349.435,209.600 349.200 C 209.600 348.980,210.500 348.800,211.600 348.800 C 212.700 348.800,213.600 348.620,213.600 348.400 C 213.600 348.180,214.399 348.000,215.376 348.000 C 216.353 348.000,217.264 347.820,217.400 347.600 C 217.536 347.380,218.256 347.200,219.000 347.200 C 219.744 347.200,220.464 347.020,220.600 346.800 C 220.736 346.580,221.276 346.400,221.800 346.400 C 222.324 346.400,222.864 346.220,223.000 346.000 C 223.136 345.780,223.687 345.600,224.224 345.600 C 224.761 345.600,225.200 345.420,225.200 345.200 C 225.200 344.980,225.740 344.800,226.400 344.800 C 227.060 344.800,227.600 344.620,227.600 344.400 C 227.600 344.180,228.140 344.000,228.800 344.000 C 229.460 344.000,230.000 343.820,230.000 343.600 C 230.000 343.380,230.360 343.200,230.800 343.200 C 231.240 343.200,231.600 343.020,231.600 342.800 C 231.600 342.580,231.960 342.400,232.400 342.400 C 232.840 342.400,233.200 342.220,233.200 342.000 C 233.200 341.780,233.566 341.600,234.013 341.600 C 234.460 341.600,236.124 340.970,237.711 340.200 C 239.299 339.430,240.823 338.800,241.099 338.800 C 241.374 338.800,241.600 338.620,241.600 338.400 C 241.600 338.180,241.836 338.000,242.125 338.000 C 242.413 338.000,243.036 337.640,243.508 337.200 C 243.980 336.760,244.644 336.400,244.983 336.400 C 245.322 336.400,245.600 336.220,245.600 336.000 C 245.600 335.780,245.920 335.600,246.312 335.600 C 246.703 335.600,247.283 335.240,247.600 334.800 C 247.917 334.360,248.362 334.000,248.588 333.999 C 248.815 333.999,249.630 333.459,250.400 332.800 C 251.170 332.141,251.953 331.601,252.140 331.601 C 252.326 331.600,252.983 331.060,253.600 330.400 C 254.217 329.740,254.892 329.200,255.101 329.200 C 255.550 329.200,257.550 327.291,258.388 326.062 C 258.712 325.588,259.213 325.200,259.503 325.200 C 259.792 325.200,260.476 324.795,261.023 324.300 C 263.769 321.813,265.606 319.937,266.648 318.555 C 267.282 317.714,268.655 316.147,269.700 315.073 C 270.745 313.998,271.600 312.956,271.600 312.756 C 271.600 312.556,272.140 311.828,272.800 311.137 C 273.460 310.446,274.000 309.681,274.000 309.437 C 274.000 309.192,274.450 308.507,275.000 307.913 C 275.550 307.320,276.000 306.687,276.000 306.506 C 276.000 306.325,276.360 305.917,276.800 305.600 C 277.240 305.283,277.600 304.703,277.600 304.312 C 277.600 303.920,277.780 303.600,278.000 303.600 C 278.220 303.600,278.400 303.330,278.400 303.000 C 278.400 302.670,278.580 302.400,278.800 302.400 C 279.020 302.400,279.200 302.130,279.200 301.800 C 279.200 301.470,279.380 301.200,279.600 301.200 C 279.820 301.200,280.000 300.922,280.000 300.583 C 280.000 300.244,280.360 299.580,280.800 299.108 C 281.240 298.636,281.600 298.013,281.600 297.725 C 281.600 297.436,281.780 297.200,282.000 297.200 C 282.220 297.200,282.400 296.840,282.400 296.400 C 282.400 295.960,282.580 295.600,282.800 295.600 C 283.020 295.600,283.200 295.240,283.200 294.800 C 283.200 294.360,283.380 294.000,283.600 294.000 C 283.820 294.000,284.000 293.640,284.000 293.200 C 284.000 292.760,284.180 292.400,284.400 292.400 C 284.620 292.400,284.800 292.055,284.800 291.633 C 284.800 291.212,284.935 290.807,285.100 290.733 C 285.595 290.513,288.000 285.546,288.000 284.744 C 288.000 284.335,288.180 284.000,288.400 284.000 C 288.620 284.000,288.800 283.640,288.800 283.200 C 288.800 282.760,288.941 282.400,289.113 282.400 C 289.285 282.400,289.671 281.545,289.971 280.500 C 290.271 279.455,290.650 278.420,290.813 278.200 C 290.976 277.980,291.236 277.035,291.390 276.100 C 291.544 275.165,291.834 274.400,292.035 274.400 C 292.236 274.400,292.400 273.950,292.400 273.400 C 292.400 272.850,292.580 272.400,292.800 272.400 C 293.020 272.400,293.200 271.860,293.200 271.200 C 293.200 270.540,293.380 270.000,293.600 270.000 C 293.820 270.000,294.000 269.460,294.000 268.800 C 294.000 268.140,294.180 267.600,294.400 267.600 C 294.620 267.600,294.800 266.880,294.800 266.000 C 294.800 265.120,294.980 264.400,295.200 264.400 C 295.420 264.400,295.600 263.860,295.600 263.200 C 295.600 262.540,295.780 262.000,296.000 262.000 C 296.220 262.000,296.400 261.280,296.400 260.400 C 296.400 259.520,296.580 258.800,296.800 258.800 C 297.020 258.800,297.200 258.440,297.200 258.000 C 297.200 257.560,297.380 257.200,297.600 257.200 C 297.820 257.200,298.000 256.930,298.000 256.600 C 298.000 256.270,298.180 256.000,298.400 256.000 C 298.620 256.000,298.800 255.640,298.800 255.200 C 298.800 254.760,298.950 254.400,299.132 254.400 C 299.315 254.400,299.720 253.905,300.032 253.300 C 300.345 252.695,300.915 251.851,301.300 251.425 C 301.685 250.998,302.000 250.413,302.000 250.125 C 302.000 249.836,302.158 249.600,302.351 249.600 C 302.545 249.600,302.927 249.060,303.200 248.400 C 303.473 247.740,303.855 247.200,304.049 247.200 C 304.242 247.200,304.400 246.840,304.400 246.400 C 304.400 245.960,304.580 245.600,304.800 245.600 C 305.020 245.600,305.200 245.240,305.200 244.800 C 305.200 244.360,305.342 244.000,305.516 244.000 C 305.931 244.000,308.000 239.905,308.000 239.084 C 308.000 238.734,308.180 238.336,308.400 238.200 C 308.620 238.064,308.800 237.243,308.800 236.376 C 308.800 235.509,308.980 234.800,309.200 234.800 C 309.437 234.800,309.600 233.333,309.600 231.200 C 309.600 229.067,309.437 227.600,309.200 227.600 C 308.980 227.600,308.800 227.058,308.800 226.395 C 308.800 225.732,308.631 224.877,308.425 224.495 C 308.219 224.113,307.668 222.990,307.200 222.000 C 306.180 219.839,303.510 216.800,302.631 216.800 C 302.284 216.800,302.000 216.620,302.000 216.400 C 302.000 216.180,301.640 216.000,301.200 216.000 C 300.760 216.000,300.400 215.820,300.400 215.600 C 300.400 215.380,300.040 215.200,299.600 215.200 C 299.160 215.200,298.800 215.020,298.800 214.800 C 298.800 214.580,298.440 214.400,298.000 214.400 C 297.560 214.400,297.200 214.220,297.200 214.000 C 297.200 213.780,296.761 213.600,296.224 213.600 C 295.687 213.600,295.136 213.420,295.000 213.200 C 294.864 212.980,294.403 212.800,293.976 212.800 C 293.549 212.800,293.200 212.620,293.200 212.400 C 293.200 212.180,292.857 212.000,292.438 212.000 C 292.019 212.000,290.894 211.614,289.938 211.143 C 288.982 210.672,287.750 210.107,287.200 209.887 C 285.091 209.045,283.395 208.188,283.267 207.900 C 283.193 207.735,282.828 207.600,282.455 207.600 C 282.082 207.600,281.517 207.240,281.200 206.800 C 280.883 206.360,280.396 206.000,280.118 206.000 C 279.840 206.000,278.755 205.203,277.706 204.229 C 274.036 200.819,271.715 198.800,271.466 198.800 C 271.327 198.800,270.369 197.990,269.335 197.000 C 268.302 196.010,267.328 195.200,267.171 195.200 C 267.013 195.200,266.341 194.705,265.676 194.100 C 262.286 191.013,261.541 190.400,261.179 190.400 C 260.962 190.400,259.626 189.275,258.209 187.900 C 252.784 182.634,250.809 180.833,249.970 180.384 C 249.493 180.129,248.143 178.993,246.971 177.860 C 245.799 176.727,243.827 174.900,242.589 173.800 C 241.351 172.700,238.865 170.360,237.065 168.600 C 235.265 166.840,232.985 164.770,231.998 164.000 C 230.511 162.840,228.666 161.162,225.620 158.200 C 225.394 157.980,222.335 154.875,218.823 151.300 C 215.311 147.725,212.159 144.800,211.819 144.800 C 211.479 144.800,211.200 144.620,211.200 144.400 C 211.200 144.180,210.851 144.000,210.424 144.000 C 209.997 144.000,209.536 143.820,209.400 143.600 C 209.097 143.110,207.435 143.170,205.724 143.732 M292.000 154.000 C 292.000 154.220,291.722 154.400,291.382 154.400 C 290.582 154.400,288.800 156.182,288.800 156.982 C 288.800 157.322,288.620 157.600,288.400 157.600 C 288.172 157.600,288.000 158.784,288.000 160.352 L 288.000 163.104 290.941 166.152 C 293.488 168.791,294.067 169.200,295.261 169.200 C 296.019 169.200,296.836 169.396,297.075 169.635 C 297.388 169.948,297.585 169.948,297.778 169.635 C 297.926 169.396,298.577 169.200,299.224 169.200 C 299.871 169.200,300.400 169.063,300.400 168.895 C 300.400 168.727,300.805 168.412,301.300 168.195 C 301.795 167.978,302.378 167.395,302.595 166.900 C 302.812 166.405,303.127 166.000,303.295 166.000 C 304.042 166.000,303.611 160.163,302.800 159.292 C 302.360 158.820,302.000 158.330,302.000 158.203 C 302.000 157.696,299.186 155.200,298.613 155.200 C 298.276 155.200,298.000 155.020,298.000 154.800 C 298.000 154.580,297.640 154.400,297.200 154.400 C 296.760 154.400,296.400 154.220,296.400 154.000 C 296.400 153.780,295.410 153.600,294.200 153.600 C 292.990 153.600,292.000 153.780,292.000 154.000 M312.641 176.965 C 309.783 178.631,308.476 181.577,309.273 184.556 C 309.544 185.570,309.909 186.400,310.083 186.400 C 310.257 186.400,310.400 186.639,310.400 186.932 C 310.400 187.868,314.416 191.600,315.423 191.600 C 315.934 191.600,316.464 191.780,316.600 192.000 C 316.736 192.220,317.737 192.400,318.824 192.400 C 319.911 192.400,320.800 192.220,320.800 192.000 C 320.800 191.780,321.126 191.600,321.525 191.600 C 324.376 191.600,325.899 185.340,323.883 181.911 C 322.501 179.560,320.034 177.187,318.696 176.919 C 318.084 176.797,317.486 176.540,317.368 176.348 C 316.964 175.694,314.203 176.054,312.641 176.965 M333.800 200.800 C 333.664 201.020,333.197 201.200,332.763 201.200 C 331.845 201.200,329.200 203.696,329.200 204.563 C 329.200 204.887,329.020 205.264,328.800 205.400 C 327.797 206.020,329.286 212.000,330.444 212.000 C 330.640 212.000,330.800 212.256,330.800 212.568 C 330.800 212.881,331.624 213.961,332.632 214.968 L 334.463 216.800 337.445 216.800 C 340.552 216.800,343.200 215.242,343.200 213.413 C 343.200 213.076,343.380 212.800,343.600 212.800 C 343.826 212.800,344.000 211.667,344.000 210.200 C 344.000 208.733,343.826 207.600,343.600 207.600 C 343.380 207.600,343.200 207.322,343.200 206.982 C 343.200 206.642,342.750 205.914,342.200 205.364 C 341.650 204.814,341.200 204.211,341.200 204.024 C 341.200 203.309,338.840 201.200,338.040 201.200 C 337.578 201.200,337.200 201.020,337.200 200.800 C 337.200 200.580,336.491 200.400,335.624 200.400 C 334.757 200.400,333.936 200.580,333.800 200.800 M357.800 216.486 C 356.596 217.181,356.000 217.872,356.000 218.571 C 356.000 218.917,355.820 219.200,355.600 219.200 C 355.369 219.200,355.200 220.467,355.200 222.200 C 355.200 223.933,355.369 225.200,355.600 225.200 C 355.820 225.200,356.000 225.483,356.000 225.829 C 356.000 226.637,356.963 227.600,357.771 227.600 C 358.117 227.600,358.400 227.780,358.400 228.000 C 358.400 228.220,358.749 228.400,359.176 228.400 C 359.603 228.400,360.064 228.580,360.200 228.800 C 360.336 229.020,361.157 229.200,362.024 229.200 C 362.891 229.200,363.600 229.380,363.600 229.600 C 363.600 229.820,364.320 230.000,365.200 230.000 C 366.080 230.000,366.800 229.820,366.800 229.600 C 366.800 229.380,367.205 229.200,367.700 229.200 C 368.796 229.199,370.800 227.553,370.800 226.653 C 370.800 226.294,370.980 226.000,371.200 226.000 C 372.158 226.000,371.653 220.417,370.600 219.364 C 370.050 218.814,369.599 218.237,369.597 218.082 C 369.593 217.696,367.599 216.800,366.744 216.800 C 366.361 216.800,365.936 216.620,365.800 216.400 C 365.458 215.847,358.783 215.919,357.800 216.486 M287.579 223.664 C 299.307 228.447,299.734 230.076,292.358 241.879 C 287.792 249.185,288.113 248.976,285.800 246.137 C 284.189 244.161,281.967 240.126,280.767 237.000 C 279.091 232.632,278.752 220.800,280.303 220.800 C 280.443 220.800,283.718 222.089,287.579 223.664 M367.000 239.200 C 366.864 239.420,366.309 239.600,365.766 239.600 C 364.884 239.600,361.200 242.688,361.200 243.428 C 361.200 243.565,360.826 244.202,360.368 244.845 C 358.448 247.542,359.365 253.028,361.931 254.195 C 362.409 254.412,362.800 254.727,362.800 254.895 C 362.800 255.063,364.173 255.200,365.852 255.200 L 368.903 255.200 371.073 252.941 C 376.607 247.182,375.851 239.600,369.744 239.600 C 369.031 239.600,368.336 239.420,368.200 239.200 C 368.064 238.980,367.794 238.800,367.600 238.800 C 367.406 238.800,367.136 238.980,367.000 239.200 M352.000 266.400 C 352.000 266.620,351.532 266.800,350.960 266.800 C 349.688 266.800,347.648 268.859,347.327 270.467 C 347.202 271.090,346.943 271.600,346.750 271.600 C 346.558 271.600,346.400 271.960,346.400 272.400 C 346.400 272.840,346.220 273.200,346.000 273.200 C 345.769 273.200,345.600 274.467,345.600 276.200 C 345.600 277.933,345.769 279.200,346.000 279.200 C 346.220 279.200,346.400 279.494,346.400 279.853 C 346.400 280.753,348.404 282.399,349.500 282.400 C 349.995 282.400,350.400 282.580,350.400 282.800 C 350.400 283.020,351.300 283.200,352.400 283.200 C 353.500 283.200,354.400 283.020,354.400 282.800 C 354.400 282.580,354.678 282.400,355.018 282.400 C 356.203 282.400,358.800 278.924,358.800 277.339 C 358.800 277.042,358.980 276.800,359.200 276.800 C 359.420 276.800,359.600 276.078,359.600 275.195 C 359.600 274.312,359.825 273.208,360.100 272.742 C 360.500 272.065,360.500 271.859,360.100 271.714 C 359.825 271.615,359.600 271.092,359.600 270.553 C 359.600 269.353,357.161 266.800,356.013 266.800 C 355.566 266.800,355.200 266.620,355.200 266.400 C 355.200 266.180,354.480 266.000,353.600 266.000 C 352.720 266.000,352.000 266.180,352.000 266.400 M338.000 294.400 C 338.000 294.620,337.638 294.800,337.196 294.800 C 336.754 294.800,336.079 295.183,335.696 295.650 C 335.313 296.118,334.595 296.920,334.100 297.432 C 333.605 297.944,333.200 298.559,333.200 298.799 C 333.200 299.038,332.840 299.620,332.400 300.092 C 330.628 301.994,331.522 308.328,333.700 309.303 C 334.305 309.574,334.800 309.931,334.800 310.098 C 334.800 310.910,340.439 310.398,341.375 309.500 C 341.892 309.005,342.874 308.090,343.557 307.466 C 344.241 306.842,344.800 306.077,344.800 305.766 C 344.800 305.455,344.980 305.200,345.200 305.200 C 345.420 305.200,345.600 304.840,345.600 304.400 C 345.600 303.960,345.780 303.600,346.000 303.600 C 346.229 303.600,346.400 302.400,346.400 300.800 C 346.400 299.200,346.229 298.000,346.000 298.000 C 345.780 298.000,345.600 297.722,345.600 297.382 C 345.600 296.486,344.022 295.078,342.372 294.500 C 340.660 293.901,338.000 293.840,338.000 294.400 M320.000 318.800 C 320.000 319.020,319.548 319.200,318.995 319.200 C 317.251 319.200,312.000 323.548,312.000 324.991 C 312.000 325.326,311.820 325.600,311.600 325.600 C 311.374 325.600,311.200 326.733,311.200 328.200 C 311.200 329.630,311.336 330.800,311.502 330.800 C 311.669 330.800,312.026 331.295,312.297 331.900 C 312.766 332.947,314.361 334.000,315.480 334.000 C 315.766 334.000,316.000 334.180,316.000 334.400 C 316.000 334.620,316.900 334.800,318.000 334.800 C 319.100 334.800,320.000 334.620,320.000 334.400 C 320.000 334.180,320.360 334.000,320.800 334.000 C 321.240 334.000,321.600 333.820,321.600 333.600 C 321.600 333.380,321.836 333.200,322.124 333.200 C 322.818 333.200,326.000 329.743,326.000 328.989 C 326.000 328.665,326.180 328.400,326.400 328.400 C 326.631 328.400,326.800 327.133,326.800 325.400 C 326.800 323.667,326.631 322.400,326.400 322.400 C 326.180 322.400,326.000 322.117,326.000 321.771 C 326.000 321.053,325.066 320.000,324.429 320.000 C 324.193 320.000,324.000 319.820,324.000 319.600 C 324.000 319.380,323.471 319.200,322.824 319.200 C 322.177 319.200,321.536 319.020,321.400 318.800 C 321.264 318.580,320.893 318.400,320.576 318.400 C 320.259 318.400,320.000 318.580,320.000 318.800 M294.000 338.400 C 294.000 338.620,293.590 338.800,293.088 338.800 C 292.587 338.800,291.917 339.160,291.600 339.600 C 291.283 340.040,290.785 340.400,290.494 340.400 C 290.202 340.400,289.514 340.850,288.964 341.400 C 288.414 341.950,287.792 342.400,287.582 342.400 C 287.372 342.400,287.200 342.670,287.200 343.000 C 287.200 343.330,287.020 343.600,286.800 343.600 C 286.569 343.600,286.400 344.867,286.400 346.600 C 286.400 348.250,286.536 349.600,286.702 349.600 C 286.869 349.600,287.244 350.140,287.536 350.800 C 287.859 351.531,288.367 352.000,288.834 352.000 C 289.255 352.000,289.600 352.180,289.600 352.400 C 289.600 352.620,290.140 352.800,290.800 352.800 C 291.460 352.800,292.000 352.980,292.000 353.200 C 292.000 353.420,292.349 353.600,292.776 353.600 C 293.203 353.600,293.664 353.420,293.800 353.200 C 293.936 352.980,294.577 352.800,295.224 352.800 C 295.871 352.800,296.400 352.620,296.400 352.400 C 296.400 352.180,296.720 352.000,297.112 352.000 C 297.503 352.000,298.083 351.640,298.400 351.200 C 298.717 350.760,299.215 350.400,299.506 350.400 C 300.237 350.400,302.000 348.574,302.000 347.818 C 302.000 347.478,302.180 347.200,302.400 347.200 C 302.626 347.200,302.800 346.067,302.800 344.600 C 302.800 343.133,302.626 342.000,302.400 342.000 C 302.180 342.000,302.000 341.722,302.000 341.382 C 302.000 341.042,301.558 340.322,301.018 339.782 C 300.478 339.242,299.758 338.800,299.418 338.800 C 299.078 338.800,298.800 338.620,298.800 338.400 C 298.800 338.178,297.733 338.000,296.400 338.000 C 295.067 338.000,294.000 338.178,294.000 338.400 M264.800 351.600 C 264.800 351.820,264.355 352.000,263.812 352.000 C 261.788 352.000,258.400 354.542,258.400 356.061 C 258.400 356.468,258.220 356.800,258.000 356.800 C 257.780 356.800,257.600 357.790,257.600 359.000 C 257.600 360.210,257.780 361.200,258.000 361.200 C 258.220 361.200,258.406 361.515,258.413 361.900 C 258.429 362.721,259.473 363.993,260.713 364.700 C 261.761 365.298,267.600 365.383,267.600 364.800 C 267.600 364.580,268.140 364.400,268.800 364.400 C 269.460 364.400,270.000 364.220,270.000 364.000 C 270.000 363.780,270.360 363.600,270.800 363.600 C 271.240 363.600,271.600 363.420,271.600 363.200 C 271.600 362.980,271.870 362.800,272.200 362.800 C 272.530 362.800,272.800 362.633,272.800 362.429 C 272.800 362.224,273.031 361.819,273.314 361.529 C 275.440 359.345,274.563 353.471,271.939 352.309 C 271.312 352.032,270.800 351.669,270.800 351.502 C 270.800 351.336,269.450 351.200,267.800 351.200 C 266.067 351.200,264.800 351.369,264.800 351.600 M231.975 358.771 C 228.469 359.457,224.871 365.960,227.200 367.400 C 227.420 367.536,227.600 367.927,227.600 368.270 C 227.600 369.511,230.428 371.596,232.178 371.646 C 235.608 371.743,239.016 371.516,239.380 371.166 C 239.589 370.965,240.039 370.800,240.380 370.800 C 241.251 370.799,243.200 369.039,243.200 368.253 C 243.200 367.894,243.380 367.600,243.600 367.600 C 244.153 367.600,244.104 363.391,243.538 362.295 C 243.284 361.803,242.952 361.130,242.800 360.800 C 241.829 358.683,237.025 357.783,231.975 358.771 M200.845 359.367 C 198.841 359.914,196.400 361.852,196.400 362.896 C 196.400 363.283,196.220 363.600,196.000 363.600 C 195.778 363.600,195.600 364.667,195.600 366.000 C 195.600 367.333,195.778 368.400,196.000 368.400 C 196.220 368.400,196.400 368.678,196.400 369.018 C 196.400 369.818,198.182 371.600,198.982 371.600 C 199.322 371.600,199.600 371.780,199.600 372.000 C 199.600 372.222,200.659 372.400,201.976 372.400 C 203.283 372.400,204.464 372.580,204.600 372.800 C 204.736 373.020,205.377 373.200,206.024 373.200 C 206.671 373.200,207.200 373.020,207.200 372.800 C 207.200 372.580,207.740 372.400,208.400 372.400 C 209.060 372.400,209.600 372.241,209.600 372.047 C 209.600 371.852,209.960 371.599,210.400 371.484 C 210.840 371.369,211.200 370.988,211.200 370.637 C 211.200 370.287,211.380 370.000,211.600 370.000 C 211.820 370.000,212.000 369.640,212.000 369.200 C 212.000 368.760,212.180 368.400,212.400 368.400 C 212.622 368.400,212.800 367.333,212.800 366.000 C 212.800 364.667,212.622 363.600,212.400 363.600 C 212.180 363.600,212.000 363.312,212.000 362.960 C 212.000 362.139,209.765 360.043,208.653 359.822 C 208.184 359.728,206.990 359.552,206.000 359.431 C 205.010 359.310,203.840 359.138,203.400 359.049 C 202.960 358.960,201.810 359.103,200.845 359.367 " stroke="none" fill="#040404" fill-rule="evenodd"></path><path id="path1" d="M41.237 12.607 C 39.064 13.802,39.200 1.273,39.200 200.000 C 39.200 352.725,39.291 384.526,39.734 385.577 C 40.775 388.053,40.211 388.000,65.454 388.000 L 88.417 388.000 90.009 389.053 C 90.884 389.632,91.600 390.352,91.600 390.653 C 91.600 390.954,91.780 391.200,92.000 391.200 C 92.220 391.200,92.406 391.695,92.413 392.300 C 92.440 394.692,92.793 394.800,100.544 394.800 L 107.600 394.800 107.600 393.838 C 107.600 392.347,109.098 389.895,110.615 388.900 L 111.989 388.000 136.033 388.000 C 159.699 388.000,160.095 387.987,161.238 387.173 L 162.400 386.346 162.400 366.580 L 162.400 346.815 161.300 346.588 C 159.834 346.285,157.287 345.633,155.772 345.173 C 155.096 344.968,154.072 344.800,153.495 344.800 C 152.919 344.800,152.336 344.620,152.200 344.400 C 152.064 344.180,151.344 344.000,150.600 344.000 C 149.856 344.000,149.136 343.820,149.000 343.600 C 148.864 343.380,148.144 343.200,147.400 343.200 C 146.656 343.200,145.936 343.020,145.800 342.800 C 145.664 342.580,144.944 342.400,144.200 342.400 C 143.456 342.400,142.748 342.239,142.626 342.042 C 142.505 341.845,141.729 341.590,140.903 341.475 C 140.076 341.360,138.590 341.057,137.600 340.804 C 136.610 340.550,135.213 340.245,134.496 340.127 C 133.779 340.008,133.094 339.751,132.973 339.556 C 132.852 339.360,132.495 339.200,132.181 339.200 C 130.464 339.200,128.800 336.440,128.800 333.594 C 128.800 328.218,133.374 326.018,139.519 328.438 C 140.024 328.637,140.871 328.800,141.400 328.800 C 141.929 328.800,142.776 328.960,143.281 329.155 C 143.787 329.350,145.100 329.706,146.200 329.946 C 148.853 330.524,159.828 333.122,161.600 333.591 C 165.307 334.573,171.203 335.876,176.000 336.773 C 178.111 337.168,192.975 337.876,193.800 337.621 C 194.020 337.553,196.270 337.338,198.800 337.143 C 205.954 336.591,208.665 336.214,212.800 335.195 C 213.570 335.006,215.100 334.639,216.200 334.380 C 223.018 332.775,237.218 326.568,240.175 323.900 C 240.602 323.515,241.095 323.200,241.271 323.200 C 241.447 323.200,241.908 322.940,242.295 322.622 C 242.683 322.305,244.146 321.194,245.546 320.154 C 248.416 318.023,256.195 311.091,256.682 310.232 C 256.857 309.923,257.630 308.979,258.401 308.135 C 259.997 306.386,261.479 304.593,262.502 303.174 C 265.545 298.954,266.791 297.136,267.817 295.422 C 268.468 294.335,269.490 292.625,270.089 291.622 C 270.687 290.620,271.830 288.450,272.628 286.800 C 273.425 285.150,274.421 283.108,274.839 282.262 C 275.258 281.416,275.600 280.471,275.600 280.162 C 275.600 279.853,275.780 279.600,276.000 279.600 C 276.220 279.600,276.400 279.364,276.400 279.075 C 276.400 278.584,277.546 275.871,278.415 274.305 C 278.627 273.923,278.800 273.336,278.800 273.000 C 278.800 272.664,278.963 272.077,279.163 271.695 C 279.669 270.724,282.801 260.900,282.796 260.295 C 282.794 260.023,282.278 259.394,281.649 258.897 C 279.845 257.472,277.919 255.548,276.400 253.653 C 275.630 252.692,274.820 251.695,274.600 251.438 C 274.124 250.880,273.363 249.584,272.230 247.400 C 271.774 246.520,271.302 245.710,271.183 245.600 C 271.064 245.490,270.717 244.590,270.411 243.600 C 270.106 242.610,269.741 241.620,269.600 241.400 C 267.404 237.968,266.421 222.224,268.114 217.600 C 269.214 214.594,268.953 213.903,265.692 211.189 C 263.991 209.774,262.330 208.333,262.000 207.986 C 261.670 207.639,261.023 207.095,260.563 206.778 C 258.955 205.668,247.135 195.575,245.600 194.001 C 245.270 193.662,244.010 192.581,242.800 191.597 C 241.590 190.613,240.150 189.356,239.600 188.804 C 239.050 188.252,237.880 187.188,237.000 186.440 C 236.120 185.692,233.330 183.158,230.800 180.808 C 228.270 178.459,225.210 175.651,224.000 174.569 C 215.082 166.589,202.085 152.947,201.844 151.313 C 201.584 149.554,202.409 146.330,203.186 146.071 C 203.414 145.995,203.600 145.678,203.600 145.367 C 203.600 145.055,203.817 144.800,204.082 144.800 C 204.347 144.800,202.488 142.770,199.952 140.290 C 197.415 137.809,195.154 135.447,194.926 135.040 C 194.533 134.337,194.419 134.355,192.639 135.398 C 189.024 137.517,186.172 136.619,182.475 132.200 C 181.554 131.100,180.058 129.390,179.150 128.400 C 178.241 127.410,177.026 125.972,176.449 125.206 C 175.872 124.439,174.860 123.252,174.200 122.569 C 171.914 120.204,167.444 114.699,160.451 105.637 C 158.458 103.054,157.399 101.800,157.100 101.667 C 156.935 101.593,156.800 101.293,156.800 101.000 C 156.800 100.707,156.657 100.407,156.483 100.333 C 156.309 100.260,155.169 98.760,153.952 97.000 C 152.734 95.240,150.158 91.550,148.227 88.800 C 146.296 86.050,144.615 83.530,144.491 83.200 C 144.367 82.870,143.756 81.848,143.133 80.928 C 142.510 80.008,142.000 79.063,142.000 78.828 C 142.000 78.593,141.841 78.400,141.647 78.400 C 141.452 78.400,141.193 78.085,141.071 77.700 C 140.783 76.791,139.588 74.847,138.700 73.842 C 138.315 73.406,138.000 72.886,138.000 72.686 C 138.000 72.487,137.664 71.846,137.253 71.262 C 136.135 69.674,129.395 56.528,128.402 54.000 C 127.926 52.790,127.263 51.170,126.928 50.400 C 126.311 48.983,125.882 47.933,125.254 46.300 C 124.676 44.799,123.927 43.040,123.553 42.305 C 123.359 41.923,123.200 41.259,123.200 40.829 C 123.200 40.399,123.020 39.936,122.800 39.800 C 122.580 39.664,122.400 39.124,122.400 38.600 C 122.400 38.076,122.220 37.536,122.000 37.400 C 121.780 37.264,121.600 36.711,121.600 36.171 C 121.600 35.631,121.438 34.877,121.239 34.495 C 120.714 33.484,119.498 28.999,118.041 22.694 C 117.798 21.646,117.588 20.206,117.574 19.494 C 117.519 16.701,116.582 13.541,115.581 12.772 C 114.303 11.790,43.012 11.632,41.237 12.607 " stroke="none" fill="#facaba" fill-rule="evenodd"></path><path id="path2" d="M280.000 226.580 C 280.000 234.507,281.457 239.400,285.440 244.847 C 287.789 248.060,287.656 248.081,290.361 244.057 C 298.723 231.622,298.843 228.634,291.100 225.654 C 290.605 225.463,289.660 225.079,289.000 224.800 C 288.340 224.521,287.440 224.155,287.000 223.987 C 285.784 223.523,283.140 222.380,281.839 221.756 C 281.200 221.450,280.525 221.200,280.339 221.200 C 280.152 221.200,280.000 223.621,280.000 226.580 " stroke="none" fill="#ee897a" fill-rule="evenodd"></path><path id="path3" d="M40.122 12.565 L 39.000 13.531 39.000 200.000 L 39.000 386.469 40.122 387.435 L 41.245 388.400 64.235 388.400 C 82.988 388.400,87.472 388.503,88.560 388.958 C 89.986 389.553,92.000 391.865,92.000 392.905 C 92.000 393.890,92.443 394.800,92.923 394.800 C 93.215 394.800,93.201 394.641,92.880 394.320 C 92.616 394.056,92.400 393.409,92.400 392.882 C 92.400 391.458,91.017 389.776,89.071 388.834 C 87.386 388.019,86.832 388.000,64.374 387.987 C 40.124 387.974,40.671 388.015,39.665 386.126 C 38.992 384.863,38.992 15.137,39.665 13.874 C 40.686 11.958,39.266 12.026,78.256 12.013 C 120.763 11.998,116.564 11.546,117.410 16.228 C 117.768 18.211,117.923 18.601,117.955 17.597 C 118.018 15.645,117.378 13.641,116.340 12.536 L 115.461 11.600 78.353 11.600 L 41.245 11.600 40.122 12.565 M118.080 20.600 C 118.080 21.260,118.224 22.250,118.400 22.800 C 118.711 23.772,118.720 23.767,118.720 22.600 C 118.720 21.940,118.576 20.950,118.400 20.400 C 118.089 19.428,118.080 19.433,118.080 20.600 M119.024 25.400 C 119.546 28.984,122.759 39.487,125.205 45.600 C 126.129 47.910,127.051 50.230,127.254 50.755 C 127.456 51.281,127.720 51.614,127.839 51.494 C 127.958 51.375,127.699 50.495,127.263 49.539 C 126.093 46.970,124.007 41.659,123.360 39.600 C 122.793 37.798,122.498 36.790,121.660 33.800 C 121.413 32.920,120.849 31.045,120.406 29.634 C 119.963 28.223,119.587 26.693,119.572 26.234 C 119.556 25.775,119.374 25.040,119.168 24.600 C 118.894 24.018,118.855 24.235,119.024 25.400 M128.000 52.362 C 128.000 52.609,128.162 53.123,128.361 53.505 C 128.559 53.887,130.299 57.350,132.228 61.200 C 136.519 69.769,136.784 70.244,141.597 78.000 C 142.757 79.870,144.413 82.570,145.277 84.000 C 146.141 85.430,147.391 87.230,148.054 88.000 C 149.522 89.704,149.250 89.191,146.363 84.800 C 144.062 81.301,141.306 76.864,139.903 74.400 C 139.465 73.630,138.738 72.480,138.287 71.845 C 137.836 71.210,135.337 66.465,132.734 61.301 C 130.130 56.138,128.000 52.115,128.000 52.362 M152.188 94.026 C 154.900 97.964,160.237 105.155,162.169 107.475 C 162.501 107.874,164.328 110.180,166.229 112.600 C 169.734 117.060,172.236 120.083,174.833 122.994 C 176.358 124.704,176.642 125.033,181.353 130.563 C 184.623 134.403,186.313 135.781,188.200 136.146 C 189.478 136.394,189.047 136.144,186.537 135.181 C 185.775 134.890,182.972 131.838,175.200 122.838 C 173.990 121.436,172.809 120.090,172.576 119.845 C 171.489 118.706,158.013 101.570,156.811 99.800 C 156.064 98.700,155.340 97.710,155.202 97.600 C 155.064 97.490,153.815 95.732,152.428 93.694 C 151.040 91.656,149.710 89.868,149.471 89.720 C 149.233 89.573,150.456 91.511,152.188 94.026 M191.400 135.222 C 190.360 135.714,190.080 135.980,190.600 135.981 C 191.040 135.981,191.850 135.630,192.400 135.200 C 193.622 134.244,193.459 134.248,191.400 135.222 M202.986 146.900 L 202.352 148.200 203.167 147.200 C 203.952 146.237,204.208 145.600,203.810 145.600 C 203.706 145.600,203.335 146.185,202.986 146.900 M202.058 150.000 C 202.024 151.125,202.278 152.251,202.736 153.001 C 203.452 154.177,219.071 169.812,222.971 173.258 C 224.055 174.216,225.315 175.362,225.771 175.804 C 232.268 182.108,252.220 199.669,263.924 209.384 C 269.139 213.713,269.202 213.786,268.998 215.184 C 268.840 216.265,268.881 216.410,269.168 215.800 C 269.894 214.256,269.602 213.420,267.888 212.127 C 266.959 211.426,265.840 210.526,265.399 210.127 C 264.959 209.727,262.439 207.609,259.799 205.421 C 257.160 203.232,254.910 201.342,254.800 201.220 C 254.617 201.017,250.238 197.191,247.453 194.800 C 246.813 194.250,246.089 193.618,245.844 193.394 C 245.600 193.171,243.960 191.750,242.200 190.236 C 240.440 188.721,237.817 186.384,236.372 185.041 C 234.926 183.698,231.776 180.807,229.372 178.616 C 221.061 171.043,203.753 154.175,203.085 153.000 C 202.835 152.560,202.514 151.300,202.372 150.200 L 202.113 148.200 202.058 150.000 M268.178 218.178 C 268.027 218.981,268.004 219.737,268.126 219.860 C 268.248 219.982,268.472 219.425,268.622 218.622 C 268.773 217.819,268.796 217.063,268.674 216.940 C 268.552 216.818,268.328 217.375,268.178 218.178 M279.805 221.192 C 278.769 222.869,279.415 233.476,280.767 237.000 C 283.189 243.309,287.223 248.961,288.431 247.737 C 291.564 244.559,297.248 233.561,297.140 230.885 C 297.087 229.582,297.062 229.547,296.936 230.600 C 296.523 234.034,294.988 237.177,290.361 244.057 C 287.656 248.081,287.789 248.060,285.440 244.847 C 282.955 241.448,281.890 239.098,280.561 234.080 C 279.945 231.754,279.763 221.200,280.339 221.200 C 280.525 221.200,281.200 221.450,281.839 221.756 C 283.140 222.380,285.784 223.523,287.000 223.987 C 288.707 224.639,290.139 225.228,293.200 226.534 C 293.750 226.768,294.785 227.500,295.500 228.159 C 296.215 228.818,296.800 229.175,296.800 228.953 C 296.800 227.894,294.007 226.294,287.579 223.668 C 279.967 220.558,280.159 220.619,279.805 221.192 M267.459 224.500 C 267.330 226.315,267.374 228.970,267.557 230.400 C 267.846 232.654,267.898 232.215,267.945 227.100 C 268.006 220.528,267.815 219.507,267.459 224.500 M268.068 234.200 C 268.074 234.640,268.224 235.450,268.400 236.000 L 268.720 237.000 268.732 236.000 C 268.738 235.450,268.589 234.640,268.400 234.200 L 268.056 233.400 268.068 234.200 M268.856 237.800 C 268.856 238.240,269.011 238.960,269.200 239.400 L 269.544 240.200 269.544 239.400 C 269.544 238.960,269.389 238.240,269.200 237.800 L 268.856 237.000 268.856 237.800 M269.600 240.572 C 269.600 241.166,271.892 246.439,272.915 248.200 C 275.321 252.339,277.736 255.215,281.731 258.695 C 282.974 259.778,283.178 260.172,282.976 261.095 C 282.791 261.945,282.834 262.062,283.162 261.600 C 283.955 260.483,283.607 259.868,280.629 257.124 C 276.041 252.897,270.400 244.276,270.400 241.493 C 270.400 241.138,270.220 240.736,270.000 240.600 C 269.780 240.464,269.600 240.452,269.600 240.572 M280.590 268.291 C 279.530 271.541,278.514 274.371,278.332 274.580 C 278.149 274.789,278.003 275.239,278.006 275.580 C 278.012 276.126,278.058 276.129,278.400 275.600 C 278.978 274.704,282.912 262.779,282.700 262.566 C 282.599 262.465,281.649 265.042,280.590 268.291 M276.674 278.500 C 276.152 279.655,275.382 281.410,274.963 282.400 C 274.544 283.390,273.150 286.270,271.866 288.800 C 270.583 291.330,269.710 293.220,269.928 293.000 C 270.616 292.306,273.262 287.329,274.766 283.900 C 275.225 282.855,275.964 281.191,276.409 280.201 C 277.536 277.698,278.011 276.400,277.802 276.400 C 277.704 276.400,277.196 277.345,276.674 278.500 M267.571 296.288 C 262.012 304.959,255.338 312.583,248.283 318.321 C 245.336 320.719,237.078 326.393,236.513 326.409 C 236.341 326.414,235.750 326.791,235.200 327.248 C 234.154 328.116,238.918 325.671,241.000 324.272 C 248.285 319.374,255.741 312.611,260.851 306.264 C 264.314 301.962,269.779 294.046,269.487 293.754 C 269.389 293.656,268.527 294.797,267.571 296.288 M133.000 327.893 C 130.076 328.625,127.179 334.551,129.150 335.769 C 129.343 335.888,129.413 335.209,129.305 334.259 C 128.969 331.269,130.650 329.040,133.900 328.165 C 135.651 327.694,134.811 327.440,133.000 327.893 M136.033 328.147 C 136.125 328.228,136.920 328.414,137.800 328.562 C 138.946 328.754,139.230 328.714,138.800 328.421 C 138.260 328.053,135.632 327.793,136.033 328.147 M231.107 329.185 C 229.846 329.811,227.529 330.828,225.957 331.445 C 224.385 332.062,223.277 332.626,223.495 332.698 C 223.908 332.836,229.831 330.355,232.600 328.885 C 234.977 327.623,233.762 327.867,231.107 329.185 M142.200 329.627 C 145.065 330.399,146.893 330.625,145.400 330.023 C 144.193 329.536,140.881 328.795,140.094 328.836 C 139.712 328.856,140.660 329.212,142.200 329.627 M147.000 330.800 C 148.184 331.309,149.587 331.309,148.800 330.800 C 148.470 330.587,147.750 330.422,147.200 330.434 C 146.284 330.454,146.267 330.485,147.000 330.800 M150.400 331.600 C 151.942 332.094,152.764 332.094,152.000 331.600 C 151.670 331.387,150.950 331.227,150.400 331.246 L 149.400 331.280 150.400 331.600 M153.800 332.400 C 154.240 332.589,154.960 332.744,155.400 332.744 L 156.200 332.744 155.400 332.400 C 154.960 332.211,154.240 332.056,153.800 332.056 L 153.000 332.056 153.800 332.400 M157.000 333.200 C 157.440 333.389,158.160 333.544,158.600 333.544 L 159.400 333.544 158.600 333.200 C 158.160 333.011,157.440 332.856,157.000 332.856 L 156.200 332.856 157.000 333.200 M221.200 333.200 C 220.667 333.545,220.667 333.588,221.200 333.588 C 221.530 333.588,222.070 333.413,222.400 333.200 C 222.933 332.855,222.933 332.812,222.400 332.812 C 222.070 332.812,221.530 332.987,221.200 333.200 M160.400 334.000 C 160.730 334.213,161.450 334.378,162.000 334.366 C 162.916 334.346,162.933 334.315,162.200 334.000 C 161.016 333.491,159.613 333.491,160.400 334.000 M218.800 334.000 C 218.267 334.345,218.267 334.388,218.800 334.388 C 219.130 334.388,219.670 334.213,220.000 334.000 C 220.533 333.655,220.533 333.612,220.000 333.612 C 219.670 333.612,219.130 333.787,218.800 334.000 M163.600 334.800 C 163.930 335.013,164.650 335.178,165.200 335.166 C 166.116 335.146,166.133 335.115,165.400 334.800 C 164.216 334.291,162.813 334.291,163.600 334.800 M215.800 334.800 L 215.000 335.144 215.800 335.144 C 216.240 335.144,216.960 334.989,217.400 334.800 L 218.200 334.456 217.400 334.456 C 216.960 334.456,216.240 334.611,215.800 334.800 M166.400 335.346 C 166.400 335.706,174.714 337.357,179.621 337.971 C 183.651 338.476,195.106 338.502,197.400 338.012 C 198.455 337.786,197.432 337.741,194.400 337.879 C 187.928 338.173,177.266 337.383,171.670 336.195 C 166.845 335.171,166.400 335.099,166.400 335.346 M212.400 335.600 L 211.400 335.920 212.400 335.932 C 212.950 335.938,213.760 335.789,214.200 335.600 L 215.000 335.256 214.200 335.268 C 213.760 335.274,212.950 335.424,212.400 335.600 M208.200 336.400 L 207.000 336.705 208.400 336.725 C 209.170 336.735,210.160 336.589,210.600 336.400 C 211.664 335.943,209.997 335.943,208.200 336.400 M129.600 336.701 C 129.600 337.363,131.966 339.033,133.600 339.525 C 135.743 340.169,139.076 341.012,146.400 342.761 C 149.150 343.418,153.351 344.429,155.736 345.008 C 158.121 345.587,160.168 345.966,160.284 345.850 C 160.400 345.734,159.978 345.531,159.347 345.400 C 158.716 345.268,157.570 344.998,156.800 344.799 C 156.030 344.601,153.780 344.061,151.800 343.600 C 149.820 343.139,147.525 342.591,146.700 342.381 C 145.875 342.171,144.525 341.828,143.700 341.618 C 142.875 341.408,139.952 340.681,137.203 340.003 C 133.032 338.973,131.992 338.561,130.903 337.506 C 130.187 336.812,129.600 336.449,129.600 336.701 M201.600 337.200 L 199.000 337.462 202.000 337.491 C 203.650 337.507,205.450 337.376,206.000 337.200 C 207.258 336.797,205.598 336.797,201.600 337.200 M161.600 346.340 L 162.600 346.636 162.704 366.332 L 162.808 386.029 161.822 387.014 L 160.836 388.000 136.944 388.000 C 108.558 388.000,109.917 387.774,108.130 392.785 C 107.858 393.546,107.713 394.246,107.807 394.340 C 107.981 394.515,108.800 392.608,108.800 392.028 C 108.800 391.852,109.177 391.229,109.637 390.644 C 111.416 388.382,111.194 388.400,137.194 388.400 L 161.091 388.400 162.149 387.342 L 163.207 386.284 163.104 366.242 L 163.000 346.200 161.800 346.122 C 160.682 346.048,160.669 346.063,161.600 346.340 " stroke="none" fill="#a18378" fill-rule="evenodd"></path><path id="path4" d="M117.701 20.200 C 117.705 21.080,117.787 21.393,117.883 20.895 C 117.979 20.398,117.975 19.678,117.875 19.295 C 117.775 18.913,117.696 19.320,117.701 20.200 M118.406 24.433 C 118.409 24.965,118.589 25.670,118.806 26.000 C 119.082 26.422,119.123 26.185,118.942 25.200 C 118.625 23.475,118.398 23.149,118.406 24.433 M131.200 60.000 C 131.649 60.880,132.106 61.600,132.216 61.600 C 132.326 61.600,132.049 60.880,131.600 60.000 C 131.151 59.120,130.694 58.400,130.584 58.400 C 130.474 58.400,130.751 59.120,131.200 60.000 M148.601 89.435 C 149.664 90.956,150.800 92.470,151.126 92.800 C 151.452 93.130,150.766 91.999,149.601 90.287 C 148.436 88.575,147.299 87.061,147.075 86.923 C 146.851 86.784,147.537 87.915,148.601 89.435 M166.591 113.547 C 167.672 114.924,168.741 116.164,168.966 116.303 C 169.191 116.442,168.490 115.429,167.409 114.053 C 166.328 112.676,165.259 111.436,165.034 111.297 C 164.809 111.158,165.510 112.171,166.591 113.547 M172.434 120.647 C 172.965 121.333,173.480 121.823,173.579 121.735 C 173.677 121.647,173.243 121.086,172.613 120.488 L 171.469 119.400 172.434 120.647 M177.270 126.378 C 177.781 127.026,178.349 127.566,178.530 127.578 C 178.712 127.590,178.442 127.070,177.930 126.422 C 177.419 125.774,176.851 125.234,176.670 125.222 C 176.488 125.210,176.758 125.730,177.270 126.378 M192.400 135.236 C 191.736 135.779,191.669 135.915,192.200 135.640 C 193.505 134.966,194.228 134.412,193.800 134.415 C 193.580 134.417,192.950 134.786,192.400 135.236 M202.465 147.017 C 201.795 148.488,201.923 148.802,202.647 147.465 C 202.986 146.840,203.188 146.254,203.096 146.163 C 203.005 146.071,202.721 146.456,202.465 147.017 M212.000 163.000 C 215.184 166.190,217.880 168.800,217.990 168.800 C 218.100 168.800,215.584 166.190,212.400 163.000 C 209.216 159.810,206.520 157.200,206.410 157.200 C 206.300 157.200,208.816 159.810,212.000 163.000 M223.774 174.293 C 224.640 175.224,225.435 175.899,225.541 175.793 C 225.647 175.687,225.656 175.555,225.562 175.500 C 225.468 175.445,224.673 174.770,223.796 174.001 L 222.200 172.601 223.774 174.293 M226.800 176.925 C 226.800 176.994,227.385 177.579,228.100 178.225 L 229.400 179.400 228.225 178.100 C 227.130 176.888,226.800 176.616,226.800 176.925 M233.730 183.489 C 237.671 187.141,238.516 187.690,235.007 184.319 C 233.243 182.625,231.678 181.230,231.530 181.219 C 231.381 181.209,232.371 182.230,233.730 183.489 M240.422 189.470 C 240.434 189.651,240.974 190.219,241.622 190.730 C 242.270 191.242,242.790 191.512,242.778 191.330 C 242.766 191.149,242.226 190.581,241.578 190.070 C 240.930 189.558,240.410 189.288,240.422 189.470 M246.800 194.925 C 246.800 194.994,247.385 195.579,248.100 196.225 L 249.400 197.400 248.225 196.100 C 247.130 194.888,246.800 194.616,246.800 194.925 M250.800 198.600 C 251.546 199.370,252.247 200.000,252.357 200.000 C 252.467 200.000,251.946 199.370,251.200 198.600 C 250.454 197.830,249.753 197.200,249.643 197.200 C 249.533 197.200,250.054 197.830,250.800 198.600 M253.400 200.764 C 254.236 201.729,257.200 204.183,257.200 203.910 C 257.200 203.823,256.165 202.872,254.900 201.797 C 253.635 200.721,252.960 200.256,253.400 200.764 M265.200 210.525 C 265.200 210.594,265.785 211.179,266.500 211.825 L 267.800 213.000 266.625 211.700 C 265.530 210.488,265.200 210.216,265.200 210.525 M268.309 213.225 C 268.565 213.569,268.693 214.559,268.593 215.425 L 268.412 217.000 268.816 215.424 C 269.154 214.104,269.107 213.746,268.531 213.224 C 267.908 212.659,267.887 212.659,268.309 213.225 M267.701 219.800 C 267.705 220.680,267.787 220.993,267.883 220.495 C 267.979 219.998,267.975 219.278,267.875 218.895 C 267.775 218.513,267.696 218.920,267.701 219.800 M267.293 223.600 C 267.293 224.370,267.375 224.685,267.476 224.300 C 267.576 223.915,267.576 223.285,267.476 222.900 C 267.375 222.515,267.293 222.830,267.293 223.600 M267.293 230.000 C 267.293 230.770,267.375 231.085,267.476 230.700 C 267.576 230.315,267.576 229.685,267.476 229.300 C 267.375 228.915,267.293 229.230,267.293 230.000 M267.606 233.833 C 267.609 234.475,267.784 235.270,267.995 235.600 C 268.255 236.009,268.299 235.690,268.132 234.600 C 267.829 232.623,267.598 232.286,267.606 233.833 M268.406 237.633 C 268.409 238.165,268.589 238.870,268.806 239.200 C 269.082 239.622,269.123 239.385,268.942 238.400 C 268.625 236.675,268.398 236.349,268.406 237.633 M269.046 293.400 C 268.691 293.950,268.109 294.895,267.753 295.500 L 267.105 296.600 267.910 295.626 C 268.860 294.476,270.121 292.400,269.869 292.400 C 269.771 292.400,269.401 292.850,269.046 293.400 M257.800 308.800 C 257.168 309.460,256.819 309.990,257.025 309.978 C 257.378 309.957,259.439 307.600,259.105 307.600 C 259.020 307.600,258.432 308.140,257.800 308.800 M250.581 316.100 L 249.000 317.800 250.794 316.200 C 251.780 315.320,252.665 314.555,252.761 314.500 C 252.856 314.445,252.760 314.400,252.548 314.400 C 252.336 314.400,251.451 315.165,250.581 316.100 M133.339 327.506 C 133.086 327.668,133.793 327.814,134.912 327.831 C 136.219 327.851,136.669 327.753,136.173 327.559 C 135.160 327.162,133.915 327.139,133.339 327.506 M148.800 330.782 C 149.130 331.005,149.745 331.191,150.167 331.194 C 151.190 331.202,150.871 330.973,149.400 330.644 C 148.524 330.448,148.362 330.485,148.800 330.782 M152.000 331.594 C 152.330 331.811,153.035 331.991,153.567 331.994 C 154.851 332.002,154.525 331.775,152.800 331.458 C 151.815 331.277,151.578 331.318,152.000 331.594 M212.800 335.206 C 212.378 335.482,212.615 335.523,213.600 335.342 C 215.325 335.025,215.651 334.798,214.367 334.806 C 213.835 334.809,213.130 334.989,212.800 335.206 M173.633 336.547 C 173.725 336.628,174.520 336.804,175.400 336.938 C 176.515 337.107,176.758 337.071,176.200 336.819 C 175.432 336.471,173.290 336.244,173.633 336.547 M203.200 336.807 C 202.579 337.011,203.109 337.051,204.600 336.912 C 205.920 336.789,207.075 336.624,207.167 336.544 C 207.489 336.265,204.188 336.484,203.200 336.807 M183.000 337.619 C 185.200 337.777,188.440 337.897,190.200 337.886 C 193.346 337.866,193.329 337.861,189.200 337.582 C 186.890 337.426,183.650 337.306,182.000 337.315 C 179.123 337.331,179.164 337.344,183.000 337.619 M194.400 337.597 C 193.819 337.781,194.573 337.825,196.200 337.701 C 197.740 337.584,199.075 337.423,199.167 337.344 C 199.488 337.066,195.389 337.283,194.400 337.597 M152.200 344.400 C 152.336 344.620,152.842 344.787,153.324 344.772 C 154.169 344.745,154.171 344.731,153.400 344.400 C 152.299 343.927,151.908 343.927,152.200 344.400 M158.800 345.982 C 159.130 346.205,159.745 346.391,160.167 346.394 C 161.190 346.402,160.871 346.173,159.400 345.844 C 158.524 345.648,158.362 345.685,158.800 345.982 M161.896 346.691 C 162.277 346.961,162.418 351.598,162.502 366.621 L 162.612 386.200 162.606 366.433 C 162.601 349.206,162.523 346.646,162.000 346.503 C 161.560 346.383,161.532 346.433,161.896 346.691 " stroke="none" fill="#c49f92" fill-rule="evenodd"></path></g></svg>