<svg width="36" height="36" viewBox="0 0 36 36" fill="none" xmlns="http://www.w3.org/2000/svg">
<path d="M18 36C27.9411 36 36 27.9411 36 18C36 8.05888 27.9411 0 18 0C8.05888 0 0 8.05888 0 18C0 27.9411 8.05888 36 18 36Z" fill="#07233B"/>
<path d="M16.3887 15.488C16.0998 14.677 15.6314 13.9155 14.9825 13.2659L8.99463 7.27795V10.0729L13.5251 14.6033C15.1249 16.2031 15.1249 18.7969 13.5251 20.3975L8.99463 24.928V27.7229L14.9825 21.735C15.6951 21.0224 16.1884 20.1757 16.4673 19.2761C17.3355 19.1801 18.0108 18.4452 18.0108 17.5513V17.2194C18.0108 16.2983 17.2941 15.5476 16.3887 15.488Z" fill="#F49980"/>
<path d="M28.0055 10.0729V7.27795L22.0176 13.2659C21.3679 13.9155 20.8994 14.677 20.6114 15.488C19.706 15.5476 18.9893 16.2991 18.9893 17.2194V17.5497C18.9893 18.4435 19.6646 19.1793 20.5328 19.2753C20.8109 20.1749 21.305 21.0224 22.0176 21.735L28.0055 27.7229V24.928L23.475 20.3975C21.8752 18.7977 21.8752 16.2039 23.475 14.6033L28.0055 10.0729Z" fill="#F49980"/>
</svg>
